<svg xmlns="http://www.w3.org/2000/svg" xmlns:xlink="http://www.w3.org/1999/xlink" width="324" height="221.143" viewBox="0 0 324 221.143">
  <defs>
    <filter id="Caminho_9067">
      <feOffset input="SourceAlpha"/>
      <feGaussianBlur stdDeviation="30" result="blur"/>
      <feFlood flood-color="#00c8db" result="color"/>
      <feComposite operator="out" in="SourceGraphic" in2="blur"/>
      <feComposite operator="in" in="color"/>
      <feComposite operator="in" in2="SourceGraphic"/>
    </filter>
    <filter id="Caminho_9068">
      <feOffset input="SourceAlpha"/>
      <feGaussianBlur stdDeviation="30" result="blur-2"/>
      <feFlood flood-color="#af39e6" result="color-2"/>
      <feComposite operator="out" in="SourceGraphic" in2="blur-2"/>
      <feComposite operator="in" in="color-2"/>
      <feComposite operator="in" in2="SourceGraphic"/>
    </filter>
    <filter id="Interseção_7">
      <feOffset input="SourceAlpha"/>
      <feGaussianBlur stdDeviation="35" result="blur-3"/>
      <feFlood flood-color="#ff0070" result="color-3"/>
      <feComposite operator="out" in="SourceGraphic" in2="blur-3"/>
      <feComposite operator="in" in="color-3"/>
      <feComposite operator="in" in2="SourceGraphic"/>
    </filter>
    <clipPath id="clip-path">
      <rect id="Retângulo_4396" data-name="Retângulo 4396" width="50.063" height="53.12" fill="#af39e6"/>
    </clipPath>
    <clipPath id="clip-path-2">
      <rect id="Retângulo_4397" data-name="Retângulo 4397" width="49.475" height="54.148" fill="#00c8db"/>
    </clipPath>
    <clipPath id="clip-path-3">
      <rect id="Retângulo_4398" data-name="Retângulo 4398" width="57.306" height="48.535" fill="#fff"/>
    </clipPath>
  </defs>
  <g id="Grupo_24180" data-name="Grupo 24180" transform="translate(-33 -327)" style="isolation: isolate">
    <g data-type="innerShadowGroup">
      <g transform="matrix(1, 0, 0, 1, 33, 327)" filter="url(#Caminho_9067)">
        <g id="Caminho_9067-2" data-name="Caminho 9067" fill="#fff">
          <path d="M110.571,0A110.571,110.571,0,1,1,0,110.571,110.571,110.571,0,0,1,110.571,0Z" stroke="none"/>
          <path d="M 110.5713653564453 1.5 C 103.1700439453125 1.5 95.77378082275391 2.245559692382812 88.58810424804688 3.715972900390625 C 81.58576965332031 5.148849487304688 74.69807434082031 7.286911010742188 68.1163330078125 10.07077026367188 C 61.65371704101562 12.80419921875 55.42042541503906 16.18756103515625 49.58956909179688 20.12680053710938 C 43.813720703125 24.02888488769531 38.38233947753906 28.51020812988281 33.44624328613281 33.44625854492188 C 28.51019287109375 38.38235473632812 24.02886962890625 43.81373596191406 20.12677001953125 49.58958435058594 C 16.18754577636719 55.42044067382812 12.80418395996094 61.65373229980469 10.07075500488281 68.11634826660156 C 7.286895751953125 74.6981201171875 5.148834228515625 81.5858154296875 3.715957641601562 88.58811950683594 C 2.24554443359375 95.77382659912109 1.499984741210938 103.1700897216797 1.499984741210938 110.5714111328125 C 1.499984741210938 117.9727325439453 2.24554443359375 125.3689956665039 3.715957641601562 132.5546722412109 C 5.148834228515625 139.5570068359375 7.286895751953125 146.4447021484375 10.07075500488281 153.0264587402344 C 12.80418395996094 159.4890594482422 16.18754577636719 165.7223510742188 20.12677001953125 171.5532073974609 C 24.02886962890625 177.3290557861328 28.51019287109375 182.7604675292969 33.44624328613281 187.696533203125 C 38.38233947753906 192.6326141357422 43.813720703125 197.1139373779297 49.58956909179688 201.0160217285156 C 55.42042541503906 204.9552612304688 61.65371704101562 208.338623046875 68.1163330078125 211.0720520019531 C 74.69807434082031 213.8559112548828 81.58576965332031 215.9939727783203 88.58810424804688 217.4268493652344 C 95.77378082275391 218.8972625732422 103.1700439453125 219.642822265625 110.5713653564453 219.642822265625 C 117.9726867675781 219.642822265625 125.3689498901367 218.8972625732422 132.5546264648438 217.4268493652344 C 139.5569458007812 215.9939727783203 146.4446563720703 213.8559112548828 153.0263977050781 211.0720520019531 C 159.489013671875 208.338623046875 165.7223052978516 204.9552612304688 171.5531616210938 201.0160217285156 C 177.3289794921875 197.1139373779297 182.7603912353516 192.6326141357422 187.6964569091797 187.696533203125 C 192.6325378417969 182.7604675292969 197.1138610839844 177.3290557861328 201.0159301757812 171.5532073974609 C 204.9551849365234 165.7223510742188 208.3385162353516 159.4890594482422 211.0719604492188 153.0264587402344 C 213.8558044433594 146.4447021484375 215.9938659667969 139.5570068359375 217.4267425537109 132.5546722412109 C 218.8971557617188 125.3689956665039 219.6427154541016 117.9727325439453 219.6427154541016 110.5714111328125 C 219.6427154541016 103.1700897216797 218.8971557617188 95.77382659912109 217.4267425537109 88.58811950683594 C 215.9938659667969 81.5858154296875 213.8558044433594 74.6981201171875 211.0719604492188 68.11634826660156 C 208.3385162353516 61.65373229980469 204.9551849365234 55.42044067382812 201.0159301757812 49.58958435058594 C 197.1138610839844 43.81373596191406 192.6325378417969 38.38235473632812 187.6964569091797 33.44625854492188 C 182.7603912353516 28.51020812988281 177.3289794921875 24.02888488769531 171.5531616210938 20.12680053710938 C 165.7223052978516 16.18756103515625 159.489013671875 12.80419921875 153.0263977050781 10.07077026367188 C 146.4446563720703 7.286911010742188 139.5569458007812 5.148849487304688 132.5546264648438 3.715972900390625 C 125.3689498901367 2.245559692382812 117.9726867675781 1.5 110.5713653564453 1.5 M 110.5713653564453 0 C 171.6382446289062 0 221.1427154541016 49.50450134277344 221.1427154541016 110.5714111328125 C 221.1427154541016 171.6382904052734 171.6382446289062 221.142822265625 110.5713653564453 221.142822265625 C 49.50448608398438 221.142822265625 -1.52587890625e-05 171.6382904052734 -1.52587890625e-05 110.5714111328125 C -1.52587890625e-05 49.50450134277344 49.50448608398438 0 110.5713653564453 0 Z" stroke="none"/>
        </g>
      </g>
      <g id="Caminho_9067-3" data-name="Caminho 9067" transform="translate(33 327)" fill="none">
        <path d="M110.571,0A110.571,110.571,0,1,1,0,110.571,110.571,110.571,0,0,1,110.571,0Z" stroke="none"/>
        <path d="M 110.5713653564453 1.5 C 103.1700439453125 1.5 95.77378082275391 2.245559692382812 88.58810424804688 3.715972900390625 C 81.58576965332031 5.148849487304688 74.69807434082031 7.286911010742188 68.1163330078125 10.07077026367188 C 61.65371704101562 12.80419921875 55.42042541503906 16.18756103515625 49.58956909179688 20.12680053710938 C 43.813720703125 24.02888488769531 38.38233947753906 28.51020812988281 33.44624328613281 33.44625854492188 C 28.51019287109375 38.38235473632812 24.02886962890625 43.81373596191406 20.12677001953125 49.58958435058594 C 16.18754577636719 55.42044067382812 12.80418395996094 61.65373229980469 10.07075500488281 68.11634826660156 C 7.286895751953125 74.6981201171875 5.148834228515625 81.5858154296875 3.715957641601562 88.58811950683594 C 2.24554443359375 95.77382659912109 1.499984741210938 103.1700897216797 1.499984741210938 110.5714111328125 C 1.499984741210938 117.9727325439453 2.24554443359375 125.3689956665039 3.715957641601562 132.5546722412109 C 5.148834228515625 139.5570068359375 7.286895751953125 146.4447021484375 10.07075500488281 153.0264587402344 C 12.80418395996094 159.4890594482422 16.18754577636719 165.7223510742188 20.12677001953125 171.5532073974609 C 24.02886962890625 177.3290557861328 28.51019287109375 182.7604675292969 33.44624328613281 187.696533203125 C 38.38233947753906 192.6326141357422 43.813720703125 197.1139373779297 49.58956909179688 201.0160217285156 C 55.42042541503906 204.9552612304688 61.65371704101562 208.338623046875 68.1163330078125 211.0720520019531 C 74.69807434082031 213.8559112548828 81.58576965332031 215.9939727783203 88.58810424804688 217.4268493652344 C 95.77378082275391 218.8972625732422 103.1700439453125 219.642822265625 110.5713653564453 219.642822265625 C 117.9726867675781 219.642822265625 125.3689498901367 218.8972625732422 132.5546264648438 217.4268493652344 C 139.5569458007812 215.9939727783203 146.4446563720703 213.8559112548828 153.0263977050781 211.0720520019531 C 159.489013671875 208.338623046875 165.7223052978516 204.9552612304688 171.5531616210938 201.0160217285156 C 177.3289794921875 197.1139373779297 182.7603912353516 192.6326141357422 187.6964569091797 187.696533203125 C 192.6325378417969 182.7604675292969 197.1138610839844 177.3290557861328 201.0159301757812 171.5532073974609 C 204.9551849365234 165.7223510742188 208.3385162353516 159.4890594482422 211.0719604492188 153.0264587402344 C 213.8558044433594 146.4447021484375 215.9938659667969 139.5570068359375 217.4267425537109 132.5546722412109 C 218.8971557617188 125.3689956665039 219.6427154541016 117.9727325439453 219.6427154541016 110.5714111328125 C 219.6427154541016 103.1700897216797 218.8971557617188 95.77382659912109 217.4267425537109 88.58811950683594 C 215.9938659667969 81.5858154296875 213.8558044433594 74.6981201171875 211.0719604492188 68.11634826660156 C 208.3385162353516 61.65373229980469 204.9551849365234 55.42044067382812 201.0159301757812 49.58958435058594 C 197.1138610839844 43.81373596191406 192.6325378417969 38.38235473632812 187.6964569091797 33.44625854492188 C 182.7603912353516 28.51020812988281 177.3289794921875 24.02888488769531 171.5531616210938 20.12680053710938 C 165.7223052978516 16.18756103515625 159.489013671875 12.80419921875 153.0263977050781 10.07077026367188 C 146.4446563720703 7.286911010742188 139.5569458007812 5.148849487304688 132.5546264648438 3.715972900390625 C 125.3689498901367 2.245559692382812 117.9726867675781 1.5 110.5713653564453 1.5 M 110.5713653564453 0 C 171.6382446289062 0 221.1427154541016 49.50450134277344 221.1427154541016 110.5714111328125 C 221.1427154541016 171.6382904052734 171.6382446289062 221.142822265625 110.5713653564453 221.142822265625 C 49.50448608398438 221.142822265625 -1.52587890625e-05 171.6382904052734 -1.52587890625e-05 110.5714111328125 C -1.52587890625e-05 49.50450134277344 49.50448608398438 0 110.5713653564453 0 Z" stroke="none" fill="#38eeff"/>
      </g>
    </g>
    <g data-type="innerShadowGroup">
      <g transform="matrix(1, 0, 0, 1, 33, 327)" filter="url(#Caminho_9068)">
        <g id="Caminho_9068-2" data-name="Caminho 9068" transform="translate(102.86)" fill="#fff">
          <path d="M110.571,0A110.571,110.571,0,1,1,0,110.571,110.571,110.571,0,0,1,110.571,0Z" stroke="none"/>
          <path d="M 110.5713653564453 1.5 C 103.1700439453125 1.5 95.77378082275391 2.245559692382812 88.58810424804688 3.715972900390625 C 81.58576965332031 5.148849487304688 74.69807434082031 7.286911010742188 68.1163330078125 10.07077026367188 C 61.65371704101562 12.80419921875 55.42042541503906 16.18756103515625 49.58956909179688 20.12680053710938 C 43.813720703125 24.02888488769531 38.38233947753906 28.51020812988281 33.44624328613281 33.44625854492188 C 28.51019287109375 38.38235473632812 24.02886962890625 43.81373596191406 20.12677001953125 49.58958435058594 C 16.18754577636719 55.42044067382812 12.80418395996094 61.65373229980469 10.07075500488281 68.11634826660156 C 7.286895751953125 74.6981201171875 5.148834228515625 81.5858154296875 3.715957641601562 88.58811950683594 C 2.24554443359375 95.77382659912109 1.499984741210938 103.1700897216797 1.499984741210938 110.5714111328125 C 1.499984741210938 117.9727325439453 2.24554443359375 125.3689956665039 3.715957641601562 132.5546722412109 C 5.148834228515625 139.5570068359375 7.286895751953125 146.4447021484375 10.07075500488281 153.0264587402344 C 12.80418395996094 159.4890594482422 16.18754577636719 165.7223510742188 20.12677001953125 171.5532073974609 C 24.02886962890625 177.3290557861328 28.51019287109375 182.7604675292969 33.44624328613281 187.696533203125 C 38.38233947753906 192.6326141357422 43.813720703125 197.1139373779297 49.58956909179688 201.0160217285156 C 55.42042541503906 204.9552612304688 61.65371704101562 208.338623046875 68.1163330078125 211.0720520019531 C 74.69807434082031 213.8559112548828 81.58576965332031 215.9939727783203 88.58810424804688 217.4268493652344 C 95.77378082275391 218.8972625732422 103.1700439453125 219.642822265625 110.5713653564453 219.642822265625 C 117.9726867675781 219.642822265625 125.3689498901367 218.8972625732422 132.5546264648438 217.4268493652344 C 139.5569458007812 215.9939727783203 146.4446563720703 213.8559112548828 153.0263977050781 211.0720520019531 C 159.489013671875 208.338623046875 165.7223052978516 204.9552612304688 171.5531616210938 201.0160217285156 C 177.3289794921875 197.1139373779297 182.7603912353516 192.6326141357422 187.6964569091797 187.696533203125 C 192.6325378417969 182.7604675292969 197.1138610839844 177.3290557861328 201.0159301757812 171.5532073974609 C 204.9551849365234 165.7223510742188 208.3385162353516 159.4890594482422 211.0719604492188 153.0264587402344 C 213.8558044433594 146.4447021484375 215.9938659667969 139.5570068359375 217.4267425537109 132.5546722412109 C 218.8971557617188 125.3689956665039 219.6427154541016 117.9727325439453 219.6427154541016 110.5714111328125 C 219.6427154541016 103.1700897216797 218.8971557617188 95.77382659912109 217.4267425537109 88.58811950683594 C 215.9938659667969 81.5858154296875 213.8558044433594 74.6981201171875 211.0719604492188 68.11634826660156 C 208.3385162353516 61.65373229980469 204.9551849365234 55.42044067382812 201.0159301757812 49.58958435058594 C 197.1138610839844 43.81373596191406 192.6325378417969 38.38235473632812 187.6964569091797 33.44625854492188 C 182.7603912353516 28.51020812988281 177.3289794921875 24.02888488769531 171.5531616210938 20.12680053710938 C 165.7223052978516 16.18756103515625 159.489013671875 12.80419921875 153.0263977050781 10.07077026367188 C 146.4446563720703 7.286911010742188 139.5569458007812 5.148849487304688 132.5546264648438 3.715972900390625 C 125.3689498901367 2.245559692382812 117.9726867675781 1.5 110.5713653564453 1.5 M 110.5713653564453 0 C 171.6382446289062 0 221.1427154541016 49.50450134277344 221.1427154541016 110.5714111328125 C 221.1427154541016 171.6382904052734 171.6382446289062 221.142822265625 110.5713653564453 221.142822265625 C 49.50448608398438 221.142822265625 -1.52587890625e-05 171.6382904052734 -1.52587890625e-05 110.5714111328125 C -1.52587890625e-05 49.50450134277344 49.50448608398438 0 110.5713653564453 0 Z" stroke="none"/>
        </g>
      </g>
      <g id="Caminho_9068-3" data-name="Caminho 9068" transform="translate(135.857 327)" fill="none">
        <path d="M110.571,0A110.571,110.571,0,1,1,0,110.571,110.571,110.571,0,0,1,110.571,0Z" stroke="none"/>
        <path d="M 110.5713653564453 1.5 C 103.1700439453125 1.5 95.77378082275391 2.245559692382812 88.58810424804688 3.715972900390625 C 81.58576965332031 5.148849487304688 74.69807434082031 7.286911010742188 68.1163330078125 10.07077026367188 C 61.65371704101562 12.80419921875 55.42042541503906 16.18756103515625 49.58956909179688 20.12680053710938 C 43.813720703125 24.02888488769531 38.38233947753906 28.51020812988281 33.44624328613281 33.44625854492188 C 28.51019287109375 38.38235473632812 24.02886962890625 43.81373596191406 20.12677001953125 49.58958435058594 C 16.18754577636719 55.42044067382812 12.80418395996094 61.65373229980469 10.07075500488281 68.11634826660156 C 7.286895751953125 74.6981201171875 5.148834228515625 81.5858154296875 3.715957641601562 88.58811950683594 C 2.24554443359375 95.77382659912109 1.499984741210938 103.1700897216797 1.499984741210938 110.5714111328125 C 1.499984741210938 117.9727325439453 2.24554443359375 125.3689956665039 3.715957641601562 132.5546722412109 C 5.148834228515625 139.5570068359375 7.286895751953125 146.4447021484375 10.07075500488281 153.0264587402344 C 12.80418395996094 159.4890594482422 16.18754577636719 165.7223510742188 20.12677001953125 171.5532073974609 C 24.02886962890625 177.3290557861328 28.51019287109375 182.7604675292969 33.44624328613281 187.696533203125 C 38.38233947753906 192.6326141357422 43.813720703125 197.1139373779297 49.58956909179688 201.0160217285156 C 55.42042541503906 204.9552612304688 61.65371704101562 208.338623046875 68.1163330078125 211.0720520019531 C 74.69807434082031 213.8559112548828 81.58576965332031 215.9939727783203 88.58810424804688 217.4268493652344 C 95.77378082275391 218.8972625732422 103.1700439453125 219.642822265625 110.5713653564453 219.642822265625 C 117.9726867675781 219.642822265625 125.3689498901367 218.8972625732422 132.5546264648438 217.4268493652344 C 139.5569458007812 215.9939727783203 146.4446563720703 213.8559112548828 153.0263977050781 211.0720520019531 C 159.489013671875 208.338623046875 165.7223052978516 204.9552612304688 171.5531616210938 201.0160217285156 C 177.3289794921875 197.1139373779297 182.7603912353516 192.6326141357422 187.6964569091797 187.696533203125 C 192.6325378417969 182.7604675292969 197.1138610839844 177.3290557861328 201.0159301757812 171.5532073974609 C 204.9551849365234 165.7223510742188 208.3385162353516 159.4890594482422 211.0719604492188 153.0264587402344 C 213.8558044433594 146.4447021484375 215.9938659667969 139.5570068359375 217.4267425537109 132.5546722412109 C 218.8971557617188 125.3689956665039 219.6427154541016 117.9727325439453 219.6427154541016 110.5714111328125 C 219.6427154541016 103.1700897216797 218.8971557617188 95.77382659912109 217.4267425537109 88.58811950683594 C 215.9938659667969 81.5858154296875 213.8558044433594 74.6981201171875 211.0719604492188 68.11634826660156 C 208.3385162353516 61.65373229980469 204.9551849365234 55.42044067382812 201.0159301757812 49.58958435058594 C 197.1138610839844 43.81373596191406 192.6325378417969 38.38235473632812 187.6964569091797 33.44625854492188 C 182.7603912353516 28.51020812988281 177.3289794921875 24.02888488769531 171.5531616210938 20.12680053710938 C 165.7223052978516 16.18756103515625 159.489013671875 12.80419921875 153.0263977050781 10.07077026367188 C 146.4446563720703 7.286911010742188 139.5569458007812 5.148849487304688 132.5546264648438 3.715972900390625 C 125.3689498901367 2.245559692382812 117.9726867675781 1.5 110.5713653564453 1.5 M 110.5713653564453 0 C 171.6382446289062 0 221.1427154541016 49.50450134277344 221.1427154541016 110.5714111328125 C 221.1427154541016 171.6382904052734 171.6382446289062 221.142822265625 110.5713653564453 221.142822265625 C 49.50448608398438 221.142822265625 -1.52587890625e-05 171.6382904052734 -1.52587890625e-05 110.5714111328125 C -1.52587890625e-05 49.50450134277344 49.50448608398438 0 110.5713653564453 0 Z" stroke="none" fill="#af39e6"/>
      </g>
    </g>
    <path id="Caminho_9566" data-name="Caminho 9566" d="M-34.755,0V-5.43h2V-6.7h-5.43v1.27h2V0Zm8.32,0V-1.27h-3.49V-2.75h2.92V-4.02h-2.92V-5.43h3.49V-6.7h-4.92V0Zm4.68.08a3.089,3.089,0,0,0,3-1.91l-1.22-.98a1.788,1.788,0,0,1-1.79,1.52c-1.17,0-1.78-.85-1.78-2.07s.61-2.07,1.78-2.07a1.788,1.788,0,0,1,1.79,1.52l1.22-.98a3.089,3.089,0,0,0-3-1.91,3.214,3.214,0,0,0-3.33,3.44A3.214,3.214,0,0,0-21.755.08Zm6.09-.08V-2.86l-.11-1.66.6.99L-12.735,0h1.36V-6.7h-1.43v2.97l.09,1.58-.61-1.05-2.38-3.5H-17.1V0Zm9.52.09a3.305,3.305,0,0,0,3.37-3.45A3.3,3.3,0,0,0-6.145-6.8a3.3,3.3,0,0,0-3.37,3.44A3.305,3.305,0,0,0-6.145.09Zm0-1.39a1.817,1.817,0,0,1-1.86-2.06,1.822,1.822,0,0,1,1.86-2.06,1.817,1.817,0,0,1,1.86,2.06A1.812,1.812,0,0,1-6.145-1.3ZM3.865,0V-1.27H.515V-6.7H-.915V0Zm4.31.09a3.305,3.305,0,0,0,3.37-3.45A3.3,3.3,0,0,0,8.175-6.8,3.3,3.3,0,0,0,4.8-3.36,3.305,3.305,0,0,0,8.175.09Zm0-1.39a1.817,1.817,0,0,1-1.86-2.06,1.822,1.822,0,0,1,1.86-2.06,1.817,1.817,0,0,1,1.86,2.06A1.812,1.812,0,0,1,8.175-1.3ZM15.995.08c1.43,0,2.25-.94,2.32-2.52L18.655,0h.95V-3.59h-3.21v1.15h1.84a1.633,1.633,0,0,1-1.68,1.17c-1.14,0-1.79-.8-1.79-2.09,0-1.23.59-2.07,1.83-2.07a1.688,1.688,0,0,1,1.75,1.32l1.21-.92a3.017,3.017,0,0,0-2.96-1.77,3.183,3.183,0,0,0-3.37,3.44C13.225-1.09,14.385.08,15.995.08ZM23.115,0V-6.7h-1.43V0Zm2.85,0,.54-1.49h2.7L29.735,0H31.3l-2.51-6.7h-1.84L24.445,0Zm1.49-4.14.4-1.42.4,1.42.51,1.44h-1.83ZM35.475.1c1.45,0,2.53-.69,2.53-1.97,0-1.2-.85-1.71-2.1-2l-.76-.18c-.7-.16-1.13-.34-1.13-.83,0-.39.37-.61.88-.61a2.356,2.356,0,0,1,1.99,1.08l.97-1.09a3.336,3.336,0,0,0-2.83-1.28c-1.36,0-2.49.69-2.49,2,0,1.27.98,1.73,2.02,1.94l.65.14c.89.18,1.33.35,1.33.87,0,.46-.42.64-1,.64a2.522,2.522,0,0,1-2.22-1.21l-.94,1.1A3.513,3.513,0,0,0,35.475.1ZM-31.32,11V9.06h1.35c1.56,0,2.72-.71,2.72-2.36,0-1.69-1.18-2.4-2.72-2.4h-2.78V11Zm1.3-5.43c.74,0,1.27.29,1.27,1.13,0,.79-.53,1.09-1.27,1.09h-1.3V5.57ZM-24.1,11V8.49h.52a1.125,1.125,0,0,1,1.15.61L-21.3,11h1.65l-1.06-1.74a1.791,1.791,0,0,0-1.1-.94,1.893,1.893,0,0,0,1.9-1.93c0-1.42-1.06-2.09-2.51-2.09h-3.11V11Zm1.63-5.43c.62,0,1.06.24,1.06.89,0,.63-.44.88-1.06.88H-24.1V5.57Zm7.46,5.52a3.305,3.305,0,0,0,3.37-3.45A3.3,3.3,0,0,0-15.01,4.2a3.3,3.3,0,0,0-3.37,3.44A3.305,3.305,0,0,0-15.01,11.09Zm0-1.39a1.817,1.817,0,0,1-1.86-2.06,1.822,1.822,0,0,1,1.86-2.06,1.817,1.817,0,0,1,1.86,2.06A1.812,1.812,0,0,1-15.01,9.7ZM-8.35,11V8.5H-5.5V7.23H-8.35V5.57h3.42V4.3H-9.78V11Zm7.77.1c1.91,0,2.83-.94,2.83-3.04V4.3H.82V8.08C.82,9.24.41,9.72-.57,9.72c-.96,0-1.4-.48-1.4-1.64V4.3H-3.4V8.06C-3.4,10.16-2.45,11.1-.58,11.1ZM5.89,11V8.14L5.78,6.48l.6.99L8.82,11h1.36V4.3H8.75V7.27l.09,1.58L8.23,7.8,5.85,4.3H4.46V11Zm9.27,0a3.048,3.048,0,0,0,3.21-3.35A3.058,3.058,0,0,0,15.14,4.3H12.45V11Zm-.14-5.43c1.24,0,1.85.71,1.85,2.08s-.6,2.08-1.83,2.08H13.88V5.57ZM20.93,11l.54-1.49h2.7L24.7,11h1.57L23.76,4.3H21.92L19.41,11Zm1.49-4.14.4-1.42.4,1.42.51,1.44H21.9Zm8.02,4.24c1.45,0,2.53-.69,2.53-1.97,0-1.2-.85-1.71-2.1-2l-.76-.18c-.7-.16-1.13-.34-1.13-.83,0-.39.37-.61.88-.61a2.356,2.356,0,0,1,1.99,1.08l.97-1.09a3.336,3.336,0,0,0-2.83-1.28c-1.36,0-2.49.69-2.49,2,0,1.27.98,1.73,2.02,1.94l.65.14c.89.18,1.33.35,1.33.87,0,.46-.42.64-1,.64A2.522,2.522,0,0,1,28.28,8.6l-.94,1.1A3.513,3.513,0,0,0,30.44,11.1Z" transform="translate(295.952 474.144)" fill="#af39e6"/>
    <path id="Caminho_9567" data-name="Caminho 9567" d="M-39.37,0V-2.86l-.11-1.66.6.99L-36.44,0h1.36V-6.7h-1.43v2.97l.09,1.58-.61-1.05-2.38-3.5H-40.8V0Zm11.48,0V-1.27h-3.49V-2.75h2.92V-4.02h-2.92V-5.43h3.49V-6.7h-4.92V0Zm4.68.08a3.089,3.089,0,0,0,3-1.91l-1.22-.98a1.788,1.788,0,0,1-1.79,1.52c-1.17,0-1.78-.85-1.78-2.07s.61-2.07,1.78-2.07a1.788,1.788,0,0,1,1.79,1.52l1.22-.98a3.089,3.089,0,0,0-3-1.91,3.214,3.214,0,0,0-3.33,3.44A3.214,3.214,0,0,0-23.21.08ZM-13.63,0V-1.27h-3.49V-2.75h2.92V-4.02h-2.92V-5.43h3.49V-6.7h-4.92V0ZM-9.1.1c1.45,0,2.53-.69,2.53-1.97,0-1.2-.85-1.71-2.1-2l-.76-.18c-.7-.16-1.13-.34-1.13-.83,0-.39.37-.61.88-.61A2.356,2.356,0,0,1-7.69-4.41l.97-1.09A3.336,3.336,0,0,0-9.55-6.78c-1.36,0-2.49.69-2.49,2,0,1.27.98,1.73,2.02,1.94l.65.14c.89.18,1.33.35,1.33.87,0,.46-.42.64-1,.64A2.522,2.522,0,0,1-11.26-2.4l-.94,1.1A3.513,3.513,0,0,0-9.1.1Zm7.16,0C-.49.1.59-.59.59-1.87c0-1.2-.85-1.71-2.1-2l-.76-.18c-.7-.16-1.13-.34-1.13-.83,0-.39.37-.61.88-.61A2.356,2.356,0,0,1-.53-4.41L.44-5.5A3.336,3.336,0,0,0-2.39-6.78c-1.36,0-2.49.69-2.49,2,0,1.27.98,1.73,2.02,1.94l.65.14c.89.18,1.33.35,1.33.87,0,.46-.42.64-1,.64A2.522,2.522,0,0,1-4.1-2.4l-.94,1.1A3.513,3.513,0,0,0-1.94.1ZM3.83,0V-6.7H2.4V0ZM8.82,0a3.048,3.048,0,0,0,3.21-3.35A3.058,3.058,0,0,0,8.8-6.7H6.11V0ZM8.68-5.43c1.24,0,1.85.71,1.85,2.08S9.93-1.27,8.7-1.27H7.54V-5.43ZM14.59,0l.54-1.49h2.7L18.36,0h1.57L17.42-6.7H15.58L13.07,0Zm1.49-4.14.4-1.42.4,1.42.51,1.44H15.56ZM23.96,0a3.048,3.048,0,0,0,3.21-3.35A3.058,3.058,0,0,0,23.94-6.7H21.25V0Zm-.14-5.43c1.24,0,1.85.71,1.85,2.08s-.6,2.08-1.83,2.08H22.68V-5.43ZM33.96,0V-1.27H30.47V-2.75h2.92V-4.02H30.47V-5.43h3.49V-6.7H29.04V0Zm4.53.1c1.45,0,2.53-.69,2.53-1.97,0-1.2-.85-1.71-2.1-2l-.76-.18c-.7-.16-1.13-.34-1.13-.83,0-.39.37-.61.88-.61A2.356,2.356,0,0,1,39.9-4.41l.97-1.09a3.336,3.336,0,0,0-2.83-1.28c-1.36,0-2.49.69-2.49,2,0,1.27.98,1.73,2.02,1.94l.65.14c.89.18,1.33.35,1.33.87,0,.46-.42.64-1,.64A2.522,2.522,0,0,1,36.33-2.4l-.94,1.1A3.513,3.513,0,0,0,38.49.1ZM-35.505,11A3.048,3.048,0,0,0-32.3,7.65a3.058,3.058,0,0,0-3.23-3.35h-2.69V11Zm-.14-5.43c1.24,0,1.85.71,1.85,2.08s-.6,2.08-1.83,2.08h-1.16V5.57Zm8.41,5.52a3.305,3.305,0,0,0,3.37-3.45,3.3,3.3,0,0,0-3.37-3.44,3.3,3.3,0,0,0-3.37,3.44A3.305,3.305,0,0,0-27.235,11.09Zm0-1.39A1.817,1.817,0,0,1-29.1,7.64a1.822,1.822,0,0,1,1.86-2.06,1.817,1.817,0,0,1,1.86,2.06A1.812,1.812,0,0,1-27.235,9.7Zm7.99,1.4c1.45,0,2.53-.69,2.53-1.97,0-1.2-.85-1.71-2.1-2l-.76-.18c-.7-.16-1.13-.34-1.13-.83,0-.39.37-.61.88-.61a2.356,2.356,0,0,1,1.99,1.08l.97-1.09A3.336,3.336,0,0,0-19.7,4.22c-1.36,0-2.49.69-2.49,2,0,1.27.98,1.73,2.02,1.94l.65.14c.89.18,1.33.35,1.33.87,0,.46-.42.64-1,.64a2.522,2.522,0,0,1-2.22-1.21l-.94,1.1A3.513,3.513,0,0,0-19.245,11.1Zm10.44-.02a3.089,3.089,0,0,0,3-1.91l-1.22-.98a1.788,1.788,0,0,1-1.79,1.52c-1.17,0-1.78-.85-1.78-2.07s.61-2.07,1.78-2.07a1.788,1.788,0,0,1,1.79,1.52l1.22-.98a3.089,3.089,0,0,0-3-1.91,3.214,3.214,0,0,0-3.33,3.44A3.214,3.214,0,0,0-8.805,11.08ZM.635,11V9.73h-3.35V4.3h-1.43V11Zm2.92,0V4.3H2.125V11Zm7.2,0V9.73H7.265V8.25h2.92V6.98H7.265V5.57h3.49V4.3H5.835V11Zm3.18,0V8.14l-.11-1.66.6.99L16.865,11h1.36V4.3H16.8V7.27l.09,1.58-.61-1.05L13.9,4.3h-1.39V11Zm9.12,0V5.57h2V4.3h-5.43V5.57h2V11Zm8.32,0V9.73h-3.49V8.25H30.8V6.98h-2.92V5.57h3.49V4.3h-4.92V11Zm4.53.1c1.45,0,2.53-.69,2.53-1.97,0-1.2-.85-1.71-2.1-2l-.76-.18c-.7-.16-1.13-.34-1.13-.83,0-.39.37-.61.88-.61a2.356,2.356,0,0,1,1.99,1.08l.97-1.09a3.336,3.336,0,0,0-2.83-1.28c-1.36,0-2.49.69-2.49,2,0,1.27.98,1.73,2.02,1.94l.65.14c.89.18,1.33.35,1.33.87,0,.46-.42.64-1,.64a2.522,2.522,0,0,1-2.22-1.21l-.94,1.1A3.513,3.513,0,0,0,35.9,11.1Z" transform="translate(90.78 475.148)" fill="#38eeff"/>
    <g data-type="innerShadowGroup">
      <g id="Interseção_7-2" data-name="Interseção 7" transform="translate(135.857 339.663)" fill="#0b1617">
        <path d="M 59.14277648925781 194.9690246582031 C 41.86518096923828 185.7938842773438 27.30600357055664 172.1406555175781 17.02372932434082 155.4648284912109 C 11.80002880096436 146.9930267333984 7.760404109954834 137.8620300292969 5.017054080963135 128.3255004882812 C 2.185653924942017 118.4828720092773 0.7500039935112 108.2492218017578 0.7500039935112 97.90885162353516 C 0.7500039935112 87.56849670410156 2.185653924942017 77.33487701416016 5.017054080963135 67.49222564697266 C 7.760404109954834 57.9556999206543 11.80002880096436 48.82467269897461 17.02372932434082 40.35284805297852 C 27.30600357055664 23.6768913269043 41.86520385742188 10.02358436584473 59.14277648925781 0.8483735322952271 C 76.42028045654297 10.02358436584473 90.97943115234375 23.6768913269043 101.2617034912109 40.35284805297852 C 106.4853820800781 48.82467269897461 110.5250015258789 57.9556999206543 113.2683563232422 67.49222564697266 C 116.0997543334961 77.33487701416016 117.535400390625 87.56852722167969 117.535400390625 97.90885162353516 C 117.535400390625 108.2492218017578 116.0997543334961 118.4828491210938 113.2683563232422 128.3255004882812 C 110.5250015258789 137.8620300292969 106.4853820800781 146.9930267333984 101.2617034912109 155.4648284912109 C 90.97945404052734 172.1406555175781 76.42030334472656 185.7938690185547 59.14277648925781 194.9690246582031 Z" stroke="none"/>
        <path d="M 59.14278030395508 194.1190185546875 C 76.14894866943359 185.0083160400391 90.48065185546875 171.5206451416016 100.6233062744141 155.0711975097656 C 105.8112030029297 146.6574401855469 109.8230972290039 137.5891265869141 112.5475997924805 128.1181793212891 C 115.3595962524414 118.3429336547852 116.7854156494141 108.179069519043 116.7854156494141 97.90885925292969 C 116.7854156494141 87.638671875 115.3595962524414 77.47480773925781 112.5475997924805 67.69956970214844 C 109.8230972290039 58.22859191894531 105.8111801147461 49.16025161743164 100.6233062744141 40.74646377563477 C 90.48062133789062 24.29690742492676 76.14891815185547 10.80916690826416 59.14278030395508 1.69840931892395 C 42.13656616210938 10.80916690826416 27.80483627319336 24.2968807220459 17.66212463378906 40.74646377563477 C 12.47423076629639 49.16025161743164 8.462308883666992 58.22859191894531 5.737809181213379 67.69956970214844 C 2.925809383392334 77.47480773925781 1.499993443489075 87.638671875 1.499993443489075 97.90885925292969 C 1.499993443489075 108.179069519043 2.925809383392334 118.3429336547852 5.737809181213379 128.1181793212891 C 8.462308883666992 137.5891418457031 12.47423076629639 146.6574401855469 17.66212463378906 155.0711975097656 C 27.8048095703125 171.5206451416016 42.13653945922852 185.0083160400391 59.14278030395508 194.1190185546875 M 59.14278411865234 195.8174133300781 C 23.97994041442871 177.3070373535156 -6.516305802506395e-06 140.4067535400391 -6.516305802506395e-06 97.90885925292969 C -6.516305802506395e-06 55.41109466552734 23.97994041442871 18.51048851013184 59.14278411865234 1.482511834183242e-05 C 94.30546569824219 18.51048851013184 118.2854156494141 55.41109466552734 118.2854156494141 97.90885925292969 C 118.2854156494141 140.4067535400391 94.30546569824219 177.3070373535156 59.14278411865234 195.8174133300781 Z" stroke="none"/>
      </g>
      <g transform="matrix(1, 0, 0, 1, 33, 327)" filter="url(#Interseção_7)">
        <g id="Interseção_7-3" data-name="Interseção 7" transform="translate(102.86 12.66)" fill="#fff">
          <path d="M 59.14277648925781 194.9690246582031 C 41.86518096923828 185.7938842773438 27.30600357055664 172.1406555175781 17.02372932434082 155.4648284912109 C 11.80002880096436 146.9930267333984 7.760404109954834 137.8620300292969 5.017054080963135 128.3255004882812 C 2.185653924942017 118.4828720092773 0.7500039935112 108.2492218017578 0.7500039935112 97.90885162353516 C 0.7500039935112 87.56849670410156 2.185653924942017 77.33487701416016 5.017054080963135 67.49222564697266 C 7.760404109954834 57.9556999206543 11.80002880096436 48.82467269897461 17.02372932434082 40.35284805297852 C 27.30600357055664 23.6768913269043 41.86520385742188 10.02358436584473 59.14277648925781 0.8483735322952271 C 76.42028045654297 10.02358436584473 90.97943115234375 23.6768913269043 101.2617034912109 40.35284805297852 C 106.4853820800781 48.82467269897461 110.5250015258789 57.9556999206543 113.2683563232422 67.49222564697266 C 116.0997543334961 77.33487701416016 117.535400390625 87.56852722167969 117.535400390625 97.90885162353516 C 117.535400390625 108.2492218017578 116.0997543334961 118.4828491210938 113.2683563232422 128.3255004882812 C 110.5250015258789 137.8620300292969 106.4853820800781 146.9930267333984 101.2617034912109 155.4648284912109 C 90.97945404052734 172.1406555175781 76.42030334472656 185.7938690185547 59.14277648925781 194.9690246582031 Z" stroke="none"/>
          <path d="M 59.14278030395508 194.1190185546875 C 76.14894866943359 185.0083160400391 90.48065185546875 171.5206451416016 100.6233062744141 155.0711975097656 C 105.8112030029297 146.6574401855469 109.8230972290039 137.5891265869141 112.5475997924805 128.1181793212891 C 115.3595962524414 118.3429336547852 116.7854156494141 108.179069519043 116.7854156494141 97.90885925292969 C 116.7854156494141 87.638671875 115.3595962524414 77.47480773925781 112.5475997924805 67.69956970214844 C 109.8230972290039 58.22859191894531 105.8111801147461 49.16025161743164 100.6233062744141 40.74646377563477 C 90.48062133789062 24.29690742492676 76.14891815185547 10.80916690826416 59.14278030395508 1.69840931892395 C 42.13656616210938 10.80916690826416 27.80483627319336 24.2968807220459 17.66212463378906 40.74646377563477 C 12.47423076629639 49.16025161743164 8.462308883666992 58.22859191894531 5.737809181213379 67.69956970214844 C 2.925809383392334 77.47480773925781 1.499993443489075 87.638671875 1.499993443489075 97.90885925292969 C 1.499993443489075 108.179069519043 2.925809383392334 118.3429336547852 5.737809181213379 128.1181793212891 C 8.462308883666992 137.5891418457031 12.47423076629639 146.6574401855469 17.66212463378906 155.0711975097656 C 27.8048095703125 171.5206451416016 42.13653945922852 185.0083160400391 59.14278030395508 194.1190185546875 M 59.14278411865234 195.8174133300781 C 23.97994041442871 177.3070373535156 -6.516305802506395e-06 140.4067535400391 -6.516305802506395e-06 97.90885925292969 C -6.516305802506395e-06 55.41109466552734 23.97994041442871 18.51048851013184 59.14278411865234 1.482511834183242e-05 C 94.30546569824219 18.51048851013184 118.2854156494141 55.41109466552734 118.2854156494141 97.90885925292969 C 118.2854156494141 140.4067535400391 94.30546569824219 177.3070373535156 59.14278411865234 195.8174133300781 Z" stroke="none"/>
        </g>
      </g>
      <g id="Interseção_7-4" data-name="Interseção 7" transform="translate(135.857 339.663)" fill="none">
        <path d="M 59.14277648925781 194.9690246582031 C 41.86518096923828 185.7938842773438 27.30600357055664 172.1406555175781 17.02372932434082 155.4648284912109 C 11.80002880096436 146.9930267333984 7.760404109954834 137.8620300292969 5.017054080963135 128.3255004882812 C 2.185653924942017 118.4828720092773 0.7500039935112 108.2492218017578 0.7500039935112 97.90885162353516 C 0.7500039935112 87.56849670410156 2.185653924942017 77.33487701416016 5.017054080963135 67.49222564697266 C 7.760404109954834 57.9556999206543 11.80002880096436 48.82467269897461 17.02372932434082 40.35284805297852 C 27.30600357055664 23.6768913269043 41.86520385742188 10.02358436584473 59.14277648925781 0.8483735322952271 C 76.42028045654297 10.02358436584473 90.97943115234375 23.6768913269043 101.2617034912109 40.35284805297852 C 106.4853820800781 48.82467269897461 110.5250015258789 57.9556999206543 113.2683563232422 67.49222564697266 C 116.0997543334961 77.33487701416016 117.535400390625 87.56852722167969 117.535400390625 97.90885162353516 C 117.535400390625 108.2492218017578 116.0997543334961 118.4828491210938 113.2683563232422 128.3255004882812 C 110.5250015258789 137.8620300292969 106.4853820800781 146.9930267333984 101.2617034912109 155.4648284912109 C 90.97945404052734 172.1406555175781 76.42030334472656 185.7938690185547 59.14277648925781 194.9690246582031 Z" stroke="none"/>
        <path d="M 59.14278030395508 194.1190185546875 C 76.14894866943359 185.0083160400391 90.48065185546875 171.5206451416016 100.6233062744141 155.0711975097656 C 105.8112030029297 146.6574401855469 109.8230972290039 137.5891265869141 112.5475997924805 128.1181793212891 C 115.3595962524414 118.3429336547852 116.7854156494141 108.179069519043 116.7854156494141 97.90885925292969 C 116.7854156494141 87.638671875 115.3595962524414 77.47480773925781 112.5475997924805 67.69956970214844 C 109.8230972290039 58.22859191894531 105.8111801147461 49.16025161743164 100.6233062744141 40.74646377563477 C 90.48062133789062 24.29690742492676 76.14891815185547 10.80916690826416 59.14278030395508 1.69840931892395 C 42.13656616210938 10.80916690826416 27.80483627319336 24.2968807220459 17.66212463378906 40.74646377563477 C 12.47423076629639 49.16025161743164 8.462308883666992 58.22859191894531 5.737809181213379 67.69956970214844 C 2.925809383392334 77.47480773925781 1.499993443489075 87.638671875 1.499993443489075 97.90885925292969 C 1.499993443489075 108.179069519043 2.925809383392334 118.3429336547852 5.737809181213379 128.1181793212891 C 8.462308883666992 137.5891418457031 12.47423076629639 146.6574401855469 17.66212463378906 155.0711975097656 C 27.8048095703125 171.5206451416016 42.13653945922852 185.0083160400391 59.14278030395508 194.1190185546875 M 59.14278411865234 195.8174133300781 C 23.97994041442871 177.3070373535156 -6.516305802506395e-06 140.4067535400391 -6.516305802506395e-06 97.90885925292969 C -6.516305802506395e-06 55.41109466552734 23.97994041442871 18.51048851013184 59.14278411865234 1.482511834183242e-05 C 94.30546569824219 18.51048851013184 118.2854156494141 55.41109466552734 118.2854156494141 97.90885925292969 C 118.2854156494141 140.4067535400391 94.30546569824219 177.3070373535156 59.14278411865234 195.8174133300781 Z" stroke="none" fill="#ff0070"/>
      </g>
    </g>
    <path id="Caminho_9568" data-name="Caminho 9568" d="M-20.47.09A3.305,3.305,0,0,0-17.1-3.36,3.3,3.3,0,0,0-20.47-6.8a3.3,3.3,0,0,0-3.37,3.44A3.305,3.305,0,0,0-20.47.09Zm0-1.39a1.817,1.817,0,0,1-1.86-2.06,1.822,1.822,0,0,1,1.86-2.06,1.817,1.817,0,0,1,1.86,2.06A1.812,1.812,0,0,1-20.47-1.3ZM-13.81,0V-2.5h2.85V-3.77h-2.85V-5.43h3.42V-6.7h-4.85V0Zm9.94,0V-1.27H-7.36V-2.75h2.92V-4.02H-7.36V-5.43h3.49V-6.7H-8.79V0ZM-.69,0V-2.51h.52A1.125,1.125,0,0,1,.98-1.9L2.11,0H3.76L2.7-1.74a1.791,1.791,0,0,0-1.1-.94A1.893,1.893,0,0,0,3.5-4.61C3.5-6.03,2.44-6.7.99-6.7H-2.12V0ZM.94-5.43c.62,0,1.06.24,1.06.89,0,.63-.44.88-1.06.88H-.69V-5.43ZM8.09,0V-5.43h2V-6.7H4.66v1.27h2V0Zm3.74,0,.54-1.49h2.7L15.6,0h1.57L14.66-6.7H12.82L10.31,0Zm1.49-4.14.4-1.42.4,1.42.51,1.44H12.8ZM21.34.1c1.45,0,2.53-.69,2.53-1.97,0-1.2-.85-1.71-2.1-2l-.76-.18c-.7-.16-1.13-.34-1.13-.83,0-.39.37-.61.88-.61a2.356,2.356,0,0,1,1.99,1.08l.97-1.09a3.336,3.336,0,0,0-2.83-1.28c-1.36,0-2.49.69-2.49,2,0,1.27.98,1.73,2.02,1.94l.65.14c.89.18,1.33.35,1.33.87,0,.46-.42.64-1,.64A2.522,2.522,0,0,1,19.18-2.4l-.94,1.1A3.513,3.513,0,0,0,21.34.1ZM-19.69,11a3.048,3.048,0,0,0,3.21-3.35A3.058,3.058,0,0,0-19.71,4.3H-22.4V11Zm-.14-5.43c1.24,0,1.85.71,1.85,2.08s-.6,2.08-1.83,2.08h-1.16V5.57ZM-13.18,11V4.3h-1.43V11Zm4.64.08c1.43,0,2.25-.94,2.32-2.52L-5.88,11h.95V7.41H-8.14V8.56H-6.3A1.633,1.633,0,0,1-7.98,9.73c-1.14,0-1.79-.8-1.79-2.09,0-1.23.59-2.07,1.83-2.07A1.688,1.688,0,0,1-6.19,6.89l1.21-.92A3.017,3.017,0,0,0-7.94,4.2a3.183,3.183,0,0,0-3.37,3.44C-11.31,9.91-10.15,11.08-8.54,11.08ZM-1.42,11V4.3H-2.85V11Zm4.84,0V5.57h2V4.3H-.01V5.57h2V11Zm3.74,0L7.7,9.51h2.7L10.93,11H12.5L9.99,4.3H8.15L5.64,11ZM8.65,6.86l.4-1.42.4,1.42L9.96,8.3H8.13ZM15.25,11V4.3H13.82V11Zm4.84.1c1.45,0,2.53-.69,2.53-1.97,0-1.2-.85-1.71-2.1-2l-.76-.18c-.7-.16-1.13-.34-1.13-.83,0-.39.37-.61.88-.61A2.356,2.356,0,0,1,21.5,6.59l.97-1.09a3.336,3.336,0,0,0-2.83-1.28c-1.36,0-2.49.69-2.49,2,0,1.27.98,1.73,2.02,1.94l.65.14c.89.18,1.33.35,1.33.87,0,.46-.42.64-1,.64A2.522,2.522,0,0,1,17.93,8.6l-.94,1.1A3.513,3.513,0,0,0,20.09,11.1Z" transform="translate(194.9 461.623)" fill="#fff"/>
    <g id="Grupo_8174" data-name="Grupo 8174" transform="translate(271.025 406.58)" style="isolation: isolate">
      <g id="Grupo_8173" data-name="Grupo 8173" transform="translate(0 0)" clip-path="url(#clip-path)">
        <path id="Caminho_9121" data-name="Caminho 9121" d="M48.11,19.022h0c-.041,0-.08.011-.12.015-1.819-3.469-3.8-6.911-5.334-9.53a2.4,2.4,0,0,0,.471-1.464A2.491,2.491,0,0,0,40.594,5.65h0a2.483,2.483,0,0,0-.812.163,77.692,77.692,0,0,0-12.4-4.238A1.931,1.931,0,0,0,25.46,0a1.908,1.908,0,0,0-1.874,1.83c-2.438.646-5.2,1.413-8.037,2.208l-1.207.336q-1.037.289-1.934.538a2.574,2.574,0,0,0-1.494-.477h0a2.48,2.48,0,0,0-1.742.751,2.4,2.4,0,0,0-.231,3.1,30.724,30.724,0,0,0-5.972,7.67,2.045,2.045,0,0,0-.3-.029,1.885,1.885,0,0,0-.378,3.731,52.473,52.473,0,0,0-.216,6.232C2.085,27.429,2.09,28.9,2,30.311a2.469,2.469,0,0,0-1.31.7A2.413,2.413,0,0,0,0,32.752a2.477,2.477,0,0,0,2.453,2.394,47.243,47.243,0,0,1,2.471,6.518l.116.354a1.967,1.967,0,0,0-.2.173A1.862,1.862,0,0,0,4.3,43.538a1.912,1.912,0,0,0,1.916,1.851H6.26a1.913,1.913,0,0,0,1.165-.426c3.167,1.006,6.6,2.274,9.933,3.505l.629.233c.815.3,1.636.6,2.453.9l.3.287.289.272a2.4,2.4,0,0,0-.061.563,2.481,2.481,0,0,0,2.484,2.4h.05a2.467,2.467,0,0,0,2.43-2.494c0-.064-.016-.125-.023-.187A30.506,30.506,0,0,0,30.5,49.69a32.456,32.456,0,0,1,4.073-.7,1.915,1.915,0,0,0,1.9,1.726h.041A1.909,1.909,0,0,0,38.4,48.788a1.869,1.869,0,0,0-.886-1.543c.355-.61.724-1.267,1.109-1.952l.122-.218a57,57,0,0,1,4.032-6.518c.061,0,.121.019.184.019h.051a2.466,2.466,0,0,0,2.43-2.5,2.4,2.4,0,0,0-.992-1.88,56,56,0,0,0,4.431-11.546,1.9,1.9,0,0,0,.651-.435,1.86,1.86,0,0,0,.534-1.346,1.919,1.919,0,0,0-1.954-1.852M21.3,48.7c-.791-.744-1.589-1.5-2.4-2.27l-.692-.655c1.055.165,2.129.31,3.164.444.319.833.578,1.613.805,2.374a2.516,2.516,0,0,0-.386.285c-.164-.06-.327-.118-.492-.178m-3.533-1.3c-3.2-1.182-6.485-2.4-9.543-3.383,1.73.187,4,.632,6.073,1.039.591.118,1.158.229,1.695.33q1.023.965,2.04,1.933l.307.291ZM6.02,41.3A50.79,50.79,0,0,0,3.6,34.875a2.39,2.39,0,0,0,.368-.223c1.757,1.4,3.723,3.093,5.977,5.128-.942.739-1.832,1.476-2.635,2.18a2,2,0,0,0-1.13-.349c-.02,0-.039.006-.06.007-.035-.108-.068-.211-.1-.322M3.234,25.879a49.143,49.143,0,0,1,.241-6.333A1.913,1.913,0,0,0,4.4,18.7c.515.178,1.07.38,1.675.613C5.033,23.337,4.2,27.109,3.593,30.543a2.505,2.505,0,0,0-.436-.169c.089-1.472.084-3,.078-4.5M7.47,14.164c-.389,1.369-.761,2.723-1.109,4.041-.634-.242-1.21-.448-1.754-.632a1.828,1.828,0,0,0-.091-.379,14.205,14.205,0,0,1,2.954-3.03M40.142,29.028c.2-.183.406-.368.613-.552.123.787.247,1.557.368,2.3-.322-.6-.649-1.182-.981-1.75M23.282,48.248c-.18-.6-.382-1.217-.616-1.858l.743.1-.084,1.756-.044.005M38.934,9.855c-.588.639-1.232,1.311-1.955,2.034-.946-.833-1.887-1.684-2.811-2.54.819-.178,1.629-.347,2.411-.512l.913-.192L38.2,8.5a2.435,2.435,0,0,0,.731,1.358m1.844,6.832c.7.508,1.457,1,2.148,1.454a33.725,33.725,0,0,1,2.991,2.1c-1.478.051-3.094.143-4.98.281-.106-1.366-.16-2.651-.16-3.835M28.527,40.274a38.96,38.96,0,0,0-3.03,5.342l-.884-.12c.111-2.454.231-5.292.308-8.2,1.548.337,2.969.681,4.2,1.014,0,.049-.012.1-.012.146a1.837,1.837,0,0,0,.215.813c-.128.147-.256.295-.38.453Zm4.09-2.9a1.81,1.81,0,0,0-.207-.246,46.9,46.9,0,0,1,3.713-4.242c1.444.868,2.923,1.791,4.412,2.745a2.347,2.347,0,0,0-.039.315,65.939,65.939,0,0,0-7.88,1.429M19.548,35a1.853,1.853,0,0,0-.364-.7c.109-.178.218-.356.326-.533a23.07,23.07,0,0,1,4.322-5.727c.041,2.392.032,4.938-.03,7.75-1.5-.31-2.986-.586-4.254-.794m6.665-7.653c1.921.991,3.891,2.056,5.883,3.185a44.688,44.688,0,0,1-1.467,4.672,40.62,40.62,0,0,0-4.654-7.671,2.288,2.288,0,0,0,.237-.185m.721-1.017a2.415,2.415,0,0,0,.126-.537c.36-.15.727-.305,1.109-.467,1.613-.677,3.373-1.411,4.945-1.975a1.92,1.92,0,0,0,.608.387c-.18.746-.358,1.512-.549,2.341-.24,1.037-.495,2.13-.761,3.208-1.81-1.023-3.645-2.01-5.477-2.957m-4.449,1.391a26.77,26.77,0,0,0-3.971,5.47c-.1.16-.2.322-.3.484a1.984,1.984,0,0,0-.561-.088h0c-.037,0-.071.011-.106.012a38.53,38.53,0,0,1-1.5-4.393c2.548-.654,4.918-1.171,6.436-1.486m2.505.406a41.526,41.526,0,0,1,5.047,8.518c-.033.073-.068.144-.1.216a1.958,1.958,0,0,0-.294.246c-.015.015-.024.034-.039.049-1.334-.363-2.919-.745-4.649-1.119.064-2.876.076-5.474.037-7.909m10.036,4.1a48.661,48.661,0,0,0-3.617,4.145,41.538,41.538,0,0,0,1.726-5.249q.944.543,1.892,1.1m-2.473-9.888c-1.571.569-3.286,1.285-4.858,1.947l-.788.331a2.407,2.407,0,0,0-.437-.7c1.384-1.623,2.932-3.179,4.25-4.458a23.681,23.681,0,0,1,1.921,1.846,1.854,1.854,0,0,0-.127.717,1.874,1.874,0,0,0,.039.314m-7.019.907c-.02-.009-.042-.011-.063-.019-.232-2.517-.782-5.384-1.317-8.167l-.188-1c.024-.009.05-.014.073-.025,1.05.914,2.207,1.824,3.352,2.722.77.6,1.629,1.278,2.45,1.958-1.336,1.3-2.9,2.875-4.307,4.528m-2.768-8.78q.077.408.158.822C23.435,17.957,23.96,20.7,24.2,23.1a2.465,2.465,0,0,0-.606.171c-1.143-1.824-2.388-3.7-3.779-5.684.939-1.023,1.947-2.086,2.952-3.12m-.289,9.785a32.111,32.111,0,0,0-6.187-1.838c0-.022.006-.044.006-.066a1.844,1.844,0,0,0-.118-.584c.771-.957,1.729-2.073,2.841-3.306,1.342,1.921,2.548,3.743,3.658,5.52a2.538,2.538,0,0,0-.2.275m-6.607-.691L16,23.515a30.334,30.334,0,0,1,6.142,1.839c0,.067-.017.131-.016.2a2.372,2.372,0,0,0,.265,1.026c-1.595.328-4.039.858-6.637,1.523-.36-1.392-.642-2.728-.829-3.906a1.912,1.912,0,0,0,.948-.632M35.92,31.32q-1.233-.734-2.467-1.437c.3-1.211.586-2.42.846-3.552.206-.889.4-1.713.589-2.509a1.886,1.886,0,0,0,.251-.082,46.107,46.107,0,0,1,3.486,4.987c-.955.878-1.863,1.747-2.706,2.592m1.469-10.51-1.374.115A1.974,1.974,0,0,0,34.4,20.1a1.917,1.917,0,0,0-1.019.316c-.51-.544-1.108-1.118-1.83-1.75.7-.671,1.41-1.339,2.114-2,1.226-1.154,2.262-2.134,3.294-3.143.9.779,1.794,1.541,2.677,2.272a46.933,46.933,0,0,0,.152,4.819c-.8.063-1.6.13-2.4.2M21.942,13.671c-.962.988-1.913,1.991-2.806,2.959-1.53-2.149-3.221-4.414-5.149-6.9q.4-.245.8-.488c2.248.879,4.486,1.831,6.584,2.789a1.81,1.81,0,0,0,.567,1.64M13,10.338c2,2.572,3.748,4.921,5.339,7.161-1.118,1.233-2.1,2.365-2.892,3.34a1.911,1.911,0,0,0-.188-.105c-.49-1.6-.94-3.348-1.343-4.931-.4-1.557-.886-3.473-1.413-5.155.164-.1.329-.208.5-.311M10.073,26.26c1.005-.9,1.957-1.753,2.888-2.607a1.926,1.926,0,0,0,.785.515c.193,1.262.5,2.716.888,4.224-4.655,1.243-7.926,2.459-9.777,3.631a2.454,2.454,0,0,0-.176-.429c.026-.156.051-.308.078-.464,1.671-1.615,3.454-3.208,5.178-4.75Zm4.86,3.241a39.611,39.611,0,0,0,1.543,4.529,2.084,2.084,0,0,0-.165.139,1.952,1.952,0,0,0-.229.285A51.487,51.487,0,0,0,5.218,33.14c1.293-.9,4.039-2.121,9.716-3.64M24.56,46.638l.406.056c-.154.31-.3.615-.452.911.015-.323.03-.644.046-.967m14.933-18.7a46.9,46.9,0,0,0-3.457-4.912,1.862,1.862,0,0,0,.311-.987l1.581-.133c.648-.054,1.3-.109,1.957-.162.146,1.559.355,3.25.651,5.265q-.532.47-1.041.929M37.844,12.648c.8-.8,1.494-1.527,2.123-2.217a2.455,2.455,0,0,0,.343.071,19.962,19.962,0,0,0-.6,3.737c-.619-.519-1.243-1.052-1.864-1.591m-4.981,3.195c-.73.687-1.465,1.379-2.194,2.077-.8-.667-1.64-1.326-2.561-2.048-1.084-.85-2.189-1.721-3.2-2.592a1.853,1.853,0,0,0,.279-1.006,1.9,1.9,0,0,0-.041-.333A45.933,45.933,0,0,1,32.7,9.676c1.1,1.036,2.241,2.072,3.392,3.088-1.063,1.039-2.162,2.074-3.228,3.079m-9.8-7.112c-.121.621-.242,1.212-.368,1.789a1.887,1.887,0,0,0-.805.483l0,0c-1.874-.855-3.859-1.706-5.857-2.5.636-.379,1.271-.753,1.9-1.122l.18-.106c.52-.307,1.035-.612,1.538-.912,1.285.026,2.586.068,3.876.128-.168.749-.314,1.5-.459,2.24M12.5,21.987a1.813,1.813,0,0,0-.049.441c0,.041.012.079.015.119-1,.923-2.026,1.845-3.112,2.815l-.119.106c-1.3,1.16-2.738,2.444-4.133,3.753.557-2.914,1.275-6.083,2.139-9.444,1.142.46,2.32.961,3.463,1.449l.6.255,1.2.506m3.277,13.567c0,.046.012.088.016.133-1.506.915-3.157,2.045-4.847,3.323C8.928,37.18,7.131,35.624,5.5,34.288a49.211,49.211,0,0,1,10.285,1.266m3.3,1.234a1.88,1.88,0,0,0,.369-.551c1.271.21,2.781.493,4.323.813-.067,2.49-.167,5.147-.311,8.294L22.2,45.181c-.634-1.583-1.349-3.132-1.985-4.506-.488-1.055-1.055-2.285-1.59-3.551a1.922,1.922,0,0,0,.454-.335m11.948,3.094h0v0Zm10.141-5.443c-.025.026-.042.057-.066.083-1.342-.857-2.706-1.71-4.084-2.543.687-.682,1.429-1.393,2.254-2.156.785,1.36,1.541,2.807,2.259,4.311a2.538,2.538,0,0,0-.363.305M36.306,7.731c-1.015.212-2.078.436-3.145.672-.465-.44-.907-.863-1.33-1.275,1.618.178,3.116.38,4.476.6M24.572,10.94a1.957,1.957,0,0,0-.7-.4c.114-.537.224-1.078.328-1.611.149-.768.307-1.576.49-2.372,1.774.1,3.507.222,5.162.377.6.6,1.226,1.207,1.855,1.809a41.23,41.23,0,0,0-7.135,2.2M24.359,3.4c.013.011.025.022.039.031a20.221,20.221,0,0,0-.605,1.934C23,5.328,22.22,5.3,21.458,5.272c1.006-.616,2.017-1.257,2.9-1.872m.613,2.027c.164-.607.34-1.148.527-1.647h.037a1.922,1.922,0,0,0,.987-.3c.677.729,1.371,1.461,2.09,2.2-1.208-.1-2.427-.182-3.642-.251M17.328,6.4l-.321.189c-.768.455-1.548.917-2.327,1.384-.45-.174-.884-.336-1.32-.5a2.336,2.336,0,0,0,.087-.648,2.466,2.466,0,0,0-.049-.4c1.159-.056,2.483-.085,3.942-.085h.091l-.1.061M10.72,9.3c.108.284.217.589.33.924q-.73.471-1.391.92c.189-.636.389-1.287.588-1.938a2.491,2.491,0,0,0,.473.094M13.9,20.563a1.926,1.926,0,0,0-.809.434c-.514-.216-1.036-.437-1.575-.666l-.21-.089c-1.11-.474-2.471-1.054-3.771-1.578.477-1.814,1.015-3.752,1.6-5.769.681-.488,1.429-1,2.272-1.547.478,1.571.924,3.319,1.289,4.753.38,1.495.772,3.019,1.2,4.461m-3.1,20c1.1,1,2.274,2.091,3.631,3.366-2.179-.427-4.589-.9-6.408-1.068.837-.738,1.781-1.518,2.778-2.3m5.47-3.827a1.924,1.924,0,0,0,1.192.612c.551,1.322,1.148,2.619,1.695,3.8.626,1.354,1.2,2.6,1.72,3.861-1.184-.158-2.412-.332-3.591-.537l-.574-.1c-1.469-1.387-3.178-2.993-4.908-4.575,1.56-1.174,3.072-2.2,4.466-3.058M26.7,45.788a29.009,29.009,0,0,1,3.441-5.706,1.907,1.907,0,0,0,.889.227h.039a2,2,0,0,0,.291-.036q.192.393.382.788.345.71.7,1.426c-1.783,1.154-3.431,2.3-4.906,3.427-.277-.043-.554-.086-.833-.127m6.088-5.215c-.134-.275-.268-.549-.4-.824a1.861,1.861,0,0,0,.555-1.287,64.916,64.916,0,0,1,7.736-1.389,2.389,2.389,0,0,0,.265.47c-2.539,1.333-5.136,2.818-7.526,4.322l-.547-1.123ZM41.572,26.1c-.232-1.636-.408-3.1-.537-4.447,2.029-.153,3.7-.247,5.251-.294a1.864,1.864,0,0,0,.272.6c-1.791,1.437-3.465,2.824-4.986,4.139m-8.583,17.5c.579,1.152,1.3,2.524,2.117,3.9,0,0-.008.006-.012.01-.041.042-.072.091-.109.136A37.579,37.579,0,0,0,29.223,46.2c1.161-.852,2.423-1.721,3.766-2.592M43.568,17.079c-.966-.63-1.964-1.281-2.757-1.922a19.524,19.524,0,0,1,.747-4.8,2.229,2.229,0,0,0,.2-.092c1.475,2.519,3.376,5.824,5.134,9.173a32.9,32.9,0,0,0-3.328-2.355M38.454,6.963c-2.225-.443-4.88-.817-7.92-1.114-1.023-1.022-2.01-2.041-2.945-3.044A77.334,77.334,0,0,1,38.71,6.577a2.4,2.4,0,0,0-.256.386M22.416,3.323c-.971.626-2.035,1.271-3.088,1.9-.667-.012-1.319-.016-1.951-.016s-1.238,0-1.823.016l.309-.087c2.1-.586,4.394-1.228,6.552-1.812M8.007,12.308a25.125,25.125,0,0,0-3.285,2.815,30.781,30.781,0,0,1,3.891-4.86Q8.3,11.3,8.007,12.308M25.446,49.233q1.145-1.023,2.528-2.093c1.765.29,3.272.6,4.611.964-.811.143-1.612.318-2.367.483a26.155,26.155,0,0,1-4.7.737c-.022-.031-.046-.06-.068-.091m10.908-2.285a2.037,2.037,0,0,0-.225.026c-.844-1.408-1.577-2.816-2.163-3.991,2.707-1.709,5.222-3.118,7.2-4.162-1.217,1.753-2.378,3.825-3.431,5.707l-.07.126c-.458.819-.895,1.6-1.307,2.295m6.558-13.259h0c-.051,0-.1.013-.151.017-.125-.8-.257-1.64-.4-2.513l-.04-.25c-.174-1.078-.357-2.212-.533-3.379,1.779-1.555,3.732-3.183,5.818-4.849.027.008.054.018.081.025a58.18,58.18,0,0,1-4.291,11,2.783,2.783,0,0,0-.483-.045" transform="translate(0 0)" fill="#af39e6"/>
      </g>
    </g>
    <g id="Grupo_8176" data-name="Grupo 8176" transform="translate(65.551 405.995)" style="isolation: isolate">
      <g id="Grupo_8175" data-name="Grupo 8175" transform="translate(0 0)" clip-path="url(#clip-path-2)">
        <path id="Caminho_9122" data-name="Caminho 9122" d="M38.031,47.387a5.994,5.994,0,1,0-6.023-5.965,6.014,6.014,0,0,0,6.023,5.965m0-9.648a3.684,3.684,0,1,1-3.684,3.684,3.669,3.669,0,0,1,3.684-3.684" transform="translate(-13.291 -14.7)" fill="#00c8db"/>
        <path id="Caminho_9123" data-name="Caminho 9123" d="M33.207,84a1.173,1.173,0,0,0,1.17-1.17V73.07a1.173,1.173,0,0,0-1.17-1.17h-1.93a1.17,1.17,0,1,0,0,2.339h.76v8.537A1.187,1.187,0,0,0,33.207,84" transform="translate(-12.502 -29.856)" fill="#00c8db"/>
        <path id="Caminho_9124" data-name="Caminho 9124" d="M49.547,82.835v-8.6h.76a1.17,1.17,0,1,0,0-2.339h-1.93a1.173,1.173,0,0,0-1.17,1.17v9.707a1.173,1.173,0,0,0,1.17,1.17,1.124,1.124,0,0,0,1.17-1.111" transform="translate(-19.603 -29.856)" fill="#00c8db"/>
        <path id="Caminho_9125" data-name="Caminho 9125" d="M63.781,71.615a1.173,1.173,0,0,0,1.17-1.17V63.37a1.173,1.173,0,0,0-1.17-1.17h-1.4a1.17,1.17,0,0,0,0,2.339h.234v5.906a1.173,1.173,0,0,0,1.17,1.17" transform="translate(-25.416 -25.828)" fill="#00c8db"/>
        <path id="Caminho_9126" data-name="Caminho 9126" d="M76.281,62.2h-1.4a1.173,1.173,0,0,0-1.17,1.17v7.076a1.17,1.17,0,0,0,2.339,0V64.539h.234a1.17,1.17,0,0,0,0-2.339" transform="translate(-30.607 -25.828)" fill="#00c8db"/>
        <path id="Caminho_9127" data-name="Caminho 9127" d="M1.116,45.786a1.173,1.173,0,0,0,1.17-1.17V36.723a3.98,3.98,0,0,1,3.976-3.976h3.8a3.98,3.98,0,0,1,3.976,3.976V40.64a6.171,6.171,0,0,0-.117,1.462V52.979a1.17,1.17,0,0,0,2.339,0V42.1a5.865,5.865,0,0,1,5.848-5.848h5.2A5.865,5.865,0,0,1,33.16,42.1V52.979a1.17,1.17,0,0,0,2.339,0V42.1a11.391,11.391,0,0,0-.117-1.462V36.723a3.98,3.98,0,0,1,3.976-3.976h3.8a3.98,3.98,0,0,1,3.976,3.976v7.894a1.17,1.17,0,1,0,2.339,0V36.723a6.289,6.289,0,0,0-6.315-6.315h-3.8a5.789,5.789,0,0,0-2.456.526l-.819-4.678.643-.643a4.735,4.735,0,1,0,5.964-5.789l3.158-3.1a1.29,1.29,0,0,0,.292-1.228,1.214,1.214,0,0,0-.936-.819L31.757,12.806,25.793.643a1.183,1.183,0,0,0-2.105,0L17.723,12.806,4.274,14.736a1.057,1.057,0,0,0-.936.819,1.367,1.367,0,0,0,.292,1.228l3.158,3.1a4.724,4.724,0,0,0,1.4,9.239,4.771,4.771,0,0,0,4.561-3.45l.643.643-.819,4.678a6.832,6.832,0,0,0-2.456-.526H6.32A6.326,6.326,0,0,0,0,36.781v7.836a1.09,1.09,0,0,0,1.111,1.17m42.57-21.46a2.408,2.408,0,0,1-2.4,2.4,2.371,2.371,0,0,1-2.4-2.4,2.4,2.4,0,1,1,4.795,0m-35.495,2.4a2.4,2.4,0,1,1,0-4.795,2.371,2.371,0,0,1,2.4,2.4,2.447,2.447,0,0,1-2.4,2.4m3.859-5.087a4.3,4.3,0,0,0-1.286-1.228l-3.8-3.684,11.637-1.7a1.124,1.124,0,0,0,.877-.643L24.74,3.8l5.2,10.584a1.225,1.225,0,0,0,.877.643l11.637,1.7-3.8,3.684a5.162,5.162,0,0,0-1.286,1.228l-3.392,3.275a1.179,1.179,0,0,0-.351,1.053l1.17,6.374a6.012,6.012,0,0,0-1.7,3.918h-.058a7.931,7.931,0,0,0-4.152-2.164h-.175a11.356,11.356,0,0,0-1.4-.117h-5.2a8.192,8.192,0,0,0-5.731,2.339,6.656,6.656,0,0,0-1.7-3.918l1.111-6.374a1.232,1.232,0,0,0-.351-1.053Z" transform="translate(0 0)" fill="#00c8db"/>
        <path id="Caminho_9128" data-name="Caminho 9128" d="M7.081,71.615a1.173,1.173,0,0,0,1.17-1.17V63.37a1.173,1.173,0,0,0-1.17-1.17h-1.4a1.17,1.17,0,0,0,0,2.339h.234v5.906a1.173,1.173,0,0,0,1.17,1.17" transform="translate(-1.872 -25.828)" fill="#00c8db"/>
        <path id="Caminho_9129" data-name="Caminho 9129" d="M19.347,70.445V64.539h.234a1.17,1.17,0,0,0,0-2.339h-1.4a1.173,1.173,0,0,0-1.17,1.17v7.076a1.17,1.17,0,0,0,2.339,0" transform="translate(-7.062 -25.828)" fill="#00c8db"/>
      </g>
    </g>
    <g id="Grupo_8178" data-name="Grupo 8178" transform="translate(166.129 398.394)" style="isolation: isolate">
      <g id="Grupo_8177" data-name="Grupo 8177" transform="translate(0 0)" clip-path="url(#clip-path-3)">
        <path id="Caminho_9130" data-name="Caminho 9130" d="M53.687,0H3.746A3.749,3.749,0,0,0,0,3.746V34.959A3.749,3.749,0,0,0,3.746,38.7H4.37V30.589H2.5V3.746A1.249,1.249,0,0,1,3.746,2.5H53.687a1.249,1.249,0,0,1,1.249,1.249V30.589H42.45V38.7H53.687a3.749,3.749,0,0,0,3.746-3.746V3.746A3.75,3.75,0,0,0,53.687,0" transform="translate(-0.063 0.233)" fill="#fff"/>
        <path id="Caminho_9131" data-name="Caminho 9131" d="M48.01,21H24.951A1.939,1.939,0,0,0,23,22.873v4.994h2.5V23.5H47.346V50.965H31.74v2.5a3.726,3.726,0,0,1-.966,2.5H48.049a2.109,2.109,0,0,0,1.795-2.185v-30.9A1.856,1.856,0,0,0,48.01,21M36.629,54.243a1.152,1.152,0,1,1,1.066-1.149,1.109,1.109,0,0,1-1.066,1.149" transform="translate(-8.705 -7.657)" fill="#fff"/>
        <path id="Caminho_9132" data-name="Caminho 9132" d="M23.982,34.306a2.522,2.522,0,0,0-1.2-.3H11.5a2.593,2.593,0,0,0-1.248.323A2.344,2.344,0,0,0,9,36.4V58.348a2.5,2.5,0,0,0,2.5,2.5H22.783a2.4,2.4,0,0,0,1.611-.624,2.5,2.5,0,0,0,.838-1.872V36.4a2.338,2.338,0,0,0-1.249-2.1M17.858,58.671a1.065,1.065,0,0,1-.525.4.986.986,0,0,1-.322.059,1,1,0,0,1-.353-.069,1.144,1.144,0,0,1-.712-1.079,1.177,1.177,0,0,1,.39-.881,1.084,1.084,0,0,1,.156-.115,1,1,0,0,1,.519-.152.963.963,0,0,1,.1.012,1.016,1.016,0,0,1,.571.255c.018.016.037.031.054.047a1.2,1.2,0,0,1,.118,1.524m4.876-15.306V55.225H11.5V36.5H22.734Z" transform="translate(-3.445 -12.542)" fill="#fff"/>
        <path id="Caminho_9133" data-name="Caminho 9133" d="M69.249,70.379C68.624,68.506,68,69.755,68,69.755V73.5h5.618v-.624c0-.624-3.746-.624-4.37-2.5" transform="translate(-25.613 -25.823)" fill="#fff"/>
      </g>
    </g>
  </g>
</svg>
