<svg xmlns="http://www.w3.org/2000/svg" xmlns:xlink="http://www.w3.org/1999/xlink" width="663.077" height="549.498" viewBox="0 0 663.077 549.498">
  <defs>
    <radialGradient id="radial-gradient" cx="0.5" cy="1.41" r="0.5" gradientUnits="objectBoundingBox">
      <stop offset="0" stop-color="#af39e6"/>
      <stop offset="1" stop-color="#742698"/>
    </radialGradient>
    <clipPath id="clip-path">
      <rect id="Retângulo_4399" data-name="Retângulo 4399" width="483.849" height="441.718" fill="url(#radial-gradient)"/>
    </clipPath>
    <filter id="Caminho_9194">
      <feOffset input="SourceAlpha"/>
      <feGaussianBlur stdDeviation="30" result="blur"/>
      <feFlood flood-color="#00c8db" result="color"/>
      <feComposite operator="out" in="SourceGraphic" in2="blur"/>
      <feComposite operator="in" in="color"/>
      <feComposite operator="in" in2="SourceGraphic"/>
    </filter>
    <filter id="Retângulo_4355">
      <feOffset input="SourceAlpha"/>
      <feGaussianBlur stdDeviation="15" result="blur-2"/>
      <feFlood flood-color="#742698" result="color-2"/>
      <feComposite operator="out" in="SourceGraphic" in2="blur-2"/>
      <feComposite operator="in" in="color-2"/>
      <feComposite operator="in" in2="SourceGraphic"/>
    </filter>
    <filter id="Retângulo_4356">
      <feOffset input="SourceAlpha"/>
      <feGaussianBlur stdDeviation="15" result="blur-3"/>
      <feFlood flood-color="#ff0070" result="color-3"/>
      <feComposite operator="out" in="SourceGraphic" in2="blur-3"/>
      <feComposite operator="in" in="color-3"/>
      <feComposite operator="in" in2="SourceGraphic"/>
    </filter>
    <filter id="Retângulo_4355-2">
      <feOffset input="SourceAlpha"/>
      <feGaussianBlur stdDeviation="15" result="blur-4"/>
      <feFlood flood-color="#742698" result="color-4"/>
      <feComposite operator="out" in="SourceGraphic" in2="blur-4"/>
      <feComposite operator="in" in="color-4"/>
      <feComposite operator="in" in2="SourceGraphic"/>
    </filter>
    <filter id="Retângulo_4356-2">
      <feOffset input="SourceAlpha"/>
      <feGaussianBlur stdDeviation="15" result="blur-5"/>
      <feFlood flood-color="#ff0070" result="color-5"/>
      <feComposite operator="out" in="SourceGraphic" in2="blur-5"/>
      <feComposite operator="in" in="color-5"/>
      <feComposite operator="in" in2="SourceGraphic"/>
    </filter>
    <filter id="Retângulo_4355-3">
      <feOffset input="SourceAlpha"/>
      <feGaussianBlur stdDeviation="15" result="blur-6"/>
      <feFlood flood-color="#742698" result="color-6"/>
      <feComposite operator="out" in="SourceGraphic" in2="blur-6"/>
      <feComposite operator="in" in="color-6"/>
      <feComposite operator="in" in2="SourceGraphic"/>
    </filter>
    <filter id="Retângulo_4356-3">
      <feOffset input="SourceAlpha"/>
      <feGaussianBlur stdDeviation="15" result="blur-7"/>
      <feFlood flood-color="#ff0070" result="color-7"/>
      <feComposite operator="out" in="SourceGraphic" in2="blur-7"/>
      <feComposite operator="in" in="color-7"/>
      <feComposite operator="in" in2="SourceGraphic"/>
    </filter>
    <filter id="Retângulo_4355-4">
      <feOffset input="SourceAlpha"/>
      <feGaussianBlur stdDeviation="15" result="blur-8"/>
      <feFlood flood-color="#742698" result="color-8"/>
      <feComposite operator="out" in="SourceGraphic" in2="blur-8"/>
      <feComposite operator="in" in="color-8"/>
      <feComposite operator="in" in2="SourceGraphic"/>
    </filter>
    <filter id="Retângulo_4356-4">
      <feOffset input="SourceAlpha"/>
      <feGaussianBlur stdDeviation="15" result="blur-9"/>
      <feFlood flood-color="#ff0070" result="color-9"/>
      <feComposite operator="out" in="SourceGraphic" in2="blur-9"/>
      <feComposite operator="in" in="color-9"/>
      <feComposite operator="in" in2="SourceGraphic"/>
    </filter>
  </defs>
  <g id="Grupo_24236" data-name="Grupo 24236" transform="translate(-670.71 -197.292)">
    <g id="Grupo_23929" data-name="Grupo 23929" transform="translate(143.473 87.442) rotate(3)">
      <g id="Grupo_8181" data-name="Grupo 8181" transform="translate(711.907 72.691)" style="isolation: isolate">
        <g id="Grupo_8180" data-name="Grupo 8180" transform="translate(0 0)" clip-path="url(#clip-path)">
          <path id="Caminho_9134" data-name="Caminho 9134" d="M107.367,62.925a10.069,10.069,0,0,1-5.048,18.784,10.448,10.448,0,0,1-1.281-.094l-1.323-.255v-.016a9.31,9.31,0,0,1-2.339-.953L83.458,101.566l-1.115-.745L96.251,79.656a10.258,10.258,0,0,1-3.24-4.172L92.6,74.208a9.644,9.644,0,0,1-.344-2.589,8.7,8.7,0,0,1,.177-1.813l-7-1.771.339-1.3.427-1.276,6.808,2.308a10.14,10.14,0,0,1,3.24-4.167l-.448-.672,1.115-.734-4.766-9.72,1.188-.594L98.491,62.31a10.078,10.078,0,0,1,3.829-.761,10.233,10.233,0,0,1,3.839.761l16.1-32.666,1.193.589Z" transform="translate(346.587 124.774)" fill="url(#radial-gradient)"/>
          <path id="Caminho_9135" data-name="Caminho 9135" d="M102.975,55.589l.75-1.11-.3-.953-1.552-1.167.813-1.078-7-21.253a6.736,6.736,0,0,1-.734.094V42.378H93.609V30.121a6.522,6.522,0,0,1-3.433-1.406l-2.021,2.052L87.2,29.83l-1.485,1.125-.8-1.078,3.771-2.855a5.3,5.3,0,0,1-.375-.7l-6.589,2.224-.427-1.261,6.579-2.24a6.69,6.69,0,0,1-.167-1.459,6.165,6.165,0,0,1,.458-2.36l.594-1.193a6.576,6.576,0,1,1,9.955,8.407L126.322,65.8A9.814,9.814,0,0,1,131.7,64.22a9.988,9.988,0,1,1,0,19.977,9.837,9.837,0,0,1-3.808-.761l-1.193-.589a9.827,9.827,0,0,1-2.865-2.511l-.761-1.11a9.2,9.2,0,0,1-.865-1.917L100.48,82.822l-.26.807-1.281-.417-.323-1.292.818-.219,4.646-14.143a7.069,7.069,0,0,1-1.427-.88l-.948-.943a6.459,6.459,0,0,1-1.542-4.183,6.576,6.576,0,0,1,.448-2.36l.6-1.193a7.112,7.112,0,0,1,.49-.62l-3.151-3.2.948-.938,3.151,3.188a8.275,8.275,0,0,1,.781-.537Zm2.37-.469a.315.315,0,0,0,.125-.026l-.177-.13Zm17.112,13.653-9.215-6.225a6.37,6.37,0,0,1-.349,1.37ZM122.5,70.3l-10.2-5.178a6.649,6.649,0,0,1-5.542,3.032,7.019,7.019,0,0,1-1.412-.161l-4.37,13.314,20.888-5.3a10.2,10.2,0,0,1-.162-1.8,10.094,10.094,0,0,1,.8-3.912m1.677-2.657a10.489,10.489,0,0,1,1.057-1.042L97.62,29.257a6.6,6.6,0,0,1-.656.349l7.59,23.118,3.068,2.334a6.58,6.58,0,0,1,5.2,3.969Z" transform="translate(342.155 71.575)" fill="url(#radial-gradient)"/>
          <path id="Caminho_9136" data-name="Caminho 9136" d="M87.222,31.509a2.156,2.156,0,0,0-.073-.219l-.24.052Zm11.882.63,3.662,2.469-.75,1.11-3.48-2.344-.948.938-.161-.161a6.429,6.429,0,0,1-2.521,1.261l5.35,2.719-.6,1.193L92.139,35.5c-.073-.016-.156-.026-.219-.042l-1.266-.412a6.746,6.746,0,0,1-1.8-1.208l-3.917-1.985-1.485.375-.328-1.3-1.6-.8.6-1.193,2.964,1.505L86.836,30a4.6,4.6,0,0,1-.1-.969,7.285,7.285,0,0,1,.167-1.464l.438-1.261a6.5,6.5,0,0,1,.917-1.448l-1.271-1.3.964-.943,1.078,1.11-.354-.557-.719-.547,1.365-.9.349.521,1,.766a6.421,6.421,0,0,1,1.985-.495H94a6.575,6.575,0,0,1,5.928,6.517,7.392,7.392,0,0,1-.1.953l1.9,1.432-.813,1.078-1.443-1.1c-.109.24-.229.5-.365.74" transform="translate(343.115 91.446)" fill="url(#radial-gradient)"/>
          <path id="Caminho_9137" data-name="Caminho 9137" d="M93.268,30.065l2.2,3.365-1.365.9-.964.943L91.1,33.217a6.549,6.549,0,0,1-3.433,1.4v.979H86.33v-.979a6.527,6.527,0,0,1-4.36-2.308l-.75-1.11a5.626,5.626,0,0,1-.365-.755l-.8-1.057.448-.349a1.59,1.59,0,0,1-.026-.271V27.424a6.523,6.523,0,0,1,3.032-4.9v-.016l1.2-.589a6.876,6.876,0,0,1,1.365-.333l-.49-.755-.323.109-.448-1.261,1.136-.74.182.3.333-.109.427,1.261.761,1.172a6.8,6.8,0,0,1,1.99.495l.448-.333.8,1.078c.063.052.13.12.193.172l1.292-1.3.958.938-1.287,1.3A6.522,6.522,0,0,1,93.591,28.1a6.392,6.392,0,0,1-.323,1.969" transform="translate(336.969 79.737)" fill="url(#radial-gradient)"/>
          <path id="Caminho_9138" data-name="Caminho 9138" d="M101.05,34.415l.927-.63-.615-.2-.787.589Zm10.064,5.1V36.873l-7.532-2.547-1.156.776ZM99.82,33.06l-4.35-1.474L99.242,33.5Zm-.427,2.011-.531.391-.8-1.063-3.542-1.8A8.936,8.936,0,0,1,83.5,36.29l-.844,1.7-1.2-.589-6.162,9.361-1.115-.729,7.2-10.965a8.94,8.94,0,0,1-1.563-1.542l-.76-1.115a9.04,9.04,0,0,1-1.172-3.782V27.294a9.032,9.032,0,0,1,5.063-7.418l1.235-.495a8.705,8.705,0,0,1,2.667-.406,9.055,9.055,0,0,1,3.355.656l1.193.589a9.2,9.2,0,0,1,3.719,4.225l12.163-4.1.438,1.261-12.179,4.12a11.721,11.721,0,0,1,.255,1.568h9.465v1.339h-9.46a10.384,10.384,0,0,1-.255,1.552l5.568,1.891,3.73-2.829.8,1.057-2.985,2.292.719.24L106,31.05l.75,1.11-1.781,1.2,6.141,2.078h1.334v.453l5.829,1.969-.438,1.261-5.391-1.813v2.87l.6.307-.6,1.193v1.2l1.6-.4.328,1.3-1.927.484V72.029h-1.334V44.619L80.875,52.292l-.328-1.3,30.567-7.762V41l-9.97-5.053-6.47,4.386-.755-1.115,5.86-3.969Z" transform="translate(312.191 79.867)" fill="url(#radial-gradient)"/>
          <path id="Caminho_9139" data-name="Caminho 9139" d="M117.046,83.793a10.1,10.1,0,0,1,3.829-.76,10.471,10.471,0,0,1,1.292.094l8.574-43.553,1.323.255-8.585,43.563a10.069,10.069,0,1,1-11.252,14.861L79.3,114.964l-.615-1.188L111.613,97.06a9.95,9.95,0,0,1-.8-3.943,8.145,8.145,0,0,1,.052-1.016l.229-1.328c.063-.271.146-.552.229-.818l-5.475-2.229.5-1.229L74.972,70.562l.6-1.193,36.656,18.6a10.238,10.238,0,0,1,3.61-3.563l-3.584-7.282,1.193-.589Z" transform="translate(315.562 166.565)" fill="url(#radial-gradient)"/>
          <path id="Caminho_9140" data-name="Caminho 9140" d="M101.735,26.784l.755,1.115L87.978,37.712a5.372,5.372,0,0,1,.385.844l.328,1.3a4.808,4.808,0,0,1,.094.953,6.5,6.5,0,0,1-.8,3.1l26.592,18-.75,1.11-26.592-18a6.466,6.466,0,0,1-9.126.912l-.958-.943a8.408,8.408,0,0,1-.552-.75l-1.125-.74.469-.724a6.957,6.957,0,0,1-.271-1.3V40.129a6.463,6.463,0,0,1,1.479-3.5l-4.834-4.907.958-.938,4.834,4.891a6.515,6.515,0,0,1,3.422-1.4L82,33.566l1.115.729a5.786,5.786,0,0,1,1.375.349l4.787-9.71,1.2.589-4.787,9.71A6.191,6.191,0,0,1,87,36.311l18.883-14.377.8,1.063Z" transform="translate(304.374 92.322)" fill="url(#radial-gradient)"/>
          <path id="Caminho_9141" data-name="Caminho 9141" d="M79.713,70.3,73.306,83.294l-1.2-.583,5.558-11.293-1.115-.734,1.042-1.6a2.436,2.436,0,0,1-.333-.271L76.3,67.87a9.009,9.009,0,0,1-2.188-5.23V61.306a8.843,8.843,0,0,1,.26-1.558l.417-1.266c.146-.339.307-.662.479-.974l.755-1.1A8.646,8.646,0,0,1,77.6,54.868l1.115-.74a8.82,8.82,0,0,1,4.36-1.146,9,9,0,0,1,7.673,4.344l.615,1.188a9.252,9.252,0,0,1,.7,3.459A8.976,8.976,0,0,1,79.713,70.3" transform="translate(303.507 223.005)" fill="url(#radial-gradient)"/>
          <path id="Caminho_9142" data-name="Caminho 9142" d="M146.267,65.479a4.337,4.337,0,0,1,.542-.755l-3.125-3.172Zm7.9,9.569a6.555,6.555,0,0,1-1.391.349l6.157,9.371-1.115.734L151.2,75.424a6.776,6.776,0,0,1-2.349-.714l-1.125-.74a6.628,6.628,0,0,1-1.386-1.516l-2.49,1.261-.6-1.193-.427-1.276,2.636-.9a6.737,6.737,0,0,1-.167-1.464,6.448,6.448,0,0,1,.333-1.969l-3.193-4.855a6.373,6.373,0,0,1-5.313.333l-1.2-.594a6.68,6.68,0,0,1-.615-.453l-.958-.938a6.578,6.578,0,0,1-1.531-4.188,5.277,5.277,0,0,1,.1-.948L95.692,45.831a6.527,6.527,0,0,1-2.021,2.829L112.4,77.184l-1.1.75L92.546,49.4a6.371,6.371,0,0,1-6.037,0L68.725,76.46l-1.115-.74L85.373,48.659a6.609,6.609,0,0,1-2.443-5.084,6.465,6.465,0,0,1,1.537-4.183l.953-.938a7.11,7.11,0,0,1,1.422-.886l-1.823-5.563,1.266-.417,1.828,5.548a7.019,7.019,0,0,1,1.412-.161,6.54,6.54,0,0,1,3.016.766l2.714-4.131,1.125.74-2.568,3.912L96.937,35.1l.958.943-3.323,3.349a6.479,6.479,0,0,1,1.552,4.183,5.744,5.744,0,0,1-.115.953l37.214,9.439a6.262,6.262,0,0,1,.4-.844l.75-1.11a6.527,6.527,0,0,1,4.36-2.308h1.334a6.515,6.515,0,0,1,.74.094l8.392-25.514,1.266.412-8.376,25.519a6.436,6.436,0,0,1,1.412.9L159.284,35.1l.948.943L144.459,52.045a6.4,6.4,0,0,1,1.115,1.917L156.2,51.28l.323,1.292-10.616,2.7a7.391,7.391,0,0,1,.094.948,6.536,6.536,0,0,1-1.537,4.188l3.308,3.355a6.56,6.56,0,0,1,4.1-1.464,6.861,6.861,0,0,1,1.412.146l3.245-9.871,1.281.417-3.25,9.882a6.5,6.5,0,0,1,2.344,1.8l23.764-16.08.76,1.11-23.769,16.08a6.238,6.238,0,0,1,.823,3.094,6.558,6.558,0,0,1-3.115,5.563Z" transform="translate(284.575 102.2)" fill="url(#radial-gradient)"/>
          <path id="Caminho_9143" data-name="Caminho 9143" d="M74.739,50.438a6.5,6.5,0,0,1,4.11,1.479l3.308-3.355.953.938L79.8,52.855A6.4,6.4,0,0,1,80.881,59.4l-.6,1.193a4.622,4.622,0,0,1-.479.615l-.948.943a6.529,6.529,0,0,1-3.433,1.406V75.827H74.072V63.56a7.265,7.265,0,0,1-.745-.094l-1.266-.417a6.585,6.585,0,0,1-3.9-6.006,5.985,5.985,0,0,1,.094-.969l.323-1.3a6.89,6.89,0,0,1,1.115-1.912l.948-.938a6.918,6.918,0,0,1,1.427-.886L68.3,39.541l1.271-.417L73.333,50.6a6.576,6.576,0,0,1,1.406-.167" transform="translate(286.89 164.675)" fill="url(#radial-gradient)"/>
          <path id="Caminho_9144" data-name="Caminho 9144" d="M102.646,41.735h.849l-.938-2.87-.667.443a6.746,6.746,0,0,1,.755,2.427m-5.86-5.845a6.543,6.543,0,0,1,4.36,2.3l.979-.656-.12-.375,1.266-.417,6.767-4.574.948-.938.177.177,14.575-9.856.761,1.115-14.367,9.72-.958.938L111,33.15l-7.272,4.923,1.2,3.662h9.606v1.344h-9.173l-1.266.417-.135-.417h-1.3a6.418,6.418,0,0,1-1.479,3.511l3.313,3.355-.953.938-3.308-3.349a6.012,6.012,0,0,1-5.016,1.38l-1.3-.323a6.525,6.525,0,0,1-4.2-7.647L63.083,31.937l.422-1.261,26.634,9c.052-.12.135-.24.2-.365l.75-1.115a6.543,6.543,0,0,1,4.365-2.3Z" transform="translate(265.521 90.726)" fill="url(#radial-gradient)"/>
          <path id="Caminho_9145" data-name="Caminho 9145" d="M93.287,130.766l2.4-3.672-3.125,3.178a6.016,6.016,0,0,1,.479.609ZM109.743,117.8l-.677-1.354-2.427,1.646,1.849.938a5.121,5.121,0,0,1,1.255-1.229m5.563.125,8.491-8.611-2.4-1.2-11.2,7.59.761,1.531a4.612,4.612,0,0,1,1.5-.271,4.731,4.731,0,0,1,2.849.964m-33.5-28.3L94,93.745a6.255,6.255,0,0,1,.927-1.433L79.139,76.289a5.741,5.741,0,0,1-1.417.9Zm22.837,33.328,2.23.9,1.031-.521a3.8,3.8,0,0,1-.219-.886h-2.943a5.107,5.107,0,0,1-.1.505m3.261-2.73-2.526-1.271-1.083.724a4.259,4.259,0,0,1,.448,1.432h2.943a4.313,4.313,0,0,1,.219-.886m32.953-32.171L138.043,76.7V87.416a9.241,9.241,0,0,1,2.813.641m1.349-.13,6.574-10.007L139.4,75.545c-.062.026-.146.068-.219.094Zm7.35-11.2.4-.594-8.277-2.8a5.215,5.215,0,0,1-.818,1.193Zm-47.283,25.91a6.579,6.579,0,0,1-1.625.37V115.05l4.62,2.349,3.193-2.162ZM104,118.259l-3.355-1.7v.479a4.831,4.831,0,0,1,2.9,1.531Zm-.536-16.211,6.121,12.429,10.449-7.064-14.518-7.36a6.876,6.876,0,0,1-2.052,2m42.548,10.434a7.936,7.936,0,0,1,.792-.287l-2.448-9.882a9.247,9.247,0,0,1-2.37,2.016Zm-50.57-.068,3.86,1.953V103.007a5.983,5.983,0,0,1-.74-.094Zm.427-21.06a6.452,6.452,0,0,1,8.209,0L121.1,74.086a4.7,4.7,0,0,1-.938-2.24H81.567a6.444,6.444,0,0,1-1.464,3.5Zm7.345,35.875-9.006,4.579-.448.667a5.582,5.582,0,0,1,.229.99Zm-5.292-1.089-2.24,3.412,9.606-4.886-1.156-.474a4.806,4.806,0,0,1-4.152,2.417,4.7,4.7,0,0,1-2.058-.469m-.813-8.215a4.823,4.823,0,0,1,2.2-.891v-1.162L95.032,113.7l-.521,1.584Zm43.47-.083-15.523-7.887-8.788,8.918a4.941,4.941,0,0,1,.938,2.24h22.607a9.79,9.79,0,0,1,.766-3.271m-14.549-8.892,15.164,7.7a10.1,10.1,0,0,1,3.62-3.563l-4.027-8.168a8.955,8.955,0,0,1-3.412.672,9.071,9.071,0,0,1-5.891-2.177ZM105.2,92.135l21.972-14.856-.75-1.547a4.689,4.689,0,0,1-1.5.271,4.836,4.836,0,0,1-2.875-.969Zm24.29,8.876a9.263,9.263,0,0,1-1.177-3.86H106.5a7.22,7.22,0,0,1-.385,1.693l15.174,7.709Zm-1.172-5.2a9.142,9.142,0,0,1,4.464-7.173l-5.006-10.152-22.019,14.9a6.547,6.547,0,0,1,.755,2.427Zm-38.125,32.63a6.362,6.362,0,0,1,1.427.886l4.537-4.615a4.762,4.762,0,0,1,0-5.839l-2.11-2.157Zm42.183-54.685L129.386,73a4.869,4.869,0,0,1-1.761,2.162l.677,1.36Zm-1.828,28.723c-.1-.12-.208-.224-.3-.349l-7.569,5.126,2.11,1.073Zm2.089-31.968a4.666,4.666,0,0,1,.385-1.365l-3.365,1.141c.01.063.01.146.021.224Zm-2.349,1.339,2.469.63a3.343,3.343,0,0,1-.115-.63ZM136.7,75.94a4.82,4.82,0,0,1-2.886-1.542l-4.928,3.339,5.089,10.314a8.921,8.921,0,0,1,2.724-.63Zm-1.959-8.8a4.7,4.7,0,0,1,2.219-.755l2.438-.818,6.965-14.132,1.2.594L141.2,64.949l12.069-4.074.427,1.276-13.346,4.506-.26.521a4.966,4.966,0,0,1,1.24,1.229l12.361-6.261.6,1.193-12.366,6.277a5.087,5.087,0,0,1,.271,1.558,4.818,4.818,0,0,1-.083.886l8.574,2.907,7.475-11.371,1.125.74-7.272,11.08,6.647,2.25-.427,1.276-7-2.365-.323.5,7.314,1.865-.339,1.3-7.741-1.969-7.235,11a9.053,9.053,0,0,1,2.839,3.672l19.3-6.527.412,1.276L146.17,94.224a8.857,8.857,0,0,1-.8,6.626l2.714,11.038a10.2,10.2,0,0,1,1.745-.156,10.036,10.036,0,0,1,4.964,1.307l1.115.745a10.038,10.038,0,0,1-1.037,16.737v.01l-1.193.589a10.208,10.208,0,0,1-3.849.766,10.079,10.079,0,0,1-10.033-9.418H117.192a4.78,4.78,0,0,1-.208.886l.01.01-.6,1.193a4.854,4.854,0,0,1-2.985,1.969l34.369,13.966-.5,1.229-39.433-15.992-13.606,9.184,58.284,9.861-.229,1.328L93.829,136.22a6.6,6.6,0,0,1-2.2,3.329l16.445,25.035-1.115.74L90.526,140.288a6.781,6.781,0,0,1-2.36.708V155.2l17.226,11.663-.755,1.1L88.167,156.822H86.823v-.912l-.755-.516.755-1.1V143.033l-1.115-.74.875-1.328a7.569,7.569,0,0,1-.964-.214l-.719.495-4.266,8.631-1.193-.583,3.2-6.532-.75-1.115,1.959-1.313.141-.307c-.208-.135-.417-.286-.615-.443l-.948-.943a6.531,6.531,0,0,1,1.563-9.746L82.629,126.1l1.193-.583,1.38,2.787a6.124,6.124,0,0,1,1.615-.365h1.344a4.466,4.466,0,0,1,.74.083l4.058-12.361-1.365-1.4.948-.943.886.9.375-1.115-.781-.4.6-1.193.589.292,3.063-9.3a6.828,6.828,0,0,1-1.422-.886l-.953-.938a6.346,6.346,0,0,1-1.354-5.652l-11.236-3.8-1.271.417-.313-.953L68.539,86.572l.427-1.266L80.2,89.1l-3.787-11.5A5.921,5.921,0,0,1,75,77.769a6.531,6.531,0,0,1-4.1-1.474l-.161.161-.953-.938-3.912,2.657-.75-1.115,4.1-2.782a6.464,6.464,0,0,1-.8-3.094A6.555,6.555,0,0,1,69.945,67l.958-.938a5.946,5.946,0,0,1,5.022-1.38L85.27,26.746l1.3.323L77.222,65a4.555,4.555,0,0,1,.813.365l1.115.74a6.542,6.542,0,0,1,2.391,4.407h38.62a4.684,4.684,0,0,1,1.584-2.933l1.1-.75a4.87,4.87,0,0,1,2.068-.469,4.713,4.713,0,0,1,2.855.964l17.018-17.268.958.938L128.73,68.267a5.036,5.036,0,0,1,.479.761Z" transform="translate(274.124 112.576)" fill="url(#radial-gradient)"/>
          <path id="Caminho_9146" data-name="Caminho 9146" d="M81.013,62.686a4.964,4.964,0,0,1,.938,2.24h2.3V66.27h-2.3a4.812,4.812,0,0,1-4.089,4.089v.484l-1.344.281-.109.458-1.354-.13-.542,1.083-1.25-.51L72.1,73.609l-1.073-.787-2.5,2.516-.948-.938,5.787-5.876a4.762,4.762,0,0,1,1.7-7.23v-.01l1.271-.417c.052-.016.12-.016.177-.026h1.344a4.765,4.765,0,0,1,2.193.9l3.563-3.6.948.943Z" transform="translate(284.445 244.686)" fill="url(#radial-gradient)"/>
          <path id="Caminho_9147" data-name="Caminho 9147" d="M72.066,42.874l-19.841,6.7-.432-1.261L71.649,41.6a9.849,9.849,0,0,1,0-5.121l.417-1.266a10.009,10.009,0,0,1,3.2-4.126l1.115-.74a9.966,9.966,0,0,1,11.429,1.125L96.8,22.355l.958.938-9,9.116a10.926,10.926,0,0,1,1.115,1.526l11.762-5.97.594,1.193L90.5,35.112a10.01,10.01,0,0,1-1.74,10.538l38.3,38.875-.958.938L87.813,46.588a9.947,9.947,0,0,1-13.023,0l-17.2,17.435-.948-.938,17.174-17.43c-.135-.161-.271-.323-.4-.484l-.761-1.11a10.56,10.56,0,0,1-.6-1.188" transform="translate(217.996 94.094)" fill="url(#radial-gradient)"/>
          <path id="Caminho_9148" data-name="Caminho 9148" d="M91.09,59.218a4.616,4.616,0,0,1,.667-1.125L74.968,41.054l11.1,16.883Zm8.866,12.314,6.631-2.24-7.35-4.975a4.873,4.873,0,0,1-2.954,1.558V68.9a4.794,4.794,0,0,1,3.672,2.636m-11.1-41.693L77.208,18.009l-3.183,9.725L87.35,32.24a8.988,8.988,0,0,1,1.511-2.4m-2.2,6.584H77.208a6.558,6.558,0,0,1-1.479,3.5L92.7,57.155a4.909,4.909,0,0,1,2.25-.927V44.7a9.024,9.024,0,0,1-8.3-8.277m-9.449-1.339h9.449a8.225,8.225,0,0,1,.271-1.568L73.6,29.01l-.25.724a6.606,6.606,0,0,1,3.855,5.35m32.369,34.609,18.409,12.455-.75,1.115L107.983,70.23,100.4,72.793a3.571,3.571,0,0,1,.1.912,3.616,3.616,0,0,1-.1.927l-.422,1.261h-.026a4.846,4.846,0,0,1-8.345.6L91.017,75.3a5.082,5.082,0,0,1-.292-1.594,4.953,4.953,0,0,1,.292-1.584l.594-1.193a4.386,4.386,0,0,1,.8-.87l-1.88-2.881,1.115-.74,1.88,2.865a5.207,5.207,0,0,1,1.422-.412V65.875a4.8,4.8,0,0,1-2.25-.912l-.948-.938a4.8,4.8,0,0,1-1.026-2.964c0-.188.042-.359.052-.537L87.142,59.6l-1.115.74-.8-1.219-1.432-.359.328-1.3L73.7,41.58a6.494,6.494,0,0,1-8.553-2.266L54.923,44.492l-.609-1.182,10.22-5.188a6.628,6.628,0,0,1-.458-2.36,6.88,6.88,0,0,1,.188-1.474l.427-1.261a6.4,6.4,0,0,1,.927-1.448l.958-.943A6.512,6.512,0,0,1,70,29.229h1.344a5.516,5.516,0,0,1,.74.094l.24-.74-.979-.333.427-1.261.969.323,3.4-10.366-.479-.5.948-.938,1.459-4.4,1.271.406-1.662,5.068L89.814,28.9a9.219,9.219,0,0,1,2.37-1.448l1.281-.417a8.665,8.665,0,0,1,2.151-.271,8.883,8.883,0,0,1,5.8,2.136l14.07-14.283.958.938L102.7,29.5l16.58-12.6.8,1.057-16.929,12.9a8.954,8.954,0,0,1,1.453,4.9,8.791,8.791,0,0,1-1.2,4.449L125.881,55.4l-.75,1.11L102.644,41.319a8.935,8.935,0,0,1-6.36,3.375V56.228a4.9,4.9,0,0,1,4.157,4.157h23.514v1.339H100.44a5.108,5.108,0,0,1-.448,1.474l8.189,5.553.969-.323Z" transform="translate(228.611 46.771)" fill="url(#radial-gradient)"/>
          <path id="Caminho_9149" data-name="Caminho 9149" d="M140.542,200.857l-.089-.641-.161-.807Zm-38.526-27.3-15.3-21.737a7.084,7.084,0,0,1-1.344.6l9.137,37.063a6.14,6.14,0,0,1,.886-.094,6.52,6.52,0,0,1,1.365.161Zm39.7-49.038-4.037,16.4,5.475-16.643a4.386,4.386,0,0,1-.74-.453Zm-10.085.1a2.964,2.964,0,0,1-.328-.1l-.823,1.672Zm.5,3.178v-1.584l-1.521,2.047a4.967,4.967,0,0,1,1.521-.464m2.016,21.248-.677-5.511v5.443c.229.01.448.042.677.068m1.021-86.023-.844-1.714a4.54,4.54,0,0,1-.854.2v3.021a4.164,4.164,0,0,1,.854.2Zm1.292,154.449-2.943-1.505,7.355,10.455Zm1.719-35.76-1.9-15.507a7.158,7.158,0,0,1-1.083.365Zm.792-110.99-2.688-5.459-.281.417a4.864,4.864,0,0,1,1.683,3.662,4.538,4.538,0,0,1-.094.922Zm-3.052-9.23.7-1.406-.2-.13a4.565,4.565,0,0,1-.87.771Zm-.667,83.689,4.636-18.8-3.224,3.276a4.761,4.761,0,0,1,1.026,2.959,4.894,4.894,0,0,1-3.553,4.683Zm-4.287,69.5L101.687,199.82l40.131,30.556c.047-.042.089-.068.125-.1Zm-28.41-42.709.417-1.261-9.1-11.064Zm26.764,40.37-20.5-29.134-8.449,8.569a6.415,6.415,0,0,1,1.5,4.1,6.271,6.271,0,0,1-.438,2.308ZM108.99,181.13l1.375-1.4-2.7-3.282-.906,1.511Zm2.646-14.044-.417-.839c-.187.078-.385.141-.568.208l-3.542,7.189.375.469Zm3.724,7.569-3.016-6.126-3.954,6.688,2.928,3.553Zm.458-21.737,2.084-4.225-3.282,3.329a8.664,8.664,0,0,1,.583.74Zm10.7,44.371-10.527-21.368-3.839,3.891Zm-22.368-20.706-1.167-1.656-3.99,12.106Zm1.021,1.453-.13-.2-1.261,2.558Zm.333-4.214-1.542-1.875-.458,1.4,1.323,1.875Zm2.526,8.272-2.021-2.855-6.767,11.45a2.117,2.117,0,0,1,.167.146Zm-1.578-7.131-.74,1.5.208.3.828-1.417Zm-.292-2.453,2.808-5.683a7.812,7.812,0,0,1-1.1.078,9.15,9.15,0,0,1-2.151-.271l-1.25,3.8Zm28.16-44.522,3.631-7.355h-.391a4.807,4.807,0,0,1-4.094,4.084v3.079a3.781,3.781,0,0,1,.854.193M138.89,80.4c.036-.135.089-.255.125-.375L135,73.938l2.042,6.194Zm-9.772,122.173-17.9-21.79-1.443,1.459,22.092,31.39,3.589,1.823ZM126,132.264l1.412-2.865-3.073,4.667.406-.094Zm2-.453-.854,1.151-.214.443,1.037-.266a4.392,4.392,0,0,1-.052-.526,6.525,6.525,0,0,1,.083-.8m.286,2.641-2.136.537-3.37,6.855,6.162-6.261a5.814,5.814,0,0,1-.656-1.13m-28.7,20.008-10.246-5.188a7.213,7.213,0,0,1-1.115,1.4l15.231,18.55.979-2.99a8.993,8.993,0,0,1-5.542-8.3,8.752,8.752,0,0,1,.693-3.464m-10.241-13.2,38.907-19.748a5.348,5.348,0,0,1-.281-1.558,4.829,4.829,0,0,1,2.714-4.318l-4.412-13.413L88.691,140.364a6.045,6.045,0,0,1,.651.9m12.96,9.621L90.06,147.766a1.947,1.947,0,0,1-.109.307l10.231,5.2a9.275,9.275,0,0,1,2.12-2.4m14.059,22.764.021-.01-.135-.229Zm1.75-96.258-.7-2.136-4.193,1.417Zm-.656,79.865,1.3-2.2-2.2-.557-.229.438a8.581,8.581,0,0,1,.49,2.323Zm8.35-56.456L118.58,78.8l-8.157-1.182L64.416,93.191a6.376,6.376,0,0,1,.167,1.453,6.6,6.6,0,0,1-3.094,5.569L80.2,138.2a7.516,7.516,0,0,1,7.532,1.214Zm-1.948,57.795h-5.631l-4.589,7.761,3.714,6.293,8.7-8.824a8.85,8.85,0,0,1-2.2-5.23m12.174-77.25-15.976-2.318,6.8,20.706,11.418-11.59ZM119.585,77.6l15.987,2.318-1.906-5.782a4.247,4.247,0,0,1-.875.1,4.871,4.871,0,0,1-4.339-2.709l-9.762,3.292Zm4.37,78.766-3.849-.979-1.089,1.86h4.839c.026-.3.047-.589.1-.88M112.2,150.074l9.111-13.851-30.926,7.845a6.52,6.52,0,0,1,.115,1.193,6.983,6.983,0,0,1-.115,1.2l13.481,3.417a8.945,8.945,0,0,1,4-.953,8.822,8.822,0,0,1,4.339,1.146m8.621,4.115,3.464.875a8.975,8.975,0,0,1,7.84-6.089V137.426a4.48,4.48,0,0,1-1.209-.307Zm8.621-17.216-8.559,8.689-3.74,7.59,2.323.589Zm-9.673,7.9,2.886-5.834L114.017,150.7Zm3.474-9.142L121.763,138l1.714-2.323Zm-.839-1.172,7.22-10.991a5.144,5.144,0,0,1-.776-.844l-38.9,19.722a2.422,2.422,0,0,1,.109.328Zm18.742,78.355-7.564-46.053a7.738,7.738,0,0,1-.792.042,8.818,8.818,0,0,1-5.782-2.141l-8.954,9.074Zm-2.709,5.563,2.355,4.792,2.933,5.954a.247.247,0,0,0,.094-.026l-.578-3.568a4.857,4.857,0,0,1-2.865-4.443,5.09,5.09,0,0,1,.281-1.584Zm3.24-.589-8.835-10.757,4.61,9.35,3.8,1.927c.135-.188.281-.354.427-.521m-3.068-98.6,1.011-2.042-1.386.7-.724.979c.021.12.021.245.047.365h1.052m.714-32.229.886-.88a6.617,6.617,0,0,1-1.526-4.188,2.2,2.2,0,0,1,.021-.271l-1.193-.172Zm1.182,33.572h-1.063l-3.9,7.933.161.135,4.8-4.876.448-1.771a4.923,4.923,0,0,1-.448-1.422m-.844-42.058a4.322,4.322,0,0,1,.547-.75l-3.125-3.178Zm2.11-2.146-1.964-4.011-2.657-.9a5.029,5.029,0,0,1-.5.771l4.5,4.574c.2-.151.411-.3.62-.438m-8.121,38.787,6.756-20.56-1.672-5.079-11.408,11.585,4.626,14.054a5.719,5.719,0,0,1,.839-.083,5.66,5.66,0,0,1,.86.083M139.8,88.5l1.313,4,1.479-4.49a7,7,0,0,1-1.427-.886Zm.328,30.786h.385a4.765,4.765,0,0,1,1.9-3.2l.083-.286-.87.427Zm.146,94.737-23.191-39.2-.094.1,13.257,26.926Zm13.643-103.8c-.042-.052-.1-.109-.135-.161l-1.8.927-2.412,3.657ZM144.6,115.2v-.469l-.542.266-.073.333a2.631,2.631,0,0,1,.615-.13m0-39.735V74.047l-3.011-1.021,1.4,2.818a6.1,6.1,0,0,1,1.61-.38m7.73,22.389-4.766-9.7a6.922,6.922,0,0,1-1.386.349Zm-5.006,17.763,2.24-3.407-3.62,1.839V115.2a4.271,4.271,0,0,1,1.38.412m-1.38-3.073,5.1-2.584,1.281-1.99v-1.344h.646a4.787,4.787,0,0,1,1.584-2.933l-1.917-2.922-.948-.943.2-.2-5.954-9.059v11.976h-1.344V88.529a6.077,6.077,0,0,1-.745-.1l-2.042,6.22,2.6,7.918-1.271.417L141.1,96.8l-6.183,18.841a4.493,4.493,0,0,1,.74.458l.948.938a1.857,1.857,0,0,1,.135.161l.594-.3,1.766-2.381,1.073.787-.177.24.6-.307.74-1.516,1.25.511.313-.156.229-.927,1.354.13.109-.057v-.4Zm8.928-1.38-5.772,5.871a4.9,4.9,0,0,1,.995,2.927,4.832,4.832,0,0,1-4.829,4.829,5.45,5.45,0,0,1-.844-.083l-8.189,24.915a8.98,8.98,0,0,1,1.828,15.57l7.194,51.117h.01a4.886,4.886,0,1,1,0,9.772c-.1,0-.188-.026-.287-.026l.365,2.912a4.937,4.937,0,1,1-4.318,2.5L100.1,200.315a6.413,6.413,0,0,1-4.7,2.052,6.459,6.459,0,0,1-2.188-12.549l-9.126-37.063a8.579,8.579,0,0,1-1.156.094A7.557,7.557,0,0,1,79,138.827L60.28,100.822a6.454,6.454,0,0,1-2.3.432,6.58,6.58,0,0,1-2.667-12.6v-.016l1.271-.406a4.818,4.818,0,0,1,.729-.1H58.66c.083.01.151.01.24.026l3.422-13.877,1.292.323L60.2,88.476a6.584,6.584,0,0,1,3.782,3.443L107.5,77.2,64.651,70.974l.188-1.318,45.454,6.589L117,73.98l-3.553-10.835,1.255-.417,3.563,10.824L128,70.26a4.538,4.538,0,0,1-.094-.922,4.994,4.994,0,0,1,.167-1.193l.49-1.235h.021a4.849,4.849,0,0,1,3.542-2.381V61.509a4.877,4.877,0,0,1,.662-9.71,4.636,4.636,0,0,1,.875.1l1.271.417v.016a5.383,5.383,0,0,1,.766.453l4.506-4.558.948.943-3.146,3.188,1.662-1.13.75,1.115-3.256,2.214a4.781,4.781,0,0,1,.521,2.146,4.867,4.867,0,0,1-.521,2.146l.052.026,1.193.583-.078.172.042.016,5.11-7.777,1.115.74L139.479,60.4l5.121,3.469-.755,1.1-5.1-3.448-1.594,2.443,3.62,7.366,3.829,1.3V66.4h1.344v6.694l15.992,5.417-.417,1.266-15.575-5.266v.964a6.581,6.581,0,0,1,5.86,5.86h9.454v1.344H151.8a6.626,6.626,0,0,1-3.032,4.891l5,10.168,9.678-9.835.958.938L154.4,99l1.63,3.344,7.663-11.632,1.115.734-7.272,11.064c.073,0,.13-.026.208-.026a4.653,4.653,0,0,1,1.5.266l.01-.01,1.2.583a4.812,4.812,0,1,1-5.574,7.84" transform="translate(216.363 202.986)" fill="url(#radial-gradient)"/>
          <path id="Caminho_9150" data-name="Caminho 9150" d="M56.14,63.381a6.6,6.6,0,0,1,3.433-1.412h1.344a6.759,6.759,0,0,1,1.625.365l6.845-13.908,1.193.589-6.84,13.9a6.69,6.69,0,0,1,2.636,3.193l1.3.323-.583,2.37-.188,1.318-.13-.016-.906,3.636-1.292-.323a6.534,6.534,0,0,1-3.662,1.594V87.275H59.572V75.013a6.557,6.557,0,0,1-5.85-5.86h-.854V67.825h.854a6.574,6.574,0,0,1,.917-2.745l-3.771-2.891.8-1.052,1.485,1.13.964-.948Z" transform="translate(214.107 203.828)" fill="url(#radial-gradient)"/>
          <path id="Caminho_9151" data-name="Caminho 9151" d="M71.508,57.509a6.5,6.5,0,0,1,.458,2.36,6.568,6.568,0,0,1-1.531,4.172l1.281,1.3-.964.948-1.266-1.307c-.089.073-.135.12-.219.177l-.8,1.052-.391-.292-1.271.417-.01-.042a6.045,6.045,0,0,1-1.412.156,6.58,6.58,0,0,1-6.168-4.329l-.328-1.3a7.4,7.4,0,0,1-.1-.953,7.056,7.056,0,0,1,.1-.943l-12.2-9.277.823-1.073L59.236,57.5a7.674,7.674,0,0,1,.365-.755L47.51,48.57l.75-1.1,12.09,8.183a6.771,6.771,0,0,1,.886-.886l1.115-.745a6.634,6.634,0,0,1,3.032-.761,6.544,6.544,0,0,1,4.11,1.469l4.537-4.61.958.938-4.548,4.62a7.3,7.3,0,0,1,.469.609l5.662-2.865.6,1.193Z" transform="translate(196.509 199.809)" fill="url(#radial-gradient)"/>
          <path id="Caminho_9152" data-name="Caminho 9152" d="M67.581,10.416a6.565,6.565,0,0,1,11.929,5.443L92.074,22.24l.875-.443.6,1.193-.594,1.193-.886-.443-.886.443-.6-1.193L78.9,17.052a6.164,6.164,0,0,1-.469.615l.188.2-.958.938,3.693,5.6-1.136.734-3.834-5.829a6.364,6.364,0,0,1-3.016.761,6.579,6.579,0,0,1-4.11-1.464L39.816,48.494l-.953-.943L68.3,17.661a6.6,6.6,0,0,1-1.474-3.5V12.822a6.289,6.289,0,0,1,.12-.792L51.771,6.894,52.2,5.618l.505-1.245Z" transform="translate(163.577 18.406)" fill="url(#radial-gradient)"/>
          <path id="Caminho_9153" data-name="Caminho 9153" d="M92.979,116.27a4.807,4.807,0,0,1-4.089,4.089v.469l7.256-3.672a5.372,5.372,0,0,1-.219-.886Zm.458-59.6,2.954,3.016-1.177-1.813Zm6.579,54.174v-6.267l-7.97,8.105a4.909,4.909,0,0,1,.938,2.25h2.943a4.818,4.818,0,0,1,4.089-4.089m16.377-38.63-9.22-6.235a7.334,7.334,0,0,1-.344,1.38Zm26.368,59.753L128.1,87.308a9.834,9.834,0,0,1-7.381-.974L103.871,112a4.7,4.7,0,0,1,1.485,4.771ZM116.425,73.723l-10.2-5.178a6.568,6.568,0,0,1-4.87,2.964v29.8l16.8-17.039a10.04,10.04,0,0,1-1.729-10.543m17.07-2.209,8.637-5.86H109.106l8.647,5.86a9.955,9.955,0,0,1,15.742,0m10.569-5.537-9.215,6.235,9.574-4.855a6.646,6.646,0,0,1-.359-1.38M119.6,85.594c-.161-.12-.328-.26-.49-.385l-17.752,18.018v7.621a4.454,4.454,0,0,1,1.4.412ZM152.841,71.15a6.326,6.326,0,0,1-2.282.432,6.581,6.581,0,0,1-5.537-3.037L134.8,73.723a9.684,9.684,0,0,1,.807,3.912,10.735,10.735,0,0,1-.172,1.8L160,85.672ZM49.405,83.865c.245-.052.484-.068.74-.1h1.339c.245.031.5.047.734.1L58.2,65.654l1.271.417L53.5,84.3a6.573,6.573,0,0,1,3.912,6,6.5,6.5,0,0,1-.823,3.1L84.65,112.39a4.8,4.8,0,0,1,3.563-1.61,4.68,4.68,0,0,1,2.87.964l8.934-9.064V71.519a6.561,6.561,0,0,1-5.85-5.86V64.315a5.477,5.477,0,0,1,.115-.792l.422-1.261a6.2,6.2,0,0,1,.932-1.448L92.323,57.45a6.505,6.505,0,0,1-4.11,1.474,6.571,6.571,0,0,1-5.975-3.86L81.8,53.8c-.052-.255-.073-.526-.1-.792V51.668c.031-.266.052-.537.1-.792l.438-1.271a6.626,6.626,0,0,1,2.49-2.844l1.208-.589a6.623,6.623,0,0,1,1.375-.333l-.875-1.328,1.115-.734V31.222h1.344V45.807h.01a6.593,6.593,0,0,1,5.912,6.532,6.5,6.5,0,0,1-.333,1.969l1.719,2.6,1.453,1.005,1.281-.417.344,1.063a6.048,6.048,0,0,1,1.412-.161,6.584,6.584,0,0,1,6.527,5.912h36.823A6.472,6.472,0,0,1,152.43,58.7l.719-.484.75,1.115a6.119,6.119,0,0,1,.76.547l3.152-3.2.953.938-3.136,3.2a6.565,6.565,0,0,1,1.531,4.167,7.224,7.224,0,0,1-.177,1.474l-.427,1.266a6.714,6.714,0,0,1-.927,1.448l15.763,16.013-.948.938L154.68,70.108a7.388,7.388,0,0,1-.625.458L161.718,86.1l7.616,1.927-.323,1.3-6.517-1.646,7.892,16.028,2.438-7.407,1.266.417-2.849,8.7.6,1.235-1.193.583-5.475,16.627-1.271-.417,5.891-17.924-9-18.279-25.67-6.517a10.053,10.053,0,0,1-5.751,6.152l15.018,45.725,14.419,5.86-.49,1.235-13.377-5.417-1.255.417-.365-1.089L104.85,118.015a4.8,4.8,0,0,1-4.152,2.417,3.067,3.067,0,0,1-.49-.057l-4.548,18.477-1.3-.323,4.2-17.1-1.193-.589.615-1.255a5.082,5.082,0,0,1-1.229-1.224L88.9,122.349v12.043H87.556V123.021l-.6-1.193.6-.313V120.36a4.743,4.743,0,0,1-2.188-.9l-.958-.938a4.691,4.691,0,0,1-.505-5.027L55.854,94.5a6.653,6.653,0,0,1-.886.87l17.768,27.045-1.115.745L53.843,96.111a6.488,6.488,0,0,1-3.016.761,6.631,6.631,0,0,1-2.3-.422l-1.193-.594a6.506,6.506,0,0,1-.62-.453l-.953-.943a6.459,6.459,0,0,1-1.542-4.172,6.576,6.576,0,0,1,3.912-6v-.016Z" transform="translate(186.133 131.415)" fill="url(#radial-gradient)"/>
          <path id="Caminho_9154" data-name="Caminho 9154" d="M110.181,55.1l-5.568-11.3a4.628,4.628,0,0,1-1.5.255c-.063,0-.13-.016-.193-.016Zm9.3,6.532a3.988,3.988,0,0,1,.448.724l8.887-3.006-9.241-4.678a4.986,4.986,0,0,1-1.86,1.584ZM116.26,47.068a4.737,4.737,0,0,1,2.224.912l2.386-2.422-1.479-1.505L117.6,43.6a4.876,4.876,0,0,1-1.344.391Zm0,12.642a5.228,5.228,0,0,1,1.307.365l-1.115-3.391c-.063.01-.13.01-.193.026Zm20.357,11.241.4-.844a6.561,6.561,0,0,1-3.026-4.891h-13.32l.115.375Zm.677,1.636-3.85,7.819,4.9-7.459ZM134,63.873a6.006,6.006,0,0,1,.4-1.688L130.5,60.2l-10.126,3.433a1.884,1.884,0,0,1,.031.24ZM136.44,46.99l-2.157-.729-.313.109ZM135.3,60.2l-1.188-1.219-.406.13Zm8.585-12.1,1.365-5.537-8.876,3Zm2.24,13.007,2.578-3.912-3.136,3.162a7.155,7.155,0,0,1,.557.75m.219-9.892.141-.281-1.813-.469-.188.75h1.86M139.107,71.8l.5-.755a7.6,7.6,0,0,1-1.375-.349l-.333.682Zm2.318-13.757.417-1.677-6.329,2.146.9.912a6.549,6.549,0,0,1,4.11-1.474,6.437,6.437,0,0,1,.906.094m.792-3.219.563-2.266H129.653l4.818,4.891Zm1.979.75-.854.281-.609,2.506a.173.173,0,0,1,.083.026Zm1.49-3.016h-1.521l-.427,1.75,1.281-.443Zm1.13.714,1.365-.469a1.881,1.881,0,0,1-.01-.24h-1Zm1.406-13.361h-.948l-.146.6,1.125-.391a1.636,1.636,0,0,0-.031-.214m.479,1.49-1.948.656-1.6,6.48,2.146.724,2.985-6.037A4.809,4.809,0,0,1,148.7,41.4m1.469-18.815a9.126,9.126,0,0,1-3.073-1.729L129.653,38.562h16.57ZM151.489,43.8l-2.9,5.886.052.026a4.832,4.832,0,0,1,3.672-2.646V43.985a5.393,5.393,0,0,1-.823-.188m-.021-20.9-3.86,15.674h.615a4.823,4.823,0,0,1,4.089-4.089V23c-.281-.026-.557-.052-.844-.1m-2.339,31.952a4.854,4.854,0,0,1-.49-.776l-2.657.9-1.969,4.011c.208.13.4.281.6.438Zm1.771,1.438-4.12,6.277a6.442,6.442,0,0,1,.328,1.985,6.853,6.853,0,0,1-.167,1.464l5.371,1.823V56.716a5.224,5.224,0,0,1-1.412-.432m35.406-9.293L169.747,41.4a4.51,4.51,0,0,1-.833,1.182Zm10.033,4.225a2.576,2.576,0,0,1,.031-.281l-28.764-7.293,2.5,7.574ZM160.7,38.567a4.784,4.784,0,0,1,2.052-3.323L156.4,22.357a9.163,9.163,0,0,1-2.735.641V34.478a4.785,4.785,0,0,1,4.089,4.089Zm.125,1.959a2.971,2.971,0,0,1-.125-.62h-2.339Zm-.01,10.689,2.516-7.668a5.5,5.5,0,0,1-.755-.443l-5.735,5.824a4.72,4.72,0,0,1,.958,2.292h3.016Zm49.84-13.153-49.523-20.1a9.15,9.15,0,0,1-3.542,3.808l6.365,12.9a4.919,4.919,0,0,1,1.5-.255,4.812,4.812,0,0,1,4.756,4.157h40.355c.036-.177.057-.354.094-.51M155.9,47.98l5.746-5.834a.049.049,0,0,1-.031-.042l-4.152-1.047a4.839,4.839,0,0,1-3.8,2.927v3.079a4.8,4.8,0,0,1,2.235.917m8.7-4.006-2.37,7.241h6.459L166.3,43.974a4.46,4.46,0,0,1-.844.078,4.767,4.767,0,0,1-.865-.078m5.6-3.85,26.686,9.027a6.53,6.53,0,0,1,10.074-2.386l4.558-4.615a4.9,4.9,0,0,1-.948-2.24H170.21c-.005.068-.005.141-.016.214M124.251,80.61l.052-.016L119.828,66.93a4.808,4.808,0,0,1-1.505,1.646Zm7.933-35.052-7.053-2.386-.771.766,7.235,1.839Zm-3.86-5.652-2.157,2.2,8.121,2.75,11.335-3.834.276-1.115Zm-2.75,40.271a9.827,9.827,0,0,1,6.277.432l4.162-8.449-14.695-4.975Zm6.069-33.015-5.48,1.849,2.157,2.2h14.8l.25-1.073Zm-3.86-8.595L146.15,19.913c-.115-.12-.208-.229-.307-.349L119.9,37.114a4.88,4.88,0,0,1,.438,1.448h7.444Zm-13.908,8.756-5.542-3.756,4.35,4.412a4.358,4.358,0,0,1,1.193-.656m-6.438-5.98,7.485,5.053V43.985a4.827,4.827,0,0,1-3.193-1.88l-4.146-1.047c-.047.1-.1.193-.146.286m1.047-1.438,2.479.62a3.354,3.354,0,0,1-.13-.62Zm-2.667,3.313,5.339,10.824,2.907,5.871a4.357,4.357,0,0,1,.854-.2v-3a4.955,4.955,0,0,1-3.73-2.683,4.807,4.807,0,0,1,.531-5.11l-5.751-5.824a1.013,1.013,0,0,1-.151.125m17.888,5.2-1.886-1.907-2.36,2.4a4.642,4.642,0,0,1,.479.792Zm0-5.74L119.886,41.4a4.065,4.065,0,0,1-.495.75l.688.7,2.782.7Zm7.017,16.028-9.111-6.152h-1.2a5.173,5.173,0,0,1-.219.912L130.6,58.757Zm-8.694-7.5h4.428L124.746,49.5l-3.506,1.182Zm5.756,1.339h-3.771l8.3,5.621.75-.255Zm1.464-5.99-5.97-1.521-.516.516,2.365,2.4Zm-8.923-6.438,4.422,1.505,1.709-1.719h-6.11a1.555,1.555,0,0,1-.021.214m108.6,3.792a5.075,5.075,0,0,1-1.125.135c-.1,0-.177-.016-.271-.016l-.615,3.162,4.714,3.594Zm-5.673-3.12a5,5,0,0,1-.219-.886h-2.943a5.144,5.144,0,0,1-.563,1.677l.854.656Zm2.469,5.511.5-2.537a4.857,4.857,0,0,1-1.813-1.115l-1.74,1.318ZM256.009,81.1a9.841,9.841,0,0,1-.8-3.9,9.956,9.956,0,0,1,1.662-5.511L234.647,54.773l12.2,30.973Zm-41.35,12.325V50.074l-5.72,4.355a6.61,6.61,0,0,1-3.87,3.636l8.746,35.463c.281-.047.557-.078.844-.1m0-48.272V43.985a4.633,4.633,0,0,1-2.188-.886l-4.548,4.615a5.682,5.682,0,0,1,.469.62Zm0,3.245v-1.74L209,49.522a6.611,6.611,0,0,1,.458,2.365c0,.172-.047.333-.057.51Zm1.766,45.069,9.012-45.7-3.87-2.948L216,49.053V93.424c.141.016.276.026.422.042m1.313.271a9.061,9.061,0,0,1,5.381,4.063L245.664,86.36,232.589,53.215l-5.97-4.548Zm1.323-50.825-.339-.255a4.726,4.726,0,0,1-2.714,1.328v.479Zm1.4,1.063-.219-.167L216,45.969v1.4Zm37.224,26.655.052-.052L230.667,43.1c-.151.109-.328.219-.49.313l3.521,8.96Zm7.511,16.56a9.884,9.884,0,0,1-3.8-.766l-4.11,8.34-1.193-.589,4.1-8.345a10.076,10.076,0,0,1-3.563-3.537L247.351,87l2.724,6.923-1.235.495-2.7-6.8L223.734,98.987a9.835,9.835,0,0,1,.677,2.844h19.367v1.339H224.411a9,9,0,0,1-2.25,5.313l8.032,8.152-.948.938-8.032-8.137a8.8,8.8,0,0,1-2.417,1.474l3.683,11.236-1.266.417-3.688-11.236a8.32,8.32,0,0,1-1.526.24v9.72h-1.344v-9.72a9.087,9.087,0,0,1-7.709-5.527l-15.065,5.094-.427-1.261,15.065-5.11a8.836,8.836,0,0,1-.26-1.6v-1.339a8.91,8.91,0,0,1,1.188-3.865l.75-1.11a9.083,9.083,0,0,1,4.318-3.006l-8.741-35.469h-.036l-1.354,1.016-.8-1.057a6.8,6.8,0,0,1-2.834-1.344l-.958-.938a6.577,6.577,0,0,1-1.453-3.511h-25.8l5.235,15.929-1.281.417-5.36-16.346h-7.345l-.141.422-1.266-.412h-2.573a4.713,4.713,0,0,1-.959,2.292l2.068,2.1-.948.938-2.078-2.1a4.87,4.87,0,0,1-2.24.927V68.28l.427.146-.427,1.261v.979h-1.344V69.233l-5.819-1.959a5.972,5.972,0,0,1-.927,1.432l3.323,3.365-.958.943-3.313-3.355a6.584,6.584,0,0,1-3.433,1.4l-.755,1.182,6.584,2.224-.427,1.261-6.923-2.334-5.579,8.5a9.986,9.986,0,0,1,2.552,2.855l.609,1.182a9.974,9.974,0,0,1,.8,3.917,10.112,10.112,0,0,1-.167,1.8L166.434,98.9l-.328,1.3-28.556-7.256c-.089.281-.2.547-.307.818l32.234,16.362,2.6-2.641-3.735-5.7,1.115-.74,3.589,5.459,1.016-1.031.948.938-1.214,1.245.156.229-1.115.74-2.115,2.131,3.2,1.625-.594,1.193-3.584-1.813-.3.313-.958-.938L136.622,94.966A10.065,10.065,0,0,1,134.07,97.8l14,21.321-1.115.74L132.95,98.544a9.749,9.749,0,0,1-4.907,1.3,9.91,9.91,0,0,1-3.792-.755l-4.068,8.22-1.188-.589,4.047-8.236a10.007,10.007,0,0,1-4.615-5.99L70.5,102.217c0,.109.026.188.026.292a4.77,4.77,0,0,1-1.005,2.912l4.548,4.626-.953.938-4.548-4.61a4.75,4.75,0,0,1-6.438-.641l-.453.313,8.47,4.3-.6,1.193L60.4,106.9l-.6.417-.75-1.1.6-1.193.651.333,1.073-.74a5.214,5.214,0,0,1-.443-1.432H57.981v-1.339h2.948a4.843,4.843,0,0,1,2.058-3.329l-2.1-4.266,1.2-.589,1.271-.417,1.495,4.521a5.79,5.79,0,0,1,.844-.083,4.8,4.8,0,0,1,4.532,3.219l47.929-9.72a8.02,8.02,0,0,1-.1-1.328,9.789,9.789,0,0,1,.339-2.547L57.6,66.727l.427-1.261,60.785,20.571a10,10,0,0,1,4.23-4.813L117.1,69.17a4.941,4.941,0,0,1-1.526.266,4.886,4.886,0,0,1-4.891-4.881,4.821,4.821,0,0,1,1.693-3.662l-11.4-17.336A4.826,4.826,0,0,1,98.3,39.479l-.818-1.235,1.136-.734a4.022,4.022,0,0,1,.667-1.182L94.929,31.9l.958-.938,4.36,4.412a4.793,4.793,0,0,1,6.808,1.11l.8-.417.6,1.193-.8.4c.094.3.151.589.219.9h2.943a3.879,3.879,0,0,1,.219-.9l-.813-.4.594-1.193.8.4A4.812,4.812,0,0,1,119.151,36l24.608-16.638L110.832,36.077l-.6-1.193L144.6,17.439a8.98,8.98,0,0,1-.708-3.516c0-.083.01-.161.01-.24L34.759,2.609l.135-1.344L144.03,12.339a9.1,9.1,0,0,1,18.07,1.584,8.957,8.957,0,0,1-.448,2.792l49.523,20.117a4.8,4.8,0,0,1,8.923,1.74h2.943a4.815,4.815,0,1,1,8.59,3.584L258.7,69.634a9.99,9.99,0,0,1,15.711,11.481l10.21,5.188-.594,1.193-10.241-5.188a9.681,9.681,0,0,1-2.537,2.839l5.391,8.22-1.136.74-4.891-7.47,3.849,7.819,1.042-.349.448,1.261-.886.313.328.667-1.2.589-.417-.828-.156.052-.437-1.261-4.162-8.465a10.082,10.082,0,0,1-3.818.755" transform="translate(146.303 5.324)" fill="url(#radial-gradient)"/>
          <path id="Caminho_9155" data-name="Caminho 9155" d="M50.552,15.546a6.352,6.352,0,0,1-3.417-1.412l-3.318,3.355-.953-.938,3.3-3.355a7.05,7.05,0,0,1-1.115-1.917l-9.47,2.4-.339-1.3,9.491-2.412a7.88,7.88,0,0,1-.094-.953,6.627,6.627,0,0,1,.458-2.36L40.227,4.185l.6-1.193L45.7,5.462c.083-.135.188-.255.281-.391l.51-1.235.469.188A6.551,6.551,0,0,1,57.766,8.41l10.215,4.141L67.476,13.8,57.74,9.843c-.026.214-.057.427-.094.63L67.476,13.8l-.432,1.276-9.829-3.329a6.574,6.574,0,0,1-5.324,3.8V21H50.552V15.546" transform="translate(148.315 10.228)" fill="url(#radial-gradient)"/>
          <path id="Caminho_9156" data-name="Caminho 9156" d="M53.341,29.343a4.9,4.9,0,0,1-2.209-.755l-.3-.109L35.588,43.954l-.953-.938L49.413,27.993l-3.808-1.287.427-1.261L49.4,26.587a4.874,4.874,0,0,1-.391-1.37H46.058V23.878h2.948a4.8,4.8,0,0,1,4.079-4.094h1.339a4.785,4.785,0,0,1,4.089,4.094v1.339a4.465,4.465,0,0,1-.2.886l1.865.953-.6,1.193-1.86-.953a4.863,4.863,0,0,1-1.735,1.516l.87.3-.432,1.261Z" transform="translate(145.781 83.272)" fill="url(#radial-gradient)"/>
          <path id="Caminho_9157" data-name="Caminho 9157" d="M53.817,57.789a10.632,10.632,0,0,1,.156,1.735,9.888,9.888,0,0,1-.8,3.9l-.6,1.2h-.016A9.978,9.978,0,0,1,34.33,56.961l.432-1.276a9.993,9.993,0,0,1,4.225-4.8v-.01l1.193-.594a10.51,10.51,0,0,1,3.141-.724h1.344a10.845,10.845,0,0,1,1.177.151L44.665,48.5l.953-.943,3.125,3.162a10.286,10.286,0,0,1,3.12,2.657L57,49.9l.75,1.115-5.131,3.469c.068.13.146.255.214.391l1.943,1.969Z" transform="translate(143.096 200.154)" fill="url(#radial-gradient)"/>
          <path id="Caminho_9158" data-name="Caminho 9158" d="M43.6,54.651l.708-.484.755,1.115a7.574,7.574,0,0,1,.776.552l3.146-3.209.953.948-3.146,3.2a6.488,6.488,0,0,1,0,8.361l6.746,6.84-.953.938-6.741-6.839a7.3,7.3,0,0,1-.62.458l5.178,10.5-1.193.594L44.023,67.111a6.39,6.39,0,0,1-2.282.432A6.62,6.62,0,0,1,36.2,64.512l-.6-1.193a6.964,6.964,0,0,1-.349-1.38l-.75-1.115.714-.484a6.5,6.5,0,0,1,1.474-3.573l.953-.938a6.15,6.15,0,0,1,.6-.458L31.568,41.79l1.193-.589,6.694,13.58a6.487,6.487,0,0,1,2.292-.427,7.007,7.007,0,0,1,1.854.3" transform="translate(132.872 173.418)" fill="url(#radial-gradient)"/>
          <path id="Caminho_9159" data-name="Caminho 9159" d="M86.763,122.561l7.314-22.269a6.774,6.774,0,0,1-2.349-1.813L74.241,110.315,80.492,123a9.591,9.591,0,0,1,3.792-.761,9.919,9.919,0,0,1,2.48.318M88.1,123l11.142-22.639a6.344,6.344,0,0,1-3.891.339L88.04,122.978,88.1,123m2.881-25.623a6.614,6.614,0,0,1-.807-3.115,6.809,6.809,0,0,1,.172-1.459l-25-8.465a6.55,6.55,0,0,1-2.5,2.844L73.637,109.1ZM103.1,92.557l2.641-5.365,1.193.594-3.683,7.491a6.493,6.493,0,0,1-.714,2.1l14.507,9.814-.75,1.1-.823,1.073L101.562,98.761c-.026.026-.042.068-.068.094L89.29,123.6a10.03,10.03,0,0,1,4.49,5.537l33.89-8.59.328,1.3-33.885,8.59a10.589,10.589,0,0,1,.13,1.13H137.39l-1.8-5.511,1.271-.417,1.943,5.928h.448v1.339l5.975,18.216-1.271.406-6.131-18.622H94.249a9.985,9.985,0,1,1-19.143-4.568l-7.162-3.646.6-1.2,7.168,3.652a10.054,10.054,0,0,1,1.115-1.516l-7.637-7.767.948-.938,7.647,7.751a10.65,10.65,0,0,1,1.505-1.073L73.121,111.1l-.75-1.115.161-.109L61.645,87.8a6.338,6.338,0,0,1-1.61.354v18.523l.953.964-.953.943v1.057H58.692v-2.417l-.953-.979.953-.938V88.15a6.446,6.446,0,0,1-3.438-1.406l-.161.161-.953-.948-3.928,2.657-.75-1.12,4.12-2.771a6.38,6.38,0,0,1-.818-3.1,6.649,6.649,0,0,1,.453-2.36l.6-1.2a6.589,6.589,0,0,1,4.87-2.969V48.478a4.668,4.668,0,0,1-2.24-.912l-.953-.938a4.809,4.809,0,0,1-1.037-2.964,4.653,4.653,0,0,1,.1-.912L30.344,34.544l.417-1.261L55,41.477a4.876,4.876,0,0,1,3.688-2.641h1.344a4.559,4.559,0,0,1,.859.2l.01-.016,1.193.594a4.858,4.858,0,0,1,2.078,3.375H90.243v1.344H64.177a4.862,4.862,0,0,1-4.141,4.141V75.091a6.589,6.589,0,0,1,5.912,6.532,6.507,6.507,0,0,1-.177,1.464l25.014,8.46a6.573,6.573,0,0,1,5.975-3.86,6.339,6.339,0,0,1,1.412.156l6.194-18.883L103.8,67.23l1.276-.417,2.214-6.73,1.276.417-2.782,8.46,2.042,6.225-1.276.417-1.474-4.49L99.447,88.26a6.2,6.2,0,0,1,1.422.9l3.308-3.365.953.943-3.318,3.36a6.793,6.793,0,0,1,1.292,2.459" transform="translate(127.72 140.09)" fill="url(#radial-gradient)"/>
          <path id="Caminho_9160" data-name="Caminho 9160" d="M43.879,37.114H57.532v1.339H43.879a6.578,6.578,0,0,1-3.042,4.9l-1.193.589a6.628,6.628,0,0,1-2.292.427,6.925,6.925,0,0,1-1.406-.146L35,47.089l9.012,9.158-.953.938-8.543-8.663-1.261-.412.219-.656-.1-.094-1.193-.589.2-.417-.333-.333.953-.938.86-1.729c-.214-.135-.417-.3-.615-.443l-.953-.953a6.622,6.622,0,0,1-1.474-3.5H29.648V37.119h1.177a6.563,6.563,0,0,1,3.042-4.9v-.016l1.193-.589a7.014,7.014,0,0,1,2.292-.427,6.541,6.541,0,0,1,5.032,2.386L67.419,16.642l.75,1.115L43.134,34.691a6.515,6.515,0,0,1,.745,2.422" transform="translate(124.79 70.047)" fill="url(#radial-gradient)"/>
          <path id="Caminho_9161" data-name="Caminho 9161" d="M45.858,21.567a8.962,8.962,0,0,1,0,15.461l5.621,11.408-1.193.589L44.65,37.616a8.494,8.494,0,0,1-2.677.63v11.6H40.628v-11.6a8.981,8.981,0,0,1-8.272-8.272V28.641a8.209,8.209,0,0,1,.255-1.568l-6.866-2.334.432-1.261L33.044,25.8a8.962,8.962,0,0,1,4.829-4.787L36.4,16.556l1.276-.417,1.474,4.454a8.374,8.374,0,0,1,1.474-.24h1.344a8.493,8.493,0,0,1,2.677.63l4.12-8.34,1.193.589Z" transform="translate(108.367 53.219)" fill="url(#radial-gradient)"/>
          <path id="Caminho_9162" data-name="Caminho 9162" d="M82.414,26.571a4.35,4.35,0,0,1-.875-.792l-1.167.792L76.3,38.99Zm1.875-11.892-1.13,3.391a4.939,4.939,0,0,1,1.318-.359h1.339a4.806,4.806,0,0,1,1.328.359l-1.125-3.391,1.276-.417,1.766,5.36a4.872,4.872,0,0,1,.979,2.912v.052l5.24,15.987-1.271.417L89.384,24.925a4.714,4.714,0,0,1-1.49,1.646L94.009,38.99l-1.2.589L86.675,27.15a4.156,4.156,0,0,1-.859.2V43.079H84.477V27.353a4.124,4.124,0,0,1-.849-.2l-8.23,16.7a4.855,4.855,0,0,1,2.052,3.329v1.339c-.01.068-.01.151-.026.229L77,50h-.016a4.832,4.832,0,0,1-4.287,2.667,4.593,4.593,0,0,1-1.505-.271L64.781,65.421a7.849,7.849,0,0,1,1.245.886l.953.938c.094.109.188.219.271.333h.01l.75,1.115a8.912,8.912,0,0,1-1.037,10.35L66.021,80a9.706,9.706,0,0,1-2.375,1.448L71.808,106.3l-1.271.417L62.369,81.86a9.593,9.593,0,0,1-2.162.266,8.949,8.949,0,0,1-7.668-4.334h-.016l-.6-1.193a9.443,9.443,0,0,1-.672-2.792H40.028a4.847,4.847,0,0,1-.792,2.078l-1.287,3.891-1.276-.417.6-1.849a4.272,4.272,0,0,1-1.339.385v1.37H34.595V77.9a4.812,4.812,0,0,1-4.089-4.089H27.568V72.463h2.948c.01-.068.01-.146.026-.224L27.177,71.1l.427-1.261,3.381,1.141a4.839,4.839,0,0,1,3.62-2.6h1.344a4.428,4.428,0,0,1,.833.2l5.8-11.762,1.193.589L38,69.15a4.859,4.859,0,0,1,1.49,1.677l4.167-12.668,1.261.412L40.361,72.463h10.9a9.029,9.029,0,0,1,2.2-5.23l.953-.938a8.2,8.2,0,0,1,1.245-.886L50.034,53.987l1.193-.589,5.631,11.408a8.9,8.9,0,0,1,6.709,0l6.4-12.991A4.837,4.837,0,0,1,67.928,48.5V47.163a4.8,4.8,0,0,1,4.761-4.157,5.146,5.146,0,0,1,.844.083L78.559,27.8l-.75-1.115,1.438-.979,1.021-3.125v-.052a4.882,4.882,0,0,1,.521-2.162l-.146-.094.75-1.115,1.625-4.907Z" transform="translate(114.39 59.988)" fill="url(#radial-gradient)"/>
          <path id="Caminho_9163" data-name="Caminho 9163" d="M124.243,77.2l.427-.438-1.813-3.688a4.8,4.8,0,0,1-.859.2v3.016a4.669,4.669,0,0,1,2.245.906m1.094,1.115.083-.042-.125-.24-.1.1c.042.068.1.12.146.177m.792,3.7,1.375.469-1.49-3-.083.042a4.71,4.71,0,0,1,.281,1.584,4.447,4.447,0,0,1-.083.906m6.063-12.9h-6.048a4.858,4.858,0,0,1-2.078,3.381l1.6,3.245ZM127.27,93.093a6.434,6.434,0,0,1,1.479-3.511l-4.506-4.568a4.938,4.938,0,0,1-2.245.922V93.1h5.272Zm1.479,4.839a6.4,6.4,0,0,1-1.479-3.5H122v10.34Zm.406,7.8.479-1.422-4.225,1.422Zm.542-17.091c.2-.161.385-.313.6-.458l-1.969-4-2.641-.9a5.792,5.792,0,0,1-.5.776Zm.458,14.075.974-2.943a5.524,5.524,0,0,1-1.427-.9l-5.912,6.006Zm6.256-15.8-6.287-2.131,1.386,2.8a6.929,6.929,0,0,1,2.287-.432,6.7,6.7,0,0,1,2.282.432Zm-9.8-9.246L141.73,70a3.557,3.557,0,0,1-.219-.886h-7.433l-7.777,7.9Zm15.794-18.909a1.146,1.146,0,0,1-.146-.188l-16.33,8.282a4.646,4.646,0,0,1,.219.912h7.371Zm1.146,13.674a4.985,4.985,0,0,1-1.24-1.235l-15.091,7.673,2.073,4.209,7.73,2.62Zm3.391-8.741a4.807,4.807,0,0,1,2.891,1.531l2.875-1.948L149.168,59.7a4.684,4.684,0,0,1-2.224.912Zm4.412,11.278,5.777-5.86h-6.11a4.878,4.878,0,0,1-1.584,2.948ZM137.9,88.645l.906-.912-1.1-.38-.417.833a5.882,5.882,0,0,1,.615.458m6.282,9.329-4.4-1.49a6.594,6.594,0,0,1-5.985,3.86,6.035,6.035,0,0,1-1.406-.161l-.656,2Zm-4.339-11.3,9.762-9.908-1.834-3.745a5.212,5.212,0,0,1-1.505.255,5,5,0,0,1-1.5-.255L138.3,86.134ZM143.366,59.7l-7.959,8.074h6.11a4.774,4.774,0,0,1,4.089-4.079V60.615a4.719,4.719,0,0,1-2.24-.912M88.019,73.57a6.393,6.393,0,0,1-6.381,1.047l-3.9,7.913,25.144,8.5a6.623,6.623,0,0,1,.927-1.453Zm64.889-20.722-4.454-13.533a8.9,8.9,0,0,1-1.505.245V50.973a4.847,4.847,0,0,1,3.672,2.641Zm4.225,14.929-3.48-3.511-3.068,2.073a4.908,4.908,0,0,1,.438,1.438Zm-3.3-5.261,1.844-1.245-2.349-7.152-2.271.766a4.329,4.329,0,0,1,.094.912,4.958,4.958,0,0,1-1.005,2.964Zm2.276.083-1.323.9,2.407,2.443ZM120.659,73.273a4.8,4.8,0,0,1-.86-.2L116.935,78.9l.036.026a4.852,4.852,0,0,1,3.688-2.641Zm-40.23.75a5.822,5.822,0,0,1-.6-.453l-4.506,4.568A4.892,4.892,0,0,1,76.346,81.1a4.1,4.1,0,0,1-.094.912l.214.078Zm38.755-9.949-8.913-27.155a6.051,6.051,0,0,1-1.412.167,6.536,6.536,0,0,1-3.011-.766L88.066,63.365a6.571,6.571,0,0,1,2.386,4.412h26.056a4.908,4.908,0,0,1,2.677-3.7m-8.032,23.519,3.886-7.913-25.129-8.5a6.765,6.765,0,0,1-.922,1.448l15.768,16.013a6.514,6.514,0,0,1,4.1-1.479,7.134,7.134,0,0,1,2.3.432m1.813,1.052,4.506-4.574a4.812,4.812,0,0,1-1.037-2.959,5.248,5.248,0,0,1,.094-.912l-.2-.068-3.969,8.058a6.09,6.09,0,0,1,.6.453M141.9,53.655l-28-18.945a6.923,6.923,0,0,1-2.349,1.8l8.913,27.139a6.006,6.006,0,0,1,.875-.078,4.857,4.857,0,0,1,4.006,2.1l16.32-8.288a5.461,5.461,0,0,1-.281-1.584,4.9,4.9,0,0,1,.521-2.146M120.659,94.432h-5.272a6.5,6.5,0,0,1-1.474,3.5l6.746,6.84V94.432m-5.272-1.339h5.272V85.931a4.938,4.938,0,0,1-2.245-.922l-4.5,4.568a6.561,6.561,0,0,1,1.474,3.516m21.8-61.941h-21.8a6.529,6.529,0,0,1-.75,2.443l28.014,18.945a4.853,4.853,0,0,1,2.943-1.563V39.565a9.128,9.128,0,0,1-8.407-8.413m-21.8-1.339h21.8a9.1,9.1,0,0,1,12.491-7.767l1.188.589v.01a9,9,0,0,1,4.2,10.111l19.367,6.558-.417,1.266-19.367-6.543a9.134,9.134,0,0,1-4.923,4.865l4.438,13.518.432,1.261,2.219,6.813,18.227-12.319.761,1.11L157.269,61.823l1.761,5.376.948.938-.479.5,9.949,30.291-1.281.417-8.762-26.7H158.06V70.085l-5.949,6.053L158.06,85.2l-1.115.734-5.292-8.048,4.792,9.71-1.208.589-5-10.147-8.986,9.1,11.491,3.9-.438,1.271-12.1-4.1-1.354,1.38a6.481,6.481,0,0,1,1.453,3.511h11.9v1.344H140.313a4.021,4.021,0,0,1-.1.792l6.058,2.042,6.043-2.042.438,1.261-4.391,1.49,16.857,5.714-.422,1.261L146.262,98.7l-15.054,5.094-.646,1.959h34.109V107.1H130.114l-.13.417-1.271-.417h-6.72v18.112h-1.339V110.622l-1.276-.417,1.182-3.594-7.6-7.72a5.869,5.869,0,0,1-1.422.9l5.631,17.148-1.276.417-5.631-17.148a6.049,6.049,0,0,1-1.412.161,6.557,6.557,0,0,1-6.511-5.912V93.114a5.674,5.674,0,0,1,.1-.792l-25.3-8.569-2.948,5.98L73,89.14l2.86-5.819-.052-.01a4.877,4.877,0,0,1-3.672,2.641v3.006H70.793V85.952A4.89,4.89,0,0,1,66.636,81.8V80.456a5.047,5.047,0,0,1,.458-1.479L39.08,60.031a6.525,6.525,0,0,1-4.355,2.308v9.725H33.381V62.339A6.532,6.532,0,0,1,29,51.639l.953-.938a6.6,6.6,0,0,1,3.433-1.412h1.344a6.831,6.831,0,0,1,.74.094l1.276.417v.01A6.618,6.618,0,0,1,39.6,52.254l11.116-5.631.6,1.193L40.2,53.463a6.291,6.291,0,0,1-.359,5.459L67.855,77.872a4.966,4.966,0,0,1,1.479-1.115v-.016l1.271-.417a4.832,4.832,0,0,1,3.782.9l4.49-4.568a6.481,6.481,0,0,1,0-8.355L64.813,50.019l.953-.953L79.851,63.36a6.458,6.458,0,0,1,4.089-1.474,6.6,6.6,0,0,1,3.032.766L104.74,35.6a6.589,6.589,0,0,1-2.443-5.094,6.937,6.937,0,0,1,.172-1.464L88.207,24.229,66.8,38.711l-.75-1.115L86.608,23.677l.432-1.261L88,22.74l1.755-1.182.75,1.1-.932.6,10.658,3.6.6-1.193,2.5,1.261a5.374,5.374,0,0,1,.469-.62l.953-.938a6.509,6.509,0,0,1,4.1-1.474,6.588,6.588,0,0,1,6.527,5.918m.255,48.663L118.6,72.5a4.911,4.911,0,0,1-2.094-3.381H90.447c-.026.271-.052.537-.1.8Z" transform="translate(115.619 89.99)" fill="url(#radial-gradient)"/>
          <path id="Caminho_9164" data-name="Caminho 9164" d="M83.488,51.136H107V52.48H83.488a9.269,9.269,0,0,1-.266,1.61l-.417,1.261a9.136,9.136,0,0,1-7.72,5.537v19.19H73.742V60.887a9.1,9.1,0,0,1-7.105-4.37l-8.866,4.49-.6-1.193,8.85-4.49a4.534,4.534,0,0,1-.224-.63L55.041,57.418l-.323-1.292L65.46,53.4a8.37,8.37,0,0,1-.151-1.584,9.085,9.085,0,0,1,.443-2.792L17.88,29.576l.495-1.235,47.887,19.43a9.09,9.09,0,0,1,7.48-5.027h1.344a9.1,9.1,0,0,1,8.4,8.392" transform="translate(75.258 119.289)" fill="url(#radial-gradient)"/>
          <path id="Caminho_9165" data-name="Caminho 9165" d="M61.751,67.281l-.6,1.2-13.262-6.73a6.6,6.6,0,0,1-2.052,2l-1.193.589a6.517,6.517,0,0,1-2.292.438,7.316,7.316,0,0,1-1.406-.156L40,67.489,50.713,78.381l-.948.938L39.519,68.927l-1.261-.411.219-.662-.484-.495.953-.938.724-2.229a6.6,6.6,0,0,1-3.85-5.339H34.643V57.508H35.82a6.453,6.453,0,0,1,.755-2.427l-6.022-4.073v2.417H29.21V50.1l-.75-.51.75-1.1h1.344v.9l6.772,4.589a6.523,6.523,0,0,1,5.027-2.386,6.6,6.6,0,0,1,4.1,1.474L63.439,35.844l.953.938L47.416,54.013a6.466,6.466,0,0,1,1.542,4.167,6.745,6.745,0,0,1-.453,2.365Z" transform="translate(119.79 150.87)" fill="url(#radial-gradient)"/>
          <path id="Caminho_9166" data-name="Caminho 9166" d="M40.584,31.234H52.237l.844-3.474L40.558,30.952c.01.094.01.188.026.281M37.245,39.9l-.9-1.839a6.463,6.463,0,0,1-1.625.359v2.1ZM56.779,12.783a6.584,6.584,0,0,1-1.891-1.073L39.105,27.717a6.165,6.165,0,0,1,1.11,1.933l13.236-3.365ZM66.948,24.248,54.555,27.4l-.938,3.834H64.937v1.339H53.284l-.859,3.459-1.287-.323.766-3.141H40.584a6.572,6.572,0,0,1-3.032,4.891l1.021,2.094.281-.068.323,1.292L42.72,47.96l-1.193.589L37.85,41.11l-3.125.8v8.564l3.23,1.636-.615,1.177-2.615-1.313H33.38v-.682l-.6-.307.6-1.193V42.261l-.323-1.3.323-.083V38.422a6.62,6.62,0,0,1-3.433-1.4l-.953-.953a6.554,6.554,0,0,1,9.163-9.293L53.94,10.767A6.491,6.491,0,0,1,52.4,6.595a6.592,6.592,0,0,1,13.184-.01l-.135,1.344a4.571,4.571,0,0,1-.146.495l13.893,5.641-.51,1.235-5.147-2.078-.6,1.193L64.52,10.152a6.582,6.582,0,0,1-2.037,2.011L67.677,22.68l.266-.068.339,1.3.891,1.839-1.2.589ZM61.275,12.757a6.506,6.506,0,0,1-2.282.432,7.5,7.5,0,0,1-.912-.094L54.92,25.91l11.423-2.9Z" transform="translate(115.615 0)" fill="url(#radial-gradient)"/>
          <path id="Caminho_9167" data-name="Caminho 9167" d="M91.882,96.325l18.534,6.267-.432,1.276L91.449,97.6a9.986,9.986,0,0,1-18.69-7.006L16.022,61.038l.615-1.177L73.28,89.35a10.018,10.018,0,0,1,8.272-5.537V60.575A4.835,4.835,0,0,1,77.4,55.814a4.963,4.963,0,0,1,.281-1.552l-.01-.016.6-1.193a1.009,1.009,0,0,0,.135-.161L63.091,37.348l.953-.938,15.33,15.539a4.775,4.775,0,0,1,2.183-.891H82.9a4.8,4.8,0,0,1,4.089,4.084v1.344a4.7,4.7,0,0,1-.938,2.25l5.24,5.318-.953.938-5.246-5.308a4.841,4.841,0,0,1-2.2.9V83.818a11.247,11.247,0,0,1,1.8.292l5.912-17.961,1.261.412L85.98,84.526a9.94,9.94,0,0,1,4.12,3.131L99.93,81.01l.75,1.115-9.225,6.23,9.574-4.855.6,1.193-10.2,5.178a9.922,9.922,0,0,1,.453,6.454" transform="translate(67.438 153.252)" fill="url(#radial-gradient)"/>
          <path id="Caminho_9168" data-name="Caminho 9168" d="M47.33,41.777a10.479,10.479,0,0,1-.875-1.933l-2.3.594v3.485ZM83.575,17.456,92.493,44.61c.052-.01.13-.01.188-.026V12.121H87.409a6.566,6.566,0,0,1-3.834,5.334M62.468,29.186l13.372-13.57A6.089,6.089,0,0,1,74.725,13.7L61.488,17.054,58.983,27.233a9.863,9.863,0,0,1,3.485,1.953M92.493,54.211l-1.276-.417v-.016a4.878,4.878,0,0,1-2.745-4.37,4.66,4.66,0,0,1,.094-.912L65.176,40.584a9.859,9.859,0,0,1-.6,1.193L89.6,58.7l-.75,1.115L63.822,42.891a9.991,9.991,0,0,1-11.679,3.1L50.95,45.4v-.016a10.069,10.069,0,0,1-2.87-2.5l-3.928,2.657v7.564H42.809V46.449l-.75-1.1.75-.51V40.777l-5.178,1.313,1.683,5.121-1.276.422-1.7-5.2L25.551,45.147l-.323-1.287,10.679-2.709,1.271-.417.026.083,5.6-1.422V31.525h1.344v7.532l1.985-.511a9.689,9.689,0,0,1-.172-1.8,9.883,9.883,0,0,1,.8-3.917l.615-1.177a10.021,10.021,0,0,1,3.568-3.542V28.1l1.193-.589a10.126,10.126,0,0,1,3.808-.75,10.517,10.517,0,0,1,1.729.161l2.344-9.491L48.6,20.331l-.323-1.292,12.111-3.084.177-.7,1.287.323L74.391,12.4c-.01-.094-.01-.188-.026-.281V10.783A6.528,6.528,0,0,1,77.4,5.891L78.6,5.3a6.438,6.438,0,0,1,2.3-.443A6.531,6.531,0,0,1,85,6.334l.953.938a6.532,6.532,0,0,1,1.464,3.516h36.823v1.339H94.024V44.59a4.821,4.821,0,0,1,2.245.927l.953.943a4.78,4.78,0,0,1,1.031,2.964,5.3,5.3,0,0,1-.094.912L97.733,51.6h-.026a4.878,4.878,0,0,1-2.209,2.2v.016l-1.276.417a1.229,1.229,0,0,1-.2.01v3.021H92.68V54.237c-.057-.016-.135-.016-.188-.026m-1.276-9.173L82.3,17.883a6.963,6.963,0,0,1-1.406.146,6.545,6.545,0,0,1-4.11-1.464L63.416,30.134a9.9,9.9,0,0,1,2.516,6.616,10.167,10.167,0,0,1-.333,2.563L89,47.225a4.878,4.878,0,0,1,2.219-2.188" transform="translate(106.186 20.456)" fill="url(#radial-gradient)"/>
          <path id="Caminho_9169" data-name="Caminho 9169" d="M37.787,29.617l-14.1-4.766.432-1.271,16.289,5.511a4.867,4.867,0,0,1,1.089.229l.026-.036,1.193.589.214.083.453-.469.953.938.453.161-.427,1.261a5.21,5.21,0,0,1,.391,1.365v1.344a4.7,4.7,0,0,1-.943,2.25l4.548,4.615-.953.938L42.86,37.743a4.729,4.729,0,0,1-2.87.969,4.832,4.832,0,0,1-4.829-4.829,5.024,5.024,0,0,1,.281-1.558L23.092,26.049l.6-1.193,12.366,6.277a4.656,4.656,0,0,1,1.724-1.516" transform="translate(97.196 99.25)" fill="url(#radial-gradient)"/>
          <path id="Caminho_9170" data-name="Caminho 9170" d="M35.754,10.291l3.313-3.365.953.953-3.3,3.355a6.556,6.556,0,0,1,1.1,1.917l5.313-1.339.323,1.3-5.3,1.339a8.363,8.363,0,0,1,.094.969,6.694,6.694,0,0,1-.453,2.36l5.657,2.87-.6,1.193L37.2,18.975a6.581,6.581,0,0,1-2.86,2.453l3.485,10.621-1.271.417-3.49-10.621A5.971,5.971,0,0,1,31.659,22a6.338,6.338,0,0,1-1.412-.156l-1.261-.417a7.2,7.2,0,0,1-1.432-.9l-.953-.938A6.56,6.56,0,0,1,31.659,8.827a6.394,6.394,0,0,1,4.094,1.464" transform="translate(105.542 29.152)" fill="url(#radial-gradient)"/>
          <path id="Caminho_9171" data-name="Caminho 9171" d="M31.771,38.994,20.457,41.859l-.333-1.3,12.564-3.188A8.948,8.948,0,0,1,44.039,34.5l1.235-.313.323,1.292a9.285,9.285,0,0,1,2.115,2.4h.01l.6,1.193a8.973,8.973,0,0,1,.688,3.464,8.84,8.84,0,0,1-1.193,4.454L64.3,58.143l-.75,1.1L47.07,48.105c-.094.12-.188.224-.281.333l-.953.938A8.94,8.94,0,0,1,32.36,47.183L29.037,48.86l-.6-1.193,3.3-1.688a9.287,9.287,0,0,1-.656-2.776V41.859a9.17,9.17,0,0,1,.7-2.865" transform="translate(84.703 141.218)" fill="url(#radial-gradient)"/>
          <path id="Caminho_9172" data-name="Caminho 9172" d="M43.992,26.838,33.371,29.531a5.632,5.632,0,0,1,.094.953,6.858,6.858,0,0,1-.172,1.464l8.126,2.745ZM27.553,37v5.475H26.209V37c-.255-.026-.495-.036-.734-.078l-1.823,5.553-1.276-.417L24.2,36.5a6.592,6.592,0,0,1-3.3-3.271h-.01l-.432-1.271a6.5,6.5,0,0,1-.172-1.464,6.61,6.61,0,0,1,6.595-6.6,6.534,6.534,0,0,1,4.1,1.474L46.753,9.356l.953.938L31.939,26.306a7.05,7.05,0,0,1,1.115,1.917l11.439-2.9,4.652-14.132,1.261.417-4.37,13.33.323,1.287-.818.214L42.7,35.13l3.9,1.328-.427,1.261-3.907-1.313L41,35.974l-8.142-2.75a6.489,6.489,0,0,1-.927,1.433l-.953.953A6.536,6.536,0,0,1,27.553,37" transform="translate(85.385 39.38)" fill="url(#radial-gradient)"/>
          <path id="Caminho_9173" data-name="Caminho 9173" d="M69.579,60.984l-2.427-2.469a4.906,4.906,0,0,1-2.2.9v6.246ZM32.866,64.578l26.686-9.022a5.131,5.131,0,0,1-.094-.9,4.869,4.869,0,0,1,1.005-2.922L43.446,34.459a6.473,6.473,0,0,1-4.094,1.474,6.122,6.122,0,0,1-1.406-.161L29.563,61.286a6.663,6.663,0,0,1,3.3,3.292m39.782-4.8-1.193,1.2.953.969-.953.938-.938-.948-5.563,5.641V75.2H63.61V68.938L56.156,76.5l-.953-.938,8.407-8.527V59.421a4.474,4.474,0,0,1-.828-.2L54.536,75.954l-1.193-.589,8.236-16.721a4.879,4.879,0,0,1-1.584-1.823L33.3,65.844a6.611,6.611,0,0,1,.172,1.464,6.74,6.74,0,0,1-.172,1.464l2.641.9-.432,1.271-.6,1.188-2.5-1.261a6.513,6.513,0,0,1-9.632,1.558l-.953-.943a6.209,6.209,0,0,1-.922-1.448h-.01l-.432-1.261a6.6,6.6,0,0,1-.172-1.474,7.381,7.381,0,0,1,.094-.953l.333-1.3a6.36,6.36,0,0,1,1.11-1.917l.953-.938a6.517,6.517,0,0,1,3.433-1.412h1.344a7.359,7.359,0,0,1,.74.094l8.381-25.514a6.653,6.653,0,0,1-1.422-.9l-6.741,6.839-.953-.938,6.73-6.84a6.54,6.54,0,0,1-1.464-3.5V28.677a6.483,6.483,0,0,1,1.464-3.511l-3.3-3.355.953-.953,3.313,3.365a6.48,6.48,0,0,1,4.1-1.474,6.1,6.1,0,0,1,1.4.161l.255-.74,1.261.432-.24.724a6.814,6.814,0,0,1,2.36,1.792l1.787-1.2.427-1.261.969.323,11.4-7.709-.12-.359,1.266-.417,2.745-1.86.75,1.1-3.068,2.078.12.375-1.276.417L49.155,23.52l-.432,1.261-.964-.323-2.625,1.787a6.92,6.92,0,0,1,.74,2.443h9.465v1.339H45.873a6.5,6.5,0,0,1-1.464,3.5L61.432,50.795a4.618,4.618,0,0,1,2.183-.9h1.344a4.807,4.807,0,0,1,4.089,4.094v1.339a4.753,4.753,0,0,1-.938,2.24l2.412,2.453L71.7,58.832Z" transform="translate(85.385 53.173)" fill="url(#radial-gradient)"/>
          <path id="Caminho_9174" data-name="Caminho 9174" d="M29.978,36.422a6.431,6.431,0,0,1,0,8.355l3.313,3.365-.953.938L29.03,45.73a6.59,6.59,0,0,1-4.1,1.459,7.015,7.015,0,0,1-1.412-.146l-.6,1.849L31.223,51l-.333,1.3-8.407-2.131-.026.083-1.271-.417-2.766-.7.323-1.3,2.855.724.646-1.943a6.445,6.445,0,0,1-1.422-.886l-2.078,2.1-.953-.938,2.078-2.12a6.541,6.541,0,0,1-1.474-3.5V39.938a6.642,6.642,0,0,1,1.474-3.516l.953-.938a6.5,6.5,0,0,1,4.1-1.474,7.012,7.012,0,0,1,1.406.161l5.98-18.2,1.276.417L27.608,34.6a6.618,6.618,0,0,1,1.422.886Z" transform="translate(74.875 67.223)" fill="url(#radial-gradient)"/>
          <path id="Caminho_9175" data-name="Caminho 9175" d="M39.369,38.5H49.99v1.344H38.764a4.5,4.5,0,0,1-.219.886l-.589,1.193a4.777,4.777,0,0,1-6.829,1.115L16.584,57.8l-.953-.938L30.18,42.081a4.906,4.906,0,0,1-.714-1.313l-2.933.6-.271-1.313,1.063-.214V38.5h1.3l-2.464-.63.333-1.3,3.042.781a4.8,4.8,0,0,1,2.349-2.5v-.01l1.261-.417a5.865,5.865,0,0,1,.865-.078,4.839,4.839,0,0,1,4.464,3.006l.563-.151Z" transform="translate(65.792 144.586)" fill="url(#radial-gradient)"/>
          <path id="Caminho_9176" data-name="Caminho 9176" d="M23.088,39.234a6.491,6.491,0,0,1,3.016-.766,7.019,7.019,0,0,1,1.412.161l1.271.417v.01a6.446,6.446,0,0,1,1.422.886L45.987,23.93l.953.943L31.157,40.88A6.5,6.5,0,0,1,32.7,45.063a6.348,6.348,0,0,1-.3,1.839l-.495,1.235H31.9a6.584,6.584,0,0,1-3.115,2.938L37.71,78.281l-1.261.417L27.505,51.5c-.24.036-.484.052-.74.078v.349H25.427l-1.313-.255.068-.333a6.89,6.89,0,0,1-2.188-1.156l-2.063,2.078-.948-.932,1.9-1.933-2.037,1.386.135.547-1.313.255-.755-1.11.406-.286L14.545,38.911l1.3-.323L18.514,49.4l1.808-1.229a6.369,6.369,0,0,1,.172-6.532l-2.276-1.745.8-1.063.953-.938,1.839,1.86,1.125-.734Z" transform="translate(61.221 100.723)" fill="url(#radial-gradient)"/>
          <path id="Caminho_9177" data-name="Caminho 9177" d="M59.918,39.6l.87-.443.6,1.193L93.36,56.561l-.6,1.193L59.912,41.1,31.768,55.379a9.849,9.849,0,0,1,.818,3.938,10.005,10.005,0,0,1-.86,4.053l-.615,1.177H31.1a10.061,10.061,0,0,1-18.664-5.23,9.93,9.93,0,0,1,.349-2.573l.417-1.276c.12-.281.24-.537.375-.8l.708-1.136a9.705,9.705,0,0,1,2.162-2.219l1.11-.74a9.955,9.955,0,0,1,4.949-1.313,10.31,10.31,0,0,1,1.287.094L25.819,39.1l1.313.255L25.105,49.607a10.569,10.569,0,0,1,1.245.417l5.918-12.017,1.193.594L27.549,50.628a8.993,8.993,0,0,1,1.526,1.083l.953.938a9.23,9.23,0,0,1,1.125,1.537L58.428,40.351,51.4,36.767l.589-1.193Z" transform="translate(52.348 149.733)" fill="url(#radial-gradient)"/>
          <path id="Caminho_9178" data-name="Caminho 9178" d="M13.4,41.869,17.464,33.6a10.307,10.307,0,0,1-2.9-2.537l-.75-1.1a10.07,10.07,0,1,1,18-8.934L53.5,13.693l.432,1.271L32.247,22.3a10.082,10.082,0,0,1,.307,1.917H55.282l.13-.417,1.276.417h9.173v1.339H60.59v10.34l.953.938-.953.979v18.5H59.246V39.165L52.505,46l-.953-.938,7.694-7.8V25.554h-3l-.135.417-1.276-.417H32.549a9.967,9.967,0,0,1-2.521,6.006l13.314,13.5L42.389,46,29.07,32.5a10.024,10.024,0,0,1-5.9,2.412V49.516H21.839V34.91a10.1,10.1,0,0,1-3.167-.724l-4.079,8.256Z" transform="translate(52.348 57.635)" fill="url(#radial-gradient)"/>
          <path id="Caminho_9179" data-name="Caminho 9179" d="M31.007,28.633H28.163c-.026.3-.063.594-.109.87l2.954.755Zm-2.849-1.339H50.082v1.339H32.34V30.6l16.586,4.2.552-.547.953.938-.323,1.3-.776-.188-.547.547-.953-.938L32.345,31.987H31.007v-.333L27.72,30.81a8.859,8.859,0,0,1-3.042,4.261L31.007,44.7l-1.11.74L24.61,37.4l-1.193.589-.849-1.7a8.966,8.966,0,0,1-12.309-7.657V27.294a8.965,8.965,0,0,1,12.309-7.663l1.193.589a9.008,9.008,0,0,1,4.4,7.074" transform="translate(43.181 79.867)" fill="url(#radial-gradient)"/>
          <path id="Caminho_9180" data-name="Caminho 9180" d="M60.406,60.762l-1.891-.323-.307,1.537,2.24-.578c-.01-.161-.052-.333-.052-.51a.748.748,0,0,1,.01-.125m.792,2.787a4.765,4.765,0,0,1-.443-.839l-2.829.714-.161.818Zm-.266-4.818a4.657,4.657,0,0,1,.828-1.193l-2.547-.646-.229,1.167Zm-1.464-3.167,3.724.953c.083-.042.161-.068.229-.1L61.14,47.12ZM24.927,70.425l.443-.12-.63-.375c.063.161.135.323.188.495M56.478,63.8l-14,3.553,13.867-2.818ZM29.63,71.321l14.9,9.079-.714,1.146L27.682,71.727l-2.36.469a11.411,11.411,0,0,1,.094,1.344,9.674,9.674,0,0,1-.349,2.589l18.367,6.225-.417,1.276L24.645,77.405A10.074,10.074,0,1,1,7.815,66.867l.953-.938a9.912,9.912,0,0,1,5.454-2.386l.7-1.141,2.011,1.219a9.644,9.644,0,0,1,2.24.62l3.589-7.277,1.193.589-.24.51,1.151.682-3.85,6.506a9.563,9.563,0,0,1,.886.688l7.652-7.777.958.938-7.657,7.782c.2.224.375.453.563.7l3.756,2.287,12.017-3.053,1.125-.74.255.391,16.185-4.1.417-2.136L34.9,56.465l.224-1.318,21.873,3.688.432-1.261.255.078.214-1.073.255-1.318,2.214-11.21L57.358,31.862,39.069,50.422l-.953-.938L56.983,30.336l-.219-.87L58.1,29.19l.953.938-.573.589L60.994,40.91l2.24-11.371,1.313.255L61.744,44l2.8,11.371V29.794h1.339V56.131a4.832,4.832,0,0,1,3.178,1.875l1.11.281-.333,1.3a5.005,5.005,0,0,1,.13.63H71v1.344H69.969c-.01.068-.01.146-.026.214l.271,1.313-.818.161a4.839,4.839,0,0,1-4.188,2.469,4.715,4.715,0,0,1-1.5-.271l-.01.016L62.5,64.872a2.683,2.683,0,0,1-.219-.172l-4.813.979-.109.537-1.313-.255L42.106,68.789l5.688,8.647-1.11.74-5.98-9.1Z" transform="translate(22.106 122.863)" fill="url(#radial-gradient)"/>
          <path id="Caminho_9181" data-name="Caminho 9181" d="M37.8,92.5,41.4,86.42,37.53,92.3c.094.068.188.135.271.2M50.47,65.182a6.434,6.434,0,0,1-.656-2.829,5.064,5.064,0,0,1,.094-.938L23.784,41.543a6.48,6.48,0,0,1-2.865,1.782L27.93,78.9ZM50.256,60a6.645,6.645,0,0,1,.359-.75l-12.08-8.178Zm2,7.428a6.49,6.49,0,0,1-1.089-1.115L28.211,80.3,30.18,90.337a10.4,10.4,0,0,1,1.292-.094,10.025,10.025,0,0,1,4.949,1.313ZM26.992,81.059,5.083,94.389l-.7-1.141,22.326-13.6L19.606,43.58c-.2.01-.406.052-.6.052a6.586,6.586,0,0,1-1.771-.266l-1.25-.495a6.567,6.567,0,1,1,8.043-10.033L47.7,16.816l.75,1.1L24.773,33.954a6.246,6.246,0,0,1,.734,2.427h9.47V37.72h-9.47a6.246,6.246,0,0,1-.734,2.427L51.366,58.14A6.585,6.585,0,0,1,52.9,56.785l-4.772-9.71,1.193-.589,4.787,9.71a6.035,6.035,0,0,1,1.365-.349l-.87-1.328,1.11-.74V41.069h1.339V55.832a6.567,6.567,0,0,1,3.433,1.4L72.54,45l.953.938L61.44,58.176a6.145,6.145,0,0,1,.922,1.438l12.189-4.12,3.032-9.225,1.271.417-2.709,8.272,11.226-3.8L87.8,52.42,75.624,56.551,71.535,68.98l-1.271-.417L74.03,57.087,62.8,60.879a6.506,6.506,0,0,1,.177,1.464,6.4,6.4,0,0,1-.333,1.969l3.042,4.641-1.125.734-2.578-3.912a7.436,7.436,0,0,1-.547.75l1.287,1.3-.953.938-1.287-1.3a1.77,1.77,0,0,1-.2.156l1.49,1.141-.8,1.063-1.933-1.464a4.062,4.062,0,0,1-.443.161l-1.3.323a5.748,5.748,0,0,1-3.662-.537L38.786,93.431a8.4,8.4,0,0,1,.6.7L59.664,80.413l.755,1.11L40.145,95.244a10.023,10.023,0,0,1,1.38,5.068,9.91,9.91,0,0,1-.146,1.62l.391-.385.953.938L61.8,107.324l-.255,1.318L48.006,105.2l13.075,4.428-.432,1.261L40.989,104.24l-.51.521a9.982,9.982,0,0,1-1.7,2.443l-.224,1.318-1.021-.177,6.438,9.788-1.125.74-6.438-9.788a4.191,4.191,0,0,1-.375.188l-1.86,1.891-.958-.938a9.723,9.723,0,0,1-1.75.161,10.013,10.013,0,0,1-2.5-.323l-.443.75-1.151-.682.281-.484-.042-.026-1.193-.589A10.111,10.111,0,0,1,23.08,105.9l-1.047-.172.224-1.328a9.81,9.81,0,0,1-.844-3.417V99.64a10.082,10.082,0,0,1,7.439-9.053Z" transform="translate(18.457 70.78)" fill="url(#radial-gradient)"/>
          <path id="Caminho_9182" data-name="Caminho 9182" d="M24.717,82.013a12.568,12.568,0,0,1-1.177,3.178l13.5,8.236-.7,1.141L22.826,86.331a12.127,12.127,0,0,1-1.073,1.354l9.131,9.267-.953.938L20.8,88.623A12.51,12.51,0,1,1,16.471,67.4L34.437,21.817l1.25.495L17.716,67.891A12.692,12.692,0,0,1,22.837,72.2l.7,1.141A12.7,12.7,0,0,1,24.993,78.6H39.881V79.94H25c-.01.255-.026.505-.052.75L40.73,83.357l-.224,1.328Z" transform="translate(0 91.829)" fill="url(#radial-gradient)"/>
        </g>
      </g>
      <g transform="matrix(1, -0.05, 0.05, 1, 532.26, 82.11)" filter="url(#Caminho_9194)">
        <path id="Caminho_9194-2" data-name="Caminho 9194" d="M-1926.034,3924.611c-24.513,1.237-54.247-20.515-75.318-6.992s-33.494,39-45.16,45.609-64.076,23.138-72.51,46.106-46.359,50.019-17.074,77.679,92.288,40.525,120.443,46.283,65.512,22.222,78.343,38.829,12.865,77.783,40.354,96.4,44.938,44.579,65.777,29.837-1.3-70.541,11.83-90.636,53.415-28.01,59.5-52.616,8.2-71.755,13.948-85.893,24.818-33.1,5.308-54.261-36.512-55.351-78.757-70.359S-1901.52,3923.374-1926.034,3924.611Z" transform="translate(2561.36 -3780.35) rotate(3)" fill="#fff"/>
      </g>
    </g>
    <g id="Grupo_23930" data-name="Grupo 23930" transform="translate(13.71 178.65)">
      <g id="Grupo_8284" data-name="Grupo 8284" transform="translate(657 368)">
        <g id="Grupo_8278" data-name="Grupo 8278" transform="translate(0 -0.358)">
          <g data-type="innerShadowGroup">
            <rect id="Retângulo_4355-5" data-name="Retângulo 4355" width="114" height="150" rx="10" fill="#0b1617"/>
            <g transform="matrix(1, 0, 0, 1, 0, -349)" filter="url(#Retângulo_4355)">
              <rect id="Retângulo_4355-6" data-name="Retângulo 4355" width="114" height="150" rx="10" transform="translate(0 349)" fill="#fff"/>
            </g>
            <g id="Retângulo_4355-7" data-name="Retângulo 4355" fill="none" stroke="#ff0070" stroke-width="1.5">
              <rect width="114" height="150" rx="10" stroke="none"/>
              <rect x="0.75" y="0.75" width="112.5" height="148.5" rx="9.25" fill="none"/>
            </g>
          </g>
          <g data-type="innerShadowGroup">
            <rect id="Retângulo_4356-5" data-name="Retângulo 4356" width="114" height="150" rx="10" fill="#0b1617" opacity="0.5"/>
            <g transform="matrix(1, 0, 0, 1, 0, -349)" filter="url(#Retângulo_4356)">
              <rect id="Retângulo_4356-6" data-name="Retângulo 4356" width="114" height="150" rx="10" transform="translate(0 349)" fill="#fff" opacity="0.5"/>
            </g>
            <g id="Retângulo_4356-7" data-name="Retângulo 4356" fill="none" stroke="#ff0070" stroke-width="1.5" opacity="0.5">
              <rect width="114" height="150" rx="10" stroke="none"/>
              <rect x="0.75" y="0.75" width="112.5" height="148.5" rx="9.25" fill="none"/>
            </g>
          </g>
        </g>
        <path id="Caminho_9827" data-name="Caminho 9827" d="M-34.706,0V-9.38h-1.582V0Zm5.082,0V-5.166l-.112-1.708.854,1.33L-24.99,0h1.456V-9.38h-1.582v5.152l.1,1.778-.924-1.47-3.794-5.46h-1.47V0ZM-16.8.112c2.086,0,3.276-1.526,3.346-3.64L-13.02,0h1.008V-4.858H-16.3v1.33h2.7a2.469,2.469,0,0,1-2.618,2.156c-1.848,0-2.758-1.344-2.758-3.332,0-1.946.9-3.318,2.856-3.318a2.609,2.609,0,0,1,2.688,2.128l1.372-.98A4.067,4.067,0,0,0-16.128-9.52c-2.912,0-4.522,2.058-4.522,4.816C-20.65-1.722-19.208.112-16.8.112ZM-2.212,0V-1.4H-7.266V-4.088H-3.08v-1.4H-7.266V-7.98h5.054v-1.4H-8.848V0ZM4.074.14c1.9,0,3.332-.98,3.332-2.674,0-1.792-1.344-2.38-2.842-2.744L3.514-5.53C2.492-5.782,1.848-6.076,1.848-6.9c0-.714.644-1.134,1.54-1.134A2.754,2.754,0,0,1,6.062-6.37L7.252-7.5a4.015,4.015,0,0,0-3.766-2C1.722-9.506.2-8.554.2-6.79S1.61-4.41,2.94-4.13l.882.2C5.04-3.668,5.8-3.416,5.8-2.506c0,.854-.756,1.19-1.694,1.19a3.163,3.163,0,0,1-3.066-1.9L-.084-2.086A4.262,4.262,0,0,0,4.074.14ZM13.328,0V-7.98h2.884v-1.4H8.876v1.4h2.87V0Zm7.14-10.262a1.15,1.15,0,0,1-.28-.63.173.173,0,0,1,.182-.2,1.275,1.275,0,0,1,.6.322,2.018,2.018,0,0,0,1.176.518.785.785,0,0,0,.812-.882,1.573,1.573,0,0,0-.238-.826H21.8a1.067,1.067,0,0,1,.294.6.18.18,0,0,1-.182.2,1.129,1.129,0,0,1-.588-.322,1.891,1.891,0,0,0-1.134-.5.841.841,0,0,0-.91.9,1.611,1.611,0,0,0,.238.826ZM18.214,0l.9-2.366h3.962L23.968,0H25.7L22.036-9.38h-1.82L16.548,0Zm2.38-6.272.5-1.694.5,1.694.952,2.534H19.628ZM31.976.126A4.581,4.581,0,0,0,36.6-4.7a4.577,4.577,0,0,0-4.62-4.816A4.569,4.569,0,0,0,27.356-4.7,4.573,4.573,0,0,0,31.976.126Zm.014-1.512c-1.96,0-2.968-1.372-2.968-3.318S30.03-8.022,31.99-8.022,34.944-6.636,34.944-4.7,33.95-1.386,31.99-1.386ZM-33.922,18c2.912,0,4.466-1.792,4.466-4.69s-1.568-4.69-4.466-4.69h-3.542V18Zm-.2-7.98c1.946,0,3.01.938,3.01,3.29s-1.064,3.29-3,3.29h-1.778V10.02ZM-19.936,18V16.6H-24.99V13.912H-20.8v-1.4H-24.99V10.02h5.054V8.62h-6.636V18Zm10.7,0c2.912,0,4.466-1.792,4.466-4.69S-6.342,8.62-9.24,8.62h-3.542V18Zm-.2-7.98c1.946,0,3.01.938,3.01,3.29s-1.064,3.29-3,3.29H-11.2V10.02ZM-1.456,18l.9-2.366H3.4L4.3,18H6.034L2.366,8.62H.546L-3.122,18Zm2.38-6.272.5-1.694.5,1.694.952,2.534H-.042ZM11.606,18c2.912,0,4.466-1.792,4.466-4.69S14.5,8.62,11.606,8.62H8.064V18Zm-.2-7.98c1.946,0,3.01.938,3.01,3.29s-1.064,3.29-3,3.29H9.646V10.02Zm11.872,8.106A4.581,4.581,0,0,0,27.9,13.3a4.624,4.624,0,1,0-9.24,0A4.573,4.573,0,0,0,23.282,18.126Zm.014-1.512c-1.96,0-2.968-1.372-2.968-3.318S21.336,9.978,23.3,9.978,26.25,11.364,26.25,13.3,25.256,16.614,23.3,16.614ZM34.482,18.14c1.9,0,3.332-.98,3.332-2.674,0-1.792-1.344-2.38-2.842-2.744l-1.05-.252c-1.022-.252-1.666-.546-1.666-1.372,0-.714.644-1.134,1.54-1.134A2.754,2.754,0,0,1,36.47,11.63L37.66,10.5a4.015,4.015,0,0,0-3.766-2c-1.764,0-3.29.952-3.29,2.716s1.414,2.38,2.744,2.66l.882.2c1.218.266,1.974.518,1.974,1.428,0,.854-.756,1.19-1.694,1.19a3.163,3.163,0,0,1-3.066-1.9l-1.12,1.134A4.262,4.262,0,0,0,34.482,18.14Z" transform="translate(57 71.642)" fill="#e3e3e3"/>
      </g>
      <path id="Caminho_9824" data-name="Caminho 9824" d="M-46.515,0V-4.41L-46.739-7.5l1.106,2.688,1.624,3.234h1.6l1.624-3.234L-39.711-7.5l-.2,3.094V0h1.582V-9.38h-1.932l-2.016,4.116-.938,2.394-.924-2.394L-46.151-9.38H-48.1V0Zm15.694.126A4.581,4.581,0,0,0-26.2-4.7a4.577,4.577,0,0,0-4.62-4.816A4.569,4.569,0,0,0-35.441-4.7,4.573,4.573,0,0,0-30.821.126Zm.014-1.512c-1.96,0-2.968-1.372-2.968-3.318s1.008-3.318,2.968-3.318,2.954,1.386,2.954,3.318S-28.847-1.386-30.807-1.386ZM-19.775,0c2.912,0,4.466-1.792,4.466-4.69s-1.568-4.69-4.466-4.69h-3.542V0Zm-.2-7.98c1.946,0,3.01.938,3.01,3.29s-1.064,3.29-3,3.29h-1.778V-7.98ZM-5.789,0V-1.4h-5.054V-4.088h4.186v-1.4h-4.186V-7.98h5.054v-1.4h-6.636V0Zm9,0V-1.4h-4.8V-9.38H-3.171V0Zm6.02.126a4.581,4.581,0,0,0,4.62-4.83A4.577,4.577,0,0,0,9.233-9.52,4.569,4.569,0,0,0,4.613-4.7,4.573,4.573,0,0,0,9.233.126Zm.014-1.512c-1.96,0-2.968-1.372-2.968-3.318S7.287-8.022,9.247-8.022,12.2-6.636,12.2-4.7,11.207-1.386,9.247-1.386ZM20.433.14c1.9,0,3.332-.98,3.332-2.674,0-1.792-1.344-2.38-2.842-2.744l-1.05-.252c-1.022-.252-1.666-.546-1.666-1.372,0-.714.644-1.134,1.54-1.134A2.754,2.754,0,0,1,22.421-6.37L23.611-7.5a4.015,4.015,0,0,0-3.766-2c-1.764,0-3.29.952-3.29,2.716S17.969-4.41,19.3-4.13l.882.2c1.218.266,1.974.518,1.974,1.428,0,.854-.756,1.19-1.694,1.19A3.163,3.163,0,0,1,17.4-3.22l-1.12,1.134A4.262,4.262,0,0,0,20.433.14ZM34.517,0c2.912,0,4.466-1.792,4.466-4.69s-1.568-4.69-4.466-4.69H30.975V0Zm-.2-7.98c1.946,0,3.01.938,3.01,3.29s-1.064,3.29-3,3.29H32.557V-7.98ZM48.5,0V-1.4H43.449V-4.088h4.186v-1.4H43.449V-7.98H48.5v-1.4H41.867V0ZM-89.677,16V11.912h4.508V16h1.582V6.62h-1.582v3.892h-4.508V6.62h-1.582V16ZM-78.5,16V6.62h-1.582V16Zm5.082,0V13.032h2.254c1.988,0,3.514-1.022,3.514-3.164,0-2.24-1.54-3.248-3.514-3.248H-75V16Zm2.1-7.98c1.078,0,2.03.392,2.03,1.848,0,1.358-.952,1.764-2.03,1.764h-2.1V8.02ZM-58.443,16V14.6H-63.5V11.912h4.186v-1.4H-63.5V8.02h5.054V6.62h-6.636V16Zm4.2,0V12.36h1.148a1.66,1.66,0,0,1,1.708.854L-49.763,16h1.82l-1.6-2.7a2.128,2.128,0,0,0-1.274-1.106,2.609,2.609,0,0,0,2.548-2.66c0-1.932-1.428-2.912-3.332-2.912h-4.228V16Zm2.492-7.98c.994,0,1.848.364,1.848,1.554,0,1.134-.854,1.5-1.848,1.5h-2.492V8.02ZM-44.009,16V12.36h1.148a1.66,1.66,0,0,1,1.708.854L-39.529,16h1.82l-1.6-2.7a2.128,2.128,0,0,0-1.274-1.106,2.609,2.609,0,0,0,2.548-2.66c0-1.932-1.428-2.912-3.332-2.912h-4.228V16Zm2.492-7.98c.994,0,1.848.364,1.848,1.554,0,1.134-.854,1.5-1.848,1.5h-2.492V8.02Zm12.8,7.98V14.6h-5.054V11.912h4.186v-1.4h-4.186V8.02h5.054V6.62h-6.636V16Zm9,0V14.6h-4.8V6.62H-26.1V16Zm3.164,0,.9-2.366H-11.7L-10.8,16h1.736l-3.668-9.38h-1.82L-18.221,16Zm2.38-6.272.5-1.694.5,1.694.952,2.534h-2.926ZM-2.9,16.112a4.151,4.151,0,0,0,4.158-2.9L-.119,12.206a2.7,2.7,0,0,1-2.772,2.408c-1.932,0-2.842-1.386-2.842-3.318s.91-3.318,2.842-3.318A2.69,2.69,0,0,1-.119,10.386L1.253,9.378A4.135,4.135,0,0,0-2.9,6.48c-2.884,0-4.508,2.114-4.508,4.816S-5.789,16.112-2.9,16.112ZM5.5,16V6.62H3.913V16Zm7.5.126a4.581,4.581,0,0,0,4.62-4.83,4.624,4.624,0,1,0-9.24,0A4.573,4.573,0,0,0,13,16.126Zm.014-1.512c-1.96,0-2.968-1.372-2.968-3.318s1.008-3.318,2.968-3.318,2.954,1.386,2.954,3.318S14.973,14.614,13.013,14.614ZM22.085,16V10.834l-.112-1.708.854,1.33L26.719,16h1.456V6.62H26.593v5.152l.1,1.778-.924-1.47L21.973,6.62H20.5V16Zm9.786,0,.9-2.366h3.962l.9,2.366h1.736L35.693,6.62h-1.82L30.205,16Zm2.38-6.272.5-1.694.5,1.694.952,2.534H33.285ZM42.973,16V11.59L42.749,8.5l1.106,2.688,1.624,3.234h1.6L48.7,11.184,49.777,8.5l-.2,3.094V16h1.582V6.62H49.231l-2.016,4.116-.938,2.394-.924-2.394L43.337,6.62H41.391V16ZM61.3,16V14.6H56.245V11.912h4.186v-1.4H56.245V8.02H61.3V6.62H54.663V16Zm4.2,0V10.834l-.112-1.708.854,1.33L70.133,16h1.456V6.62H70.007v5.152l.1,1.778-.924-1.47L65.387,6.62h-1.47V16Zm12.6,0V8.02h2.884V6.62H73.647v1.4h2.87V16Zm8.848.126a4.581,4.581,0,0,0,4.62-4.83,4.624,4.624,0,1,0-9.24,0A4.573,4.573,0,0,0,86.947,16.126Zm.014-1.512c-1.96,0-2.968-1.372-2.968-3.318S85,7.978,86.961,7.978s2.954,1.386,2.954,3.318S88.921,14.614,86.961,14.614Z" transform="translate(936 331)" fill="#e3e3e3"/>
      <path id="Caminho_9826" data-name="Caminho 9826" d="M-58.772,0V-4.41L-59-7.5l1.106,2.688,1.624,3.234h1.6l1.624-3.234L-51.968-7.5l-.2,3.094V0h1.582V-9.38h-1.932L-54.53-5.264l-.938,2.394-.924-2.394L-58.408-9.38h-1.946V0Zm15.694.126a4.581,4.581,0,0,0,4.62-4.83,4.577,4.577,0,0,0-4.62-4.816A4.569,4.569,0,0,0-47.7-4.7,4.573,4.573,0,0,0-43.078.126Zm.014-1.512c-1.96,0-2.968-1.372-2.968-3.318s1.008-3.318,2.968-3.318S-40.11-6.636-40.11-4.7-41.1-1.386-43.064-1.386ZM-32.032,0c2.912,0,4.466-1.792,4.466-4.69s-1.568-4.69-4.466-4.69h-3.542V0Zm-.2-7.98c1.946,0,3.01.938,3.01,3.29s-1.064,3.29-3,3.29h-1.778V-7.98ZM-18.046,0V-1.4H-23.1V-4.088h4.186v-1.4H-23.1V-7.98h5.054v-1.4h-6.636V0Zm9,0V-1.4h-4.8V-9.38h-1.582V0Zm6.02.126A4.581,4.581,0,0,0,1.6-4.7,4.577,4.577,0,0,0-3.024-9.52,4.569,4.569,0,0,0-7.644-4.7,4.573,4.573,0,0,0-3.024.126Zm.014-1.512c-1.96,0-2.968-1.372-2.968-3.318S-4.97-8.022-3.01-8.022-.056-6.636-.056-4.7-1.05-1.386-3.01-1.386ZM8.176.14c1.9,0,3.332-.98,3.332-2.674,0-1.792-1.344-2.38-2.842-2.744L7.616-5.53C6.594-5.782,5.95-6.076,5.95-6.9c0-.714.644-1.134,1.54-1.134A2.754,2.754,0,0,1,10.164-6.37L11.354-7.5a4.015,4.015,0,0,0-3.766-2c-1.764,0-3.29.952-3.29,2.716S5.712-4.41,7.042-4.13l.882.2C9.142-3.668,9.9-3.416,9.9-2.506c0,.854-.756,1.19-1.694,1.19a3.163,3.163,0,0,1-3.066-1.9L4.018-2.086A4.262,4.262,0,0,0,8.176.14ZM22.26,0c2.912,0,4.466-1.792,4.466-4.69S25.158-9.38,22.26-9.38H18.718V0Zm-.2-7.98c1.946,0,3.01.938,3.01,3.29s-1.064,3.29-3,3.29H20.3V-7.98ZM36.246,0V-1.4H31.192V-4.088h4.186v-1.4H31.192V-7.98h5.054v-1.4H29.61V0Zm7.966,0,.9-2.366H49.07L49.966,0H51.7L48.034-9.38h-1.82L42.546,0Zm2.38-6.272.5-1.694.5,1.694.952,2.534H45.626ZM55.8,0V-1.988H54.012V0Zm4.55,0V-9.38H58.772V0Z" transform="translate(936 552)" fill="#e3e3e3"/>
      <path id="Caminho_9823" data-name="Caminho 9823" d="M-21.581,0c2.912,0,4.466-1.792,4.466-4.69s-1.568-4.69-4.466-4.69h-3.542V0Zm-.2-7.98c1.946,0,3.01.938,3.01,3.29s-1.064,3.29-3,3.29h-1.778V-7.98ZM-13.8,0l.9-2.366h3.962L-8.043,0h1.736L-9.975-9.38H-11.8L-15.463,0Zm2.38-6.272.5-1.694.5,1.694.952,2.534h-2.926ZM-.735,0C2.177,0,3.731-1.792,3.731-4.69S2.163-9.38-.735-9.38H-4.277V0Zm-.2-7.98c1.946,0,3.01.938,3.01,3.29S1.015-1.4-.917-1.4H-2.7V-7.98ZM10.941.126a4.581,4.581,0,0,0,4.62-4.83,4.577,4.577,0,0,0-4.62-4.816A4.569,4.569,0,0,0,6.321-4.7,4.573,4.573,0,0,0,10.941.126Zm.014-1.512c-1.96,0-2.968-1.372-2.968-3.318s1.008-3.318,2.968-3.318S13.909-6.636,13.909-4.7,12.915-1.386,10.955-1.386ZM22.141.14c1.9,0,3.332-.98,3.332-2.674,0-1.792-1.344-2.38-2.842-2.744l-1.05-.252c-1.022-.252-1.666-.546-1.666-1.372,0-.714.644-1.134,1.54-1.134A2.754,2.754,0,0,1,24.129-6.37L25.319-7.5a4.015,4.015,0,0,0-3.766-2c-1.764,0-3.29.952-3.29,2.716s1.414,2.38,2.744,2.66l.882.2c1.218.266,1.974.518,1.974,1.428,0,.854-.756,1.19-1.694,1.19A3.163,3.163,0,0,1,19.1-3.22l-1.12,1.134A4.262,4.262,0,0,0,22.141.14ZM-32.473,16l.9-2.366h3.962l.9,2.366h1.736l-3.668-9.38h-1.82L-34.139,16Zm2.38-6.272.5-1.694.5,1.694.952,2.534h-2.926ZM-18.767,16c2.016,0,3.262-.826,3.262-2.492,0-1.26-.756-2.212-2.884-2.38C-16.877,11-15.9,10.26-15.9,9.014c0-1.386-.9-2.394-2.8-2.394h-4.256V16Zm-.406-7.98c.98,0,1.638.308,1.638,1.26s-.644,1.246-1.582,1.246h-2.254V8.02Zm.21,3.836c1.092,0,1.834.42,1.834,1.372S-17.717,14.6-19,14.6h-2.366V11.856ZM-5.957,16V14.6h-5.054V11.912h4.186v-1.4h-4.186V8.02h5.054V6.62h-6.636V16Zm4.2,0V12.36H-.609a1.66,1.66,0,0,1,1.708.854L2.723,16h1.82l-1.6-2.7a2.128,2.128,0,0,0-1.274-1.106,2.609,2.609,0,0,0,2.548-2.66C4.221,7.6,2.793,6.62.889,6.62H-3.339V16ZM.735,8.02c.994,0,1.848.364,1.848,1.554,0,1.134-.854,1.5-1.848,1.5H-1.757V8.02ZM10.255,16V8.02h2.884V6.62H5.8v1.4h2.87V16Zm8.848.126a4.581,4.581,0,0,0,4.62-4.83,4.624,4.624,0,1,0-9.24,0A4.573,4.573,0,0,0,19.1,16.126Zm.014-1.512c-1.96,0-2.968-1.372-2.968-3.318s1.008-3.318,2.968-3.318,2.954,1.386,2.954,3.318S21.077,14.614,19.117,14.614ZM30.3,16.14c1.9,0,3.332-.98,3.332-2.674,0-1.792-1.344-2.38-2.842-2.744l-1.05-.252c-1.022-.252-1.666-.546-1.666-1.372,0-.714.644-1.134,1.54-1.134A2.754,2.754,0,0,1,32.291,9.63L33.481,8.5a4.015,4.015,0,0,0-3.766-2c-1.764,0-3.29.952-3.29,2.716s1.414,2.38,2.744,2.66l.882.2c1.218.266,1.974.518,1.974,1.428,0,.854-.756,1.19-1.694,1.19a3.163,3.163,0,0,1-3.066-1.9l-1.12,1.134A4.262,4.262,0,0,0,30.3,16.14Z" transform="translate(714 331)" fill="#e3e3e3"/>
      <path id="Caminho_9825" data-name="Caminho 9825" d="M-24.577,0l.9-2.366h3.962l.9,2.366h1.736l-3.668-9.38h-1.82L-26.243,0Zm2.38-6.272.5-1.694.5,1.694.952,2.534h-2.926ZM-12.285,0V-7.98H-9.4v-1.4h-7.336v1.4h2.87V0Zm6.51,0V-9.38H-7.357V0ZM1.491,0l3.43-9.38H3.2L1.337-3.906.623-1.2l-.7-2.7L-1.939-9.38H-3.745L-.315,0Zm9.716.126a4.581,4.581,0,0,0,4.62-4.83,4.577,4.577,0,0,0-4.62-4.816A4.569,4.569,0,0,0,6.587-4.7,4.573,4.573,0,0,0,11.207.126Zm.014-1.512c-1.96,0-2.968-1.372-2.968-3.318s1.008-3.318,2.968-3.318S14.175-6.636,14.175-4.7,13.181-1.386,11.221-1.386ZM22.407.14c1.9,0,3.332-.98,3.332-2.674,0-1.792-1.344-2.38-2.842-2.744l-1.05-.252c-1.022-.252-1.666-.546-1.666-1.372,0-.714.644-1.134,1.54-1.134A2.754,2.754,0,0,1,24.4-6.37L25.585-7.5a4.015,4.015,0,0,0-3.766-2c-1.764,0-3.29.952-3.29,2.716s1.414,2.38,2.744,2.66l.882.2c1.218.266,1.974.518,1.974,1.428,0,.854-.756,1.19-1.694,1.19a3.163,3.163,0,0,1-3.066-1.9l-1.12,1.134A4.262,4.262,0,0,0,22.407.14ZM-33.922,16c2.912,0,4.466-1.792,4.466-4.69s-1.568-4.69-4.466-4.69h-3.542V16Zm-.2-7.98c1.946,0,3.01.938,3.01,3.29s-1.064,3.29-3,3.29h-1.778V8.02ZM-19.936,16V14.6H-24.99V11.912H-20.8v-1.4H-24.99V8.02h5.054V6.62h-6.636V16Zm10.7,0c2.912,0,4.466-1.792,4.466-4.69S-6.342,6.62-9.24,6.62h-3.542V16Zm-.2-7.98c1.946,0,3.01.938,3.01,3.29s-1.064,3.29-3,3.29H-11.2V8.02ZM-1.456,16l.9-2.366H3.4L4.3,16H6.034L2.366,6.62H.546L-3.122,16ZM.924,9.728l.5-1.694.5,1.694.952,2.534H-.042ZM11.606,16c2.912,0,4.466-1.792,4.466-4.69S14.5,6.62,11.606,6.62H8.064V16Zm-.2-7.98c1.946,0,3.01.938,3.01,3.29s-1.064,3.29-3,3.29H9.646V8.02Zm11.872,8.106A4.581,4.581,0,0,0,27.9,11.3a4.624,4.624,0,1,0-9.24,0A4.573,4.573,0,0,0,23.282,16.126Zm.014-1.512c-1.96,0-2.968-1.372-2.968-3.318S21.336,7.978,23.3,7.978,26.25,9.364,26.25,11.3,25.256,14.614,23.3,14.614ZM34.482,16.14c1.9,0,3.332-.98,3.332-2.674,0-1.792-1.344-2.38-2.842-2.744l-1.05-.252c-1.022-.252-1.666-.546-1.666-1.372,0-.714.644-1.134,1.54-1.134A2.754,2.754,0,0,1,36.47,9.63L37.66,8.5a4.015,4.015,0,0,0-3.766-2c-1.764,0-3.29.952-3.29,2.716s1.414,2.38,2.744,2.66l.882.2c1.218.266,1.974.518,1.974,1.428,0,.854-.756,1.19-1.694,1.19a3.163,3.163,0,0,1-3.066-1.9l-1.12,1.134A4.262,4.262,0,0,0,34.482,16.14Z" transform="translate(714 552)" fill="#e3e3e3"/>
      <g id="Grupo_8283" data-name="Grupo 8283" transform="translate(781 368)">
        <g id="Grupo_8278-2" data-name="Grupo 8278" transform="translate(0 -0.358)">
          <g data-type="innerShadowGroup">
            <rect id="Retângulo_4355-8" data-name="Retângulo 4355" width="166" height="150" rx="10" fill="#0b1617"/>
            <g transform="matrix(1, 0, 0, 1, -124, -349)" filter="url(#Retângulo_4355-2)">
              <rect id="Retângulo_4355-9" data-name="Retângulo 4355" width="166" height="150" rx="10" transform="translate(124 349)" fill="#fff"/>
            </g>
            <g id="Retângulo_4355-10" data-name="Retângulo 4355" fill="none" stroke="#ff0070" stroke-width="1.5">
              <rect width="166" height="150" rx="10" stroke="none"/>
              <rect x="0.75" y="0.75" width="164.5" height="148.5" rx="9.25" fill="none"/>
            </g>
          </g>
          <g data-type="innerShadowGroup">
            <rect id="Retângulo_4356-8" data-name="Retângulo 4356" width="166" height="150" rx="10" fill="#0b1617" opacity="0.5"/>
            <g transform="matrix(1, 0, 0, 1, -124, -349)" filter="url(#Retângulo_4356-2)">
              <rect id="Retângulo_4356-9" data-name="Retângulo 4356" width="166" height="150" rx="10" transform="translate(124 349)" fill="#fff" opacity="0.5"/>
            </g>
            <g id="Retângulo_4356-10" data-name="Retângulo 4356" fill="none" stroke="#ff0070" stroke-width="1.5" opacity="0.5">
              <rect width="166" height="150" rx="10" stroke="none"/>
              <rect x="0.75" y="0.75" width="164.5" height="148.5" rx="9.25" fill="none"/>
            </g>
          </g>
        </g>
        <path id="Caminho_9828" data-name="Caminho 9828" d="M-69.8,0V-7.98h2.884v-1.4h-7.336v1.4h2.87V0Zm6.51,0V-3.64h1.148a1.66,1.66,0,0,1,1.708.854L-58.807,0h1.82l-1.6-2.7a2.128,2.128,0,0,0-1.274-1.106,2.609,2.609,0,0,0,2.548-2.66c0-1.932-1.428-2.912-3.332-2.912h-4.228V0Zm2.492-7.98c.994,0,1.848.364,1.848,1.554,0,1.134-.854,1.5-1.848,1.5h-2.492V-7.98ZM-53.921,0l.9-2.366h3.962l.9,2.366h1.736L-50.1-9.38h-1.82L-55.587,0Zm2.38-6.272.5-1.694.5,1.694.952,2.534h-2.926ZM-42.819,0V-5.166l-.112-1.708.854,1.33L-38.185,0h1.456V-9.38h-1.582v5.152l.1,1.778-.924-1.47-3.794-5.46H-44.4V0Zm12.978.14c1.9,0,3.332-.98,3.332-2.674,0-1.792-1.344-2.38-2.842-2.744L-30.4-5.53c-1.022-.252-1.666-.546-1.666-1.372,0-.714.644-1.134,1.54-1.134A2.754,2.754,0,0,1-27.853-6.37l1.19-1.134a4.015,4.015,0,0,0-3.766-2c-1.764,0-3.29.952-3.29,2.716s1.414,2.38,2.744,2.66l.882.2c1.218.266,1.974.518,1.974,1.428,0,.854-.756,1.19-1.694,1.19a3.163,3.163,0,0,1-3.066-1.9L-34-2.086A4.262,4.262,0,0,0-29.841.14ZM-22.1,0V-3.7h4.074V-5.1H-22.1V-7.98h4.928v-1.4h-6.51V0Zm11.494.126A4.581,4.581,0,0,0-5.985-4.7a4.577,4.577,0,0,0-4.62-4.816A4.569,4.569,0,0,0-15.225-4.7,4.573,4.573,0,0,0-10.605.126Zm.014-1.512c-1.96,0-2.968-1.372-2.968-3.318s1.008-3.318,2.968-3.318S-7.637-6.636-7.637-4.7-8.631-1.386-10.591-1.386ZM-1.519,0V-3.64H-.371a1.66,1.66,0,0,1,1.708.854L2.961,0h1.82l-1.6-2.7A2.128,2.128,0,0,0,1.911-3.808a2.609,2.609,0,0,0,2.548-2.66C4.459-8.4,3.031-9.38,1.127-9.38H-3.1V0ZM.973-7.98c.994,0,1.848.364,1.848,1.554,0,1.134-.854,1.5-1.848,1.5H-1.519V-7.98ZM8.715,0V-4.41L8.491-7.5,9.6-4.816l1.624,3.234h1.6l1.624-3.234L15.519-7.5l-.2,3.094V0h1.582V-9.38H14.973L12.957-5.264,12.019-2.87l-.924-2.394L9.079-9.38H7.133V0ZM20.6,0l.9-2.366h3.962L26.355,0h1.736L24.423-9.38H22.6L18.935,0Zm2.38-6.272.5-1.694.5,1.694.952,2.534H22.015ZM34.1,2.632c.784,0,1.3-.42,1.3-1.078,0-.518-.392-.91-1.134-.9L34.643.1a4.1,4.1,0,0,0,3.766-2.884L37.037-3.794a2.7,2.7,0,0,1-2.772,2.408c-1.932,0-2.842-1.386-2.842-3.318s.91-3.318,2.842-3.318a2.69,2.69,0,0,1,2.772,2.408l1.372-1.008a4.135,4.135,0,0,0-4.158-2.9c-2.884,0-4.508,2.114-4.508,4.816,0,2.548,1.442,4.564,4.018,4.788l-.49.84.28.336A2.853,2.853,0,0,1,34,1.218c.266,0,.448.084.448.322,0,.2-.14.308-.392.308a1.392,1.392,0,0,1-.994-.49l-.294.812A1.953,1.953,0,0,0,34.1,2.632Zm9.87-12.894a1.15,1.15,0,0,1-.28-.63.173.173,0,0,1,.182-.2,1.275,1.275,0,0,1,.6.322,2.018,2.018,0,0,0,1.176.518.785.785,0,0,0,.812-.882,1.573,1.573,0,0,0-.238-.826H45.3a1.067,1.067,0,0,1,.294.6.18.18,0,0,1-.182.2,1.129,1.129,0,0,1-.588-.322,1.891,1.891,0,0,0-1.134-.5.841.841,0,0,0-.91.9,1.61,1.61,0,0,0,.238.826ZM41.713,0l.9-2.366h3.962L47.467,0H49.2L45.535-9.38h-1.82L40.047,0Zm2.38-6.272.5-1.694.5,1.694.952,2.534H43.127ZM55.475.126A4.581,4.581,0,0,0,60.1-4.7a4.577,4.577,0,0,0-4.62-4.816A4.569,4.569,0,0,0,50.855-4.7,4.573,4.573,0,0,0,55.475.126Zm.014-1.512c-1.96,0-2.968-1.372-2.968-3.318s1.008-3.318,2.968-3.318S58.443-6.636,58.443-4.7,57.449-1.386,55.489-1.386ZM73.983,0V-1.4H68.929V-4.088h4.186v-1.4H68.929V-7.98h5.054v-1.4H67.347V0ZM-59.829,18V16.6h-5.054V13.912H-60.7v-1.4h-4.186V10.02h5.054V8.62h-6.636V18Zm4.2,0V12.834l-.112-1.708.854,1.33L-51,18h1.456V8.62h-1.582v5.152l.1,1.778-.924-1.47-3.794-5.46h-1.47V18Zm11.172,0V14.36h1.148a1.66,1.66,0,0,1,1.708.854L-39.977,18h1.82l-1.6-2.7a2.128,2.128,0,0,0-1.274-1.106,2.609,2.609,0,0,0,2.548-2.66c0-1.932-1.428-2.912-3.332-2.912h-4.228V18Zm2.492-7.98c.994,0,1.848.364,1.848,1.554,0,1.134-.854,1.5-1.848,1.5h-2.492V10.02ZM-34.223,18V8.62h-1.582V18Zm9.436,2.744a3.054,3.054,0,0,0,2.45-1.176l-.7-1.694a2.085,2.085,0,0,1-1.848,1.484,1.2,1.2,0,0,1-1.232-1.274A4.578,4.578,0,0,0-22.1,13.3a4.577,4.577,0,0,0-4.62-4.816,4.569,4.569,0,0,0-4.62,4.816,4.578,4.578,0,0,0,4.2,4.816A2.308,2.308,0,0,0-24.787,20.744ZM-26.705,16.6c-1.96,0-2.968-1.386-2.968-3.3s1.008-3.29,2.968-3.29,2.954,1.386,2.954,3.29S-24.745,16.6-26.705,16.6Zm11.1,1.54c2.562,0,3.752-1.3,3.752-4.144V8.62h-1.568v5.39c0,1.862-.6,2.618-2.17,2.618-1.54,0-2.17-.756-2.17-2.618V8.62h-1.568V14C-19.327,16.838-18.109,18.14-15.6,18.14ZM-1.827,18V16.6H-6.881V13.912H-2.7v-1.4H-6.881V10.02h5.054V8.62H-8.463V18Zm6.524.112a4.151,4.151,0,0,0,4.158-2.9L7.483,14.206a2.7,2.7,0,0,1-2.772,2.408c-1.932,0-2.842-1.386-2.842-3.318s.91-3.318,2.842-3.318a2.69,2.69,0,0,1,2.772,2.408l1.372-1.008A4.135,4.135,0,0,0,4.7,8.48C1.813,8.48.189,10.594.189,13.3S1.813,18.112,4.7,18.112ZM13.1,18V8.62H11.515V18Zm5.082,0V13.59L17.955,10.5l1.106,2.688,1.624,3.234h1.6L23.9,13.184,24.983,10.5l-.2,3.094V18h1.582V8.62H24.437l-2.016,4.116-.938,2.394-.924-2.394L18.543,8.62H16.6V18Zm18.326,0V16.6H31.451V13.912h4.186v-1.4H31.451V10.02h5.054V8.62H29.869V18Zm4.2,0V12.834l-.112-1.708.854,1.33L45.339,18h1.456V8.62H45.213v5.152l.1,1.778-.924-1.47L40.593,8.62h-1.47V18Zm12.6,0V10.02h2.884V8.62H48.853v1.4h2.87V18Zm8.848.126a4.581,4.581,0,0,0,4.62-4.83,4.624,4.624,0,1,0-9.24,0A4.573,4.573,0,0,0,62.153,18.126Zm.014-1.512c-1.96,0-2.968-1.372-2.968-3.318s1.008-3.318,2.968-3.318,2.954,1.386,2.954,3.318S64.127,16.614,62.167,16.614Z" transform="translate(83 71.642)" fill="#e3e3e3"/>
      </g>
      <g id="Grupo_23740" data-name="Grupo 23740" transform="translate(0 -2)">
        <g id="Grupo_8278-3" data-name="Grupo 8278" transform="translate(957 369.642)">
          <g data-type="innerShadowGroup">
            <rect id="Retângulo_4355-11" data-name="Retângulo 4355" width="134" height="70" rx="10" fill="#0b1617"/>
            <g transform="matrix(1, 0, 0, 1, -300, -349)" filter="url(#Retângulo_4355-3)">
              <rect id="Retângulo_4355-12" data-name="Retângulo 4355" width="134" height="70" rx="10" transform="translate(300 349)" fill="#fff"/>
            </g>
            <g id="Retângulo_4355-13" data-name="Retângulo 4355" fill="none" stroke="#ff0070" stroke-width="1.5">
              <rect width="134" height="70" rx="10" stroke="none"/>
              <rect x="0.75" y="0.75" width="132.5" height="68.5" rx="9.25" fill="none"/>
            </g>
          </g>
          <g data-type="innerShadowGroup">
            <rect id="Retângulo_4356-11" data-name="Retângulo 4356" width="134" height="70" rx="10" fill="#0b1617" opacity="0.5"/>
            <g transform="matrix(1, 0, 0, 1, -300, -349)" filter="url(#Retângulo_4356-3)">
              <rect id="Retângulo_4356-12" data-name="Retângulo 4356" width="134" height="70" rx="10" transform="translate(300 349)" fill="#fff" opacity="0.5"/>
            </g>
            <g id="Retângulo_4356-13" data-name="Retângulo 4356" fill="none" stroke="#ff0070" stroke-width="1.5" opacity="0.5">
              <rect width="134" height="70" rx="10" stroke="none"/>
              <rect x="0.75" y="0.75" width="132.5" height="68.5" rx="9.25" fill="none"/>
            </g>
          </g>
        </g>
        <path id="Caminho_9829" data-name="Caminho 9829" d="M-38.689,0l.9-2.366h3.962l.9,2.366H-31.2l-3.668-9.38h-1.82L-40.355,0Zm2.38-6.272.5-1.694.5,1.694.952,2.534h-2.926ZM-27.587,0V-5.166L-27.7-6.874l.854,1.33L-22.953,0H-21.5V-9.38h-1.582v5.152l.1,1.778L-23.9-3.92-27.7-9.38h-1.47V0ZM-17.8,0l.9-2.366h3.962l.9,2.366h1.736l-3.668-9.38H-15.8L-19.467,0Zm2.38-6.272.5-1.694.5,1.694.952,2.534h-2.926ZM-1.9,0V-1.4H-6.7V-9.38H-8.281V0ZM2.625,0V-3.388L6.153-9.38H4.319L2.863-6.79,1.841-4.648.861-6.8-.525-9.38h-1.96L1.043-3.388V0Zm9.338,0V-7.98h2.884v-1.4H7.511v1.4h2.87V0Zm6.51,0V-9.38H16.891V0Zm7.392.112a4.151,4.151,0,0,0,4.158-2.9L28.651-3.794a2.7,2.7,0,0,1-2.772,2.408c-1.932,0-2.842-1.386-2.842-3.318s.91-3.318,2.842-3.318a2.69,2.69,0,0,1,2.772,2.408l1.372-1.008a4.135,4.135,0,0,0-4.158-2.9c-2.884,0-4.508,2.114-4.508,4.816S22.981.112,25.865.112ZM36.519.14c1.9,0,3.332-.98,3.332-2.674,0-1.792-1.344-2.38-2.842-2.744l-1.05-.252c-1.022-.252-1.666-.546-1.666-1.372,0-.714.644-1.134,1.54-1.134A2.754,2.754,0,0,1,38.507-6.37L39.7-7.5a4.015,4.015,0,0,0-3.766-2c-1.764,0-3.29.952-3.29,2.716s1.414,2.38,2.744,2.66l.882.2c1.218.266,1.974.518,1.974,1.428,0,.854-.756,1.19-1.694,1.19a3.163,3.163,0,0,1-3.066-1.9l-1.12,1.134A4.262,4.262,0,0,0,36.519.14Zm-83.958,18c1.9,0,3.332-.98,3.332-2.674,0-1.792-1.344-2.38-2.842-2.744L-48,12.47c-1.022-.252-1.666-.546-1.666-1.372,0-.714.644-1.134,1.54-1.134a2.754,2.754,0,0,1,2.674,1.666l1.19-1.134a4.015,4.015,0,0,0-3.766-2c-1.764,0-3.29.952-3.29,2.716s1.414,2.38,2.744,2.66l.882.2c1.218.266,1.974.518,1.974,1.428,0,.854-.756,1.19-1.694,1.19a3.163,3.163,0,0,1-3.066-1.9l-1.12,1.134A4.262,4.262,0,0,0-47.439,18.14Zm12.8-.14V16.6H-39.7V13.912h4.186v-1.4H-39.7V10.02h5.054V8.62h-6.636V18Zm9,0V16.6h-4.8V8.62h-1.582V18Zm3.78,0V14.3h4.074V12.9h-4.074V10.02h4.928V8.62h-6.51V18Zm15.764.14c1.9,0,3.332-.98,3.332-2.674,0-1.792-1.344-2.38-2.842-2.744l-1.05-.252c-1.022-.252-1.666-.546-1.666-1.372,0-.714.644-1.134,1.54-1.134A2.754,2.754,0,0,1-4.109,11.63l1.19-1.134a4.015,4.015,0,0,0-3.766-2c-1.764,0-3.29.952-3.29,2.716s1.414,2.38,2.744,2.66l.882.2c1.218.266,1.974.518,1.974,1.428,0,.854-.756,1.19-1.694,1.19a3.163,3.163,0,0,1-3.066-1.9l-1.12,1.134A4.262,4.262,0,0,0-6.1,18.14ZM6.7,18V16.6H1.645V13.912H5.831v-1.4H1.645V10.02H6.7V8.62H.063V18Zm4.2,0V14.36h1.148a1.66,1.66,0,0,1,1.708.854L15.379,18H17.2l-1.6-2.7a2.128,2.128,0,0,0-1.274-1.106,2.609,2.609,0,0,0,2.548-2.66c0-1.932-1.428-2.912-3.332-2.912H9.317V18Zm2.492-7.98c.994,0,1.848.364,1.848,1.554,0,1.134-.854,1.5-1.848,1.5H10.9V10.02ZM23.793,18l3.43-9.38H25.5l-1.862,5.474-.714,2.7-.7-2.7L20.363,8.62H18.557L21.987,18Zm7.042,0V8.62H29.253V18Zm7.392.112a4.151,4.151,0,0,0,4.158-2.9l-1.372-1.008a2.7,2.7,0,0,1-2.772,2.408c-1.932,0-2.842-1.386-2.842-3.318s.91-3.318,2.842-3.318a2.69,2.69,0,0,1,2.772,2.408l1.372-1.008a4.135,4.135,0,0,0-4.158-2.9c-2.884,0-4.508,2.114-4.508,4.816S35.343,18.112,38.227,18.112ZM51.681,18V16.6H46.627V13.912h4.186v-1.4H46.627V10.02h5.054V8.62H45.045V18Z" transform="translate(1024 401.642)" fill="#e3e3e3"/>
      </g>
      <g id="Grupo_8285" data-name="Grupo 8285" transform="translate(957 448.975)">
        <g id="Grupo_8278-4" data-name="Grupo 8278" transform="translate(0 -0.863)">
          <g data-type="innerShadowGroup">
            <rect id="Retângulo_4355-14" data-name="Retângulo 4355" width="134" height="70" rx="10" transform="translate(0 -0.47)" fill="#0b1617"/>
            <g transform="matrix(1, 0, 0, 1, -300, -429.47)" filter="url(#Retângulo_4355-4)">
              <rect id="Retângulo_4355-15" data-name="Retângulo 4355" width="134" height="70" rx="10" transform="translate(300 429)" fill="#fff"/>
            </g>
            <g id="Retângulo_4355-16" data-name="Retângulo 4355" transform="translate(0 -0.47)" fill="none" stroke="#ff0070" stroke-width="1.5">
              <rect width="134" height="70" rx="10" stroke="none"/>
              <rect x="0.75" y="0.75" width="132.5" height="68.5" rx="9.25" fill="none"/>
            </g>
          </g>
          <g data-type="innerShadowGroup">
            <rect id="Retângulo_4356-14" data-name="Retângulo 4356" width="134" height="70" rx="10" transform="translate(0 -0.47)" fill="#0b1617" opacity="0.5"/>
            <g transform="matrix(1, 0, 0, 1, -300, -429.47)" filter="url(#Retângulo_4356-4)">
              <rect id="Retângulo_4356-15" data-name="Retângulo 4356" width="134" height="70" rx="10" transform="translate(300 429)" fill="#fff" opacity="0.5"/>
            </g>
            <g id="Retângulo_4356-16" data-name="Retângulo 4356" transform="translate(0 -0.47)" fill="none" stroke="#ff0070" stroke-width="1.5" opacity="0.5">
              <rect width="134" height="70" rx="10" stroke="none"/>
              <rect x="0.75" y="0.75" width="132.5" height="68.5" rx="9.25" fill="none"/>
            </g>
          </g>
        </g>
        <path id="Caminho_9830" data-name="Caminho 9830" d="M-32.816.14c1.9,0,3.332-.98,3.332-2.674,0-1.792-1.344-2.38-2.842-2.744l-1.05-.252c-1.022-.252-1.666-.546-1.666-1.372,0-.714.644-1.134,1.54-1.134A2.754,2.754,0,0,1-30.828-6.37l1.19-1.134a4.015,4.015,0,0,0-3.766-2c-1.764,0-3.29.952-3.29,2.716s1.414,2.38,2.744,2.66l.882.2c1.218.266,1.974.518,1.974,1.428,0,.854-.756,1.19-1.694,1.19a3.163,3.163,0,0,1-3.066-1.9l-1.12,1.134A4.262,4.262,0,0,0-32.816.14ZM-20.02,0V-1.4h-5.054V-4.088h4.186v-1.4h-4.186V-7.98h5.054v-1.4h-6.636V0Zm4.2,0V-3.64h1.148a1.66,1.66,0,0,1,1.708.854L-11.34,0h1.82l-1.6-2.7A2.128,2.128,0,0,0-12.39-3.808a2.609,2.609,0,0,0,2.548-2.66c0-1.932-1.428-2.912-3.332-2.912H-17.4V0Zm2.492-7.98c.994,0,1.848.364,1.848,1.554,0,1.134-.854,1.5-1.848,1.5H-15.82V-7.98ZM-2.926,0,.5-9.38H-1.218L-3.08-3.906l-.714,2.7-.7-2.7L-6.356-9.38H-8.162L-4.732,0ZM4.116,0V-9.38H2.534V0Zm7.238,2.632c.784,0,1.3-.42,1.3-1.078,0-.518-.392-.91-1.134-.9L11.9.1a4.1,4.1,0,0,0,3.766-2.884L14.294-3.794a2.7,2.7,0,0,1-2.772,2.408C9.59-1.386,8.68-2.772,8.68-4.7s.91-3.318,2.842-3.318a2.69,2.69,0,0,1,2.772,2.408l1.372-1.008a4.135,4.135,0,0,0-4.158-2.9C8.624-9.52,7-7.406,7-4.7,7-2.156,8.442-.14,11.018.084l-.49.84.28.336a2.853,2.853,0,0,1,.448-.042c.266,0,.448.084.448.322,0,.2-.14.308-.392.308a1.392,1.392,0,0,1-.994-.49l-.294.812A1.953,1.953,0,0,0,11.354,2.632ZM22.47.126A4.581,4.581,0,0,0,27.09-4.7,4.577,4.577,0,0,0,22.47-9.52,4.569,4.569,0,0,0,17.85-4.7,4.573,4.573,0,0,0,22.47.126Zm.014-1.512c-1.96,0-2.968-1.372-2.968-3.318s1.008-3.318,2.968-3.318S25.438-6.636,25.438-4.7,24.444-1.386,22.484-1.386ZM33.67.14C35.574.14,37-.84,37-2.534c0-1.792-1.344-2.38-2.842-2.744L33.11-5.53c-1.022-.252-1.666-.546-1.666-1.372,0-.714.644-1.134,1.54-1.134A2.754,2.754,0,0,1,35.658-6.37L36.848-7.5a4.015,4.015,0,0,0-3.766-2c-1.764,0-3.29.952-3.29,2.716s1.414,2.38,2.744,2.66l.882.2c1.218.266,1.974.518,1.974,1.428,0,.854-.756,1.19-1.694,1.19a3.163,3.163,0,0,1-3.066-1.9l-1.12,1.134A4.262,4.262,0,0,0,33.67.14ZM-33.922,18c2.912,0,4.466-1.792,4.466-4.69s-1.568-4.69-4.466-4.69h-3.542V18Zm-.2-7.98c1.946,0,3.01.938,3.01,3.29s-1.064,3.29-3,3.29h-1.778V10.02ZM-19.936,18V16.6H-24.99V13.912H-20.8v-1.4H-24.99V10.02h5.054V8.62h-6.636V18Zm10.7,0c2.912,0,4.466-1.792,4.466-4.69S-6.342,8.62-9.24,8.62h-3.542V18Zm-.2-7.98c1.946,0,3.01.938,3.01,3.29s-1.064,3.29-3,3.29H-11.2V10.02ZM-1.456,18l.9-2.366H3.4L4.3,18H6.034L2.366,8.62H.546L-3.122,18Zm2.38-6.272.5-1.694.5,1.694.952,2.534H-.042ZM11.606,18c2.912,0,4.466-1.792,4.466-4.69S14.5,8.62,11.606,8.62H8.064V18Zm-.2-7.98c1.946,0,3.01.938,3.01,3.29s-1.064,3.29-3,3.29H9.646V10.02Zm11.872,8.106A4.581,4.581,0,0,0,27.9,13.3a4.624,4.624,0,1,0-9.24,0A4.573,4.573,0,0,0,23.282,18.126Zm.014-1.512c-1.96,0-2.968-1.372-2.968-3.318S21.336,9.978,23.3,9.978,26.25,11.364,26.25,13.3,25.256,16.614,23.3,16.614ZM34.482,18.14c1.9,0,3.332-.98,3.332-2.674,0-1.792-1.344-2.38-2.842-2.744l-1.05-.252c-1.022-.252-1.666-.546-1.666-1.372,0-.714.644-1.134,1.54-1.134A2.754,2.754,0,0,1,36.47,11.63L37.66,10.5a4.015,4.015,0,0,0-3.766-2c-1.764,0-3.29.952-3.29,2.716s1.414,2.38,2.744,2.66l.882.2c1.218.266,1.974.518,1.974,1.428,0,.854-.756,1.19-1.694,1.19a3.163,3.163,0,0,1-3.066-1.9l-1.12,1.134A4.262,4.262,0,0,0,34.482,18.14Z" transform="translate(67 30.667)" fill="#e3e3e3"/>
      </g>
    </g>
  </g>
</svg>
