<svg xmlns="http://www.w3.org/2000/svg" width="418.591" height="231.408" viewBox="0 0 418.591 231.408">
  <g id="Group_7946" data-name="Group 7946" transform="translate(4386.259 8284)">
    <g id="Group_7931" data-name="Group 7931" transform="translate(-4386.259 -8284)">
      <rect id="Rectangle_4328" data-name="Rectangle 4328" width="232.557" height="231.408" transform="translate(93.017)" fill="#fff"/>
      <path id="Path_4" data-name="Path 4" d="M968.917,185.384c51.309,0,93.017-41.45,93.017-92.442S1020.226.5,968.917.5,875.9,41.95,875.9,92.942s41.708,92.442,93.017,92.442Z" transform="translate(-875.9 23.345)" fill="#742698"/>
      <path id="Path_4-2" data-name="Path 4" d="M968.917,185.384c51.309,0,93.017-41.45,93.017-92.442S1020.226.5,968.917.5,875.9,41.95,875.9,92.942s41.708,92.442,93.017,92.442Z" transform="translate(-643.343 23.345)" fill="#742698"/>
    </g>
    <path id="Path_6779" data-name="Path 6779" d="M472.625,34.027l4.73-4.776-4.776-4.776,2.6-6.214-6.214-2.6V8.94h-6.77l-2.55-6.26-6.26,2.6L448.6.5l-4.73,4.776-6.26-2.6-2.55,6.26h-6.77v6.724l-6.214,2.6,2.6,6.214L419.9,29.251l4.73,4.776-2.55,6.214,6.214,2.6v6.724h6.77l2.55,6.26,6.26-2.6L448.6,58l4.776-4.776,6.26,2.6,2.55-6.26h6.77V42.838l6.214-2.6Z" transform="translate(-4679.281 -8197.61)" fill="#21c8db"/>
    <path id="Path_6778" data-name="Path 6778" d="M702.9,31.847l2.55-2.6-2.55-2.6L704.9,23.64l-3.014-2.04,1.391-3.339-3.385-1.391.742-3.571-3.57-.742V8.94H693.4l-.7-3.571-3.571.7-1.391-3.385-3.385,1.391-2.04-3.014L679.3,3.1,676.7.5l-2.55,2.6-3.061-2.04L669.1,4.071l-3.385-1.391-1.391,3.385-3.571-.7-.7,3.571h-3.663v3.617l-3.571.742.7,3.571-3.339,1.391,1.391,3.339-3.061,2.04,2.041,3.014L648,29.251l2.551,2.6-2.041,3.014,3.061,2.04-1.391,3.339,3.339,1.391-.7,3.571,3.571.742v3.617h3.663l.7,3.571,3.571-.7,1.391,3.385,3.385-1.391,1.994,3.014,3.061-2.04L676.7,58l2.6-2.6,3.014,2.04,2.04-3.014,3.385,1.391,1.391-3.385,3.571.7.7-3.571h3.664V45.944l3.57-.742-.742-3.571,3.385-1.391L701.884,36.9l3.014-2.04Z" transform="translate(-4773.26 -8248.722)" fill="#00c8db"/>
    <path id="Path_6780" data-name="Path 6780" d="M240.861,37.69l8.393-8.44-8.393-8.44V8.94H228.944L220.551.5l-8.44,8.44H200.193V20.811l-8.393,8.44,8.393,8.44V49.561h11.918l8.44,8.44,8.393-8.44h11.918Z" transform="translate(-4317.06 -8146.499)" fill="#ff0070"/>
    <g id="Group_7941" data-name="Group 7941" transform="translate(-4152.093 -8197.11)">
      <path id="Path_4-3" data-name="Path 4" d="M904.651,58A28.751,28.751,0,1,0,875.9,29.251,28.775,28.775,0,0,0,904.651,58Z" transform="translate(-875.9 -0.5)" fill="#0b1617"/>
    </g>
    <g id="Group_7944" data-name="Group 7944" transform="translate(-4093.315 -8197.11)">
      <path id="Path_4-4" data-name="Path 4" d="M904.651,58A28.751,28.751,0,1,0,875.9,29.251,28.775,28.775,0,0,0,904.651,58Z" transform="translate(-875.9 -0.5)" fill="#fd1370"/>
    </g>
    <g id="Group_7944-2" data-name="Group 7944" transform="translate(-4318.206 -8197.11)">
      <path id="Path_4-5" data-name="Path 4" d="M904.65,58A28.751,28.751,0,1,1,933.4,29.251,28.775,28.775,0,0,1,904.65,58Z" transform="translate(-875.9 -0.5)" fill="#00c8db"/>
    </g>
    <g id="Group_7942" data-name="Group 7942" transform="translate(-4286.261 -8248.222)">
      <path id="Path_4-6" data-name="Path 4" d="M904.65,58A28.751,28.751,0,1,1,933.4,29.251,28.775,28.775,0,0,1,904.65,58Z" transform="translate(-875.9 -0.5)" fill="#fd1370"/>
    </g>
    <g id="Group_7943" data-name="Group 7943" transform="translate(-4286.261 -8145.999)">
      <path id="Path_4-7" data-name="Path 4" d="M904.65,58A28.751,28.751,0,1,1,933.4,29.251,28.775,28.775,0,0,1,904.65,58Z" transform="translate(-875.9 -0.5)" fill="#0b1617"/>
    </g>
  </g>
</svg>
