<svg xmlns="http://www.w3.org/2000/svg" width="116.121" height="24.93" viewBox="0 0 116.121 24.93">
  <g id="logo-nova-marisa" transform="translate(0 0)" style="isolation: isolate">
    <path id="Caminho_6797" data-name="Caminho 6797" d="M43.54,7.553a9.979,9.979,0,0,0-12.88.269l-.139.131-.138-.131a9.483,9.483,0,0,0-6.491-2.493A9.551,9.551,0,0,0,17.5,7.553,6.671,6.671,0,0,0,15,13.214v16.63h4.523V13.214a4.109,4.109,0,0,1,4.368-3.9,4.109,4.109,0,0,1,4.368,3.9v16.63h4.523V13.214a4.109,4.109,0,0,1,4.367-3.9,4.109,4.109,0,0,1,4.368,3.9v16.63h4.522V13.214a6.675,6.675,0,0,0-2.5-5.661" transform="translate(-15 -5.313)" fill="#dedede"/>
    <path id="Caminho_6798" data-name="Caminho 6798" d="M199.621,7.529a8.961,8.961,0,0,0-6.278-2.2,10.691,10.691,0,0,0-7.9,3.621l1.864,3.274.009-.01c1.115-1.208,4.165-3.869,8.375-2.48l.019.007a2.914,2.914,0,0,1,1.9,2.724v.01a5.454,5.454,0,0,1,.033.615v1.284l-4.865.967a13.038,13.038,0,0,0-5.61,2.346,6.414,6.414,0,0,0-2.6,5.238A6.634,6.634,0,0,0,187.27,28.4a9.915,9.915,0,0,0,5.987,1.845,9.244,9.244,0,0,0,6.035-2.129,7.318,7.318,0,0,0,2.6-5.634V13.093a6.958,6.958,0,0,0-2.275-5.564M197.647,22.48a4.081,4.081,0,0,1-1.129,2.884,4.492,4.492,0,0,1-3.3,1.253A4.843,4.843,0,0,1,189.5,25.2a3.117,3.117,0,0,1-.305-3.47c1.086-1.972,3.565-2.715,5.848-3.182l.252-.051c.506-.1,1.69-.343,2.109-.431l.241-.051V22.48Z" transform="translate(-150.421 -5.313)" fill="#dedede"/>
    <path id="Caminho_6799" data-name="Caminho 6799" d="M303.045,7.228a9.149,9.149,0,0,0-1.138-.858,6.836,6.836,0,0,0-2.777-1.062,9.411,9.411,0,0,0-5.546,1.11,7.349,7.349,0,0,0-1.427,1.044,6.534,6.534,0,0,0-2.274,5.564V29.778h4.247V13.938c0-.379,0-.759,0-1.138a4.131,4.131,0,0,1,.114-1.144,3.213,3.213,0,0,1,1.07-1.593,3.392,3.392,0,0,1,.753-.466,4.444,4.444,0,0,1,4.874,1.069c1.894-1.763,2.6-2.425,2.877-2.676-.225-.25-.683-.68-.775-.762" transform="translate(-234.517 -5.246)" fill="#dedede"/>
    <path id="Caminho_6800" data-name="Caminho 6800" d="M514.3,5.329a10.69,10.69,0,0,0-7.9,3.621l1.864,3.274.009-.01c1.116-1.208,4.165-3.869,8.375-2.48l.019.007a2.915,2.915,0,0,1,1.9,2.724v.01a5.5,5.5,0,0,1,.033.615v1.284l-4.865.967a13.034,13.034,0,0,0-5.61,2.346,6.413,6.413,0,0,0-2.6,5.238,6.634,6.634,0,0,0,2.694,5.471,9.916,9.916,0,0,0,5.987,1.845,9.245,9.245,0,0,0,6.035-2.129,7.318,7.318,0,0,0,2.6-5.634V13.092a7.4,7.4,0,0,0-2.274-5.564,8.966,8.966,0,0,0-6.279-2.2m4.3,17.15a4.08,4.08,0,0,1-1.129,2.884,4.492,4.492,0,0,1-3.3,1.253,4.845,4.845,0,0,1-3.711-1.418,3.117,3.117,0,0,1-.3-3.47c1.086-1.972,3.565-2.715,5.848-3.182l.244-.05c.507-.1,1.7-.344,2.117-.432l.24-.051v4.465Z" transform="translate(-406.733 -5.313)" fill="#dedede"/>
    <path id="Caminho_6801" data-name="Caminho 6801" d="M419.938,16.755a26.721,26.721,0,0,0-3.5-1.474l-.187-.067a22.285,22.285,0,0,1-2.446-1,2.986,2.986,0,0,1-1.732-1.716l-.006-.021a1.985,1.985,0,0,1,.38-1.783,3.6,3.6,0,0,1,1.766-1.072,6.21,6.21,0,0,1,1.091-.23,7.285,7.285,0,0,1,4.039.7,9.3,9.3,0,0,1,2.409,1.7c.035.033.336.336.407.417l.01.011.006-.011,1.858-3.264a10.691,10.691,0,0,0-7.9-3.621,9.522,9.522,0,0,0-6.583,2.319,6,6,0,0,0-1.628,5.94,6.969,6.969,0,0,0,3.639,4.085,27.461,27.461,0,0,0,3.613,1.522l.143.051a15.188,15.188,0,0,1,2.9,1.277,2.927,2.927,0,0,1,1.592,2.525,3.438,3.438,0,0,1-2.384,2.929,6.492,6.492,0,0,1-4.4-.017,11.252,11.252,0,0,1-3.9-2.556l-1.915,3.219a10.69,10.69,0,0,0,7.9,3.62c.347,0,.7-.016,1.053-.047l.217-.019v.005h.008a9.808,9.808,0,0,0,4.947-1.844,6.684,6.684,0,0,0,1.5-9.221,8.428,8.428,0,0,0-2.9-2.359" transform="translate(-328.215 -5.312)" fill="#dedede"/>
    <rect id="Retângulo_4347" data-name="Retângulo 4347" width="4.247" height="24.108" transform="translate(71.638 0.423)" fill="#dedede"/>
  </g>
</svg>
