<svg xmlns="http://www.w3.org/2000/svg" xmlns:xlink="http://www.w3.org/1999/xlink" width="432.365" height="567.811" viewBox="0 0 432.365 567.811">
  <defs>
    <filter id="Elipse_2180">
      <feOffset input="SourceAlpha"/>
      <feGaussianBlur stdDeviation="20" result="blur"/>
      <feFlood flood-color="#742698" result="color"/>
      <feComposite operator="out" in="SourceGraphic" in2="blur"/>
      <feComposite operator="in" in="color"/>
      <feComposite operator="in" in2="SourceGraphic"/>
    </filter>
    <filter id="Elipse_2179">
      <feOffset input="SourceAlpha"/>
      <feGaussianBlur stdDeviation="20" result="blur-2"/>
      <feFlood flood-color="#742698" result="color-2"/>
      <feComposite operator="out" in="SourceGraphic" in2="blur-2"/>
      <feComposite operator="in" in="color-2"/>
      <feComposite operator="in" in2="SourceGraphic"/>
    </filter>
    <filter id="Elipse_2178">
      <feOffset input="SourceAlpha"/>
      <feGaussianBlur stdDeviation="20" result="blur-3"/>
      <feFlood flood-color="#742698" result="color-3"/>
      <feComposite operator="out" in="SourceGraphic" in2="blur-3"/>
      <feComposite operator="in" in="color-3"/>
      <feComposite operator="in" in2="SourceGraphic"/>
    </filter>
    <filter id="Elipse_2177">
      <feOffset input="SourceAlpha"/>
      <feGaussianBlur stdDeviation="20" result="blur-4"/>
      <feFlood flood-color="#ff0070" result="color-4"/>
      <feComposite operator="out" in="SourceGraphic" in2="blur-4"/>
      <feComposite operator="in" in="color-4"/>
      <feComposite operator="in" in2="SourceGraphic"/>
    </filter>
    <radialGradient id="radial-gradient" cx="0.5" cy="0.5" r="0.5" gradientUnits="objectBoundingBox">
      <stop offset="0" stop-color="#af39e6"/>
      <stop offset="1" stop-color="#0b1617" stop-opacity="0"/>
    </radialGradient>
  </defs>
  <g id="Grupo_24185" data-name="Grupo 24185" transform="translate(-656.203 -80.381)">
    <g id="Grupo_23769" data-name="Grupo 23769" transform="translate(656.203 347.015)">
      <g data-type="innerShadowGroup">
        <ellipse id="Elipse_2180-2" data-name="Elipse 2180" cx="210.867" cy="150.588" rx="210.867" ry="150.588" transform="translate(0 0)" fill="#0b1617"/>
        <g transform="matrix(1, 0, 0, 1, 0, -266.63)" filter="url(#Elipse_2180)">
          <ellipse id="Elipse_2180-3" data-name="Elipse 2180" cx="210.867" cy="150.588" rx="210.867" ry="150.588" transform="translate(0 266.63)" fill="#fff"/>
        </g>
        <g id="Elipse_2180-4" data-name="Elipse 2180" transform="translate(0 0)" fill="none" stroke="#af39e6" stroke-width="1">
          <ellipse cx="210.867" cy="150.588" rx="210.867" ry="150.588" stroke="none"/>
          <ellipse cx="210.867" cy="150.588" rx="210.367" ry="150.088" fill="none"/>
        </g>
      </g>
      <g data-type="innerShadowGroup">
        <ellipse id="Elipse_2179-2" data-name="Elipse 2179" cx="170.546" cy="116.333" rx="170.546" ry="116.333" transform="translate(21.459 63.993)" fill="#0b1617"/>
        <g transform="matrix(1, 0, 0, 1, 0, -266.63)" filter="url(#Elipse_2179)">
          <ellipse id="Elipse_2179-3" data-name="Elipse 2179" cx="170.546" cy="116.333" rx="170.546" ry="116.333" transform="translate(21.46 330.63)" fill="#fff"/>
        </g>
        <g id="Elipse_2179-4" data-name="Elipse 2179" transform="translate(21.459 63.993)" fill="none" stroke="#af39e6" stroke-width="1">
          <ellipse cx="170.546" cy="116.333" rx="170.546" ry="116.333" stroke="none"/>
          <ellipse cx="170.546" cy="116.333" rx="170.046" ry="115.833" fill="none"/>
        </g>
      </g>
      <g data-type="innerShadowGroup">
        <ellipse id="Elipse_2178-2" data-name="Elipse 2178" cx="131.58" cy="83.014" rx="131.58" ry="83.014" transform="translate(40.66 126.113)" fill="#0b1617"/>
        <g transform="matrix(1, 0, 0, 1, 0, -266.63)" filter="url(#Elipse_2178)">
          <ellipse id="Elipse_2178-3" data-name="Elipse 2178" cx="131.58" cy="83.014" rx="131.58" ry="83.014" transform="translate(40.66 392.75)" fill="#fff"/>
        </g>
        <g id="Elipse_2178-4" data-name="Elipse 2178" transform="translate(40.66 126.113)" fill="none" stroke="#af39e6" stroke-width="1">
          <ellipse cx="131.58" cy="83.014" rx="131.58" ry="83.014" stroke="none"/>
          <ellipse cx="131.58" cy="83.014" rx="131.08" ry="82.514" fill="none"/>
        </g>
      </g>
      <g data-type="innerShadowGroup">
        <ellipse id="Elipse_2177-2" data-name="Elipse 2177" cx="94.308" cy="44.613" rx="94.308" ry="44.613" transform="translate(57.602 195.009)" fill="#0b1617"/>
        <g transform="matrix(1, 0, 0, 1, 0, -266.63)" filter="url(#Elipse_2177)">
          <ellipse id="Elipse_2177-3" data-name="Elipse 2177" cx="94.308" cy="44.613" rx="94.308" ry="44.613" transform="translate(57.6 461.64)" fill="#fff"/>
        </g>
        <g id="Elipse_2177-4" data-name="Elipse 2177" transform="translate(57.602 195.009)" fill="none" stroke="#ff0070" stroke-width="1">
          <ellipse cx="94.308" cy="44.613" rx="94.308" ry="44.613" stroke="none"/>
          <ellipse cx="94.308" cy="44.613" rx="93.808" ry="44.113" fill="none"/>
        </g>
      </g>
      <path id="Caminho_9584" data-name="Caminho 9584" d="M-44.556,0V-2.544h1.932c1.7,0,3.012-.876,3.012-2.712,0-1.92-1.32-2.784-3.012-2.784h-3.288V0Zm1.8-6.84c.924,0,1.74.336,1.74,1.584,0,1.164-.816,1.512-1.74,1.512h-1.8v-3.1ZM-36.048,0V-3.12h.984a1.423,1.423,0,0,1,1.464.732L-32.208,0h1.56l-1.368-2.316a1.824,1.824,0,0,0-1.092-.948,2.236,2.236,0,0,0,2.184-2.28c0-1.656-1.224-2.5-2.856-2.5H-37.4V0Zm2.136-6.84c.852,0,1.584.312,1.584,1.332,0,.972-.732,1.284-1.584,1.284h-2.136V-6.84Zm8.9,6.948a3.927,3.927,0,0,0,3.96-4.14,3.923,3.923,0,0,0-3.96-4.128,3.916,3.916,0,0,0-3.96,4.128A3.92,3.92,0,0,0-25.008.108Zm.012-1.3c-1.68,0-2.544-1.176-2.544-2.844S-26.676-6.876-25-6.876s2.532,1.188,2.532,2.844S-23.316-1.188-25-1.188ZM-17.22,0V-2.544h1.932c1.7,0,3.012-.876,3.012-2.712,0-1.92-1.32-2.784-3.012-2.784h-3.288V0Zm1.8-6.84c.924,0,1.74.336,1.74,1.584,0,1.164-.816,1.512-1.74,1.512h-1.8v-3.1ZM-6.348.108a3.927,3.927,0,0,0,3.96-4.14A3.923,3.923,0,0,0-6.348-8.16a3.916,3.916,0,0,0-3.96,4.128A3.92,3.92,0,0,0-6.348.108Zm.012-1.3c-1.68,0-2.544-1.176-2.544-2.844s.864-2.844,2.544-2.844S-3.8-5.688-3.8-4.032-4.656-1.188-6.336-1.188ZM3.252.12c1.632,0,2.856-.84,2.856-2.292,0-1.536-1.152-2.04-2.436-2.352l-.9-.216C1.9-4.956,1.344-5.208,1.344-5.916c0-.612.552-.972,1.32-.972A2.361,2.361,0,0,1,4.956-5.46l1.02-.972A3.442,3.442,0,0,0,2.748-8.148c-1.512,0-2.82.816-2.82,2.328S1.14-3.78,2.28-3.54l.756.168c1.044.228,1.692.444,1.692,1.224,0,.732-.648,1.02-1.452,1.02A2.712,2.712,0,0,1,.648-2.76l-.96.972A3.653,3.653,0,0,0,3.252.12ZM11.184,0V-6.84h2.472v-1.2H7.368v1.2h2.46V0Zm4.188,0,.768-2.028h3.4L20.3,0h1.488L18.648-8.04h-1.56L13.944,0Zm2.04-5.376.432-1.452.432,1.452L19.092-3.2H16.584ZM30.576,0c2.5,0,3.828-1.536,3.828-4.02S33.06-8.04,30.576-8.04H27.54V0Zm-.168-6.84c1.668,0,2.58.8,2.58,2.82S32.076-1.2,30.42-1.2H28.9V-6.84ZM42.564,0V-1.2H38.232V-3.5H41.82V-4.7H38.232V-6.84h4.332v-1.2H36.876V0ZM-47.214,14l2.94-8.04H-45.75l-1.6,4.692-.612,2.316-.6-2.316-1.6-4.692H-51.7l2.94,8.04Zm4.956,0,.768-2.028h3.4L-37.326,14h1.488l-3.144-8.04h-1.56L-43.686,14Zm2.04-5.376.432-1.452.432,1.452.816,2.172h-2.508ZM-28.626,14V12.8h-4.116V5.96H-34.1V14Zm5.16.108a3.927,3.927,0,0,0,3.96-4.14,3.923,3.923,0,0,0-3.96-4.128,3.916,3.916,0,0,0-3.96,4.128A3.92,3.92,0,0,0-23.466,14.108Zm.012-1.3c-1.68,0-2.544-1.176-2.544-2.844s.864-2.844,2.544-2.844,2.532,1.188,2.532,2.844S-21.774,12.812-23.454,12.812ZM-15.678,14V10.88h.984a1.423,1.423,0,0,1,1.464.732L-11.838,14h1.56l-1.368-2.316a1.824,1.824,0,0,0-1.092-.948,2.236,2.236,0,0,0,2.184-2.28c0-1.656-1.224-2.5-2.856-2.5h-3.624V14Zm2.136-6.84c.852,0,1.584.312,1.584,1.332,0,.972-.732,1.284-1.584,1.284h-2.136V7.16ZM1.29,14V12.8H-3.042V10.5H.546V9.3H-3.042V7.16H1.29V5.96H-4.4V14Zm7.716,0V12.8H4.89V5.96H3.534V14Zm7.572,0V12.8H12.246V10.5h3.588V9.3H12.246V7.16h4.332V5.96H10.89V14Zm5.88,0L25.4,5.96H23.922l-1.6,4.692-.612,2.316-.6-2.316-1.6-4.692H17.97L20.91,14Zm4.956,0,.768-2.028h3.4L32.346,14h1.488L30.69,5.96H29.13L25.986,14Zm2.04-5.376.432-1.452.432,1.452.816,2.172H28.626ZM38.61,14c2.5,0,3.828-1.536,3.828-4.02S41.094,5.96,38.61,5.96H35.574V14Zm-.168-6.84c1.668,0,2.58.8,2.58,2.82s-.912,2.82-2.568,2.82H36.93V7.16ZM45.282,14l.768-2.028h3.4L50.214,14H51.7L48.558,5.96H47L43.854,14Zm2.04-5.376.432-1.452.432,1.452L49,10.8H46.494Z" transform="translate(143.815 234.826)" fill="#e3e3e3"/>
      <path id="Caminho_9585" data-name="Caminho 9585" d="M-28.128.12c1.632,0,2.856-.84,2.856-2.292,0-1.536-1.152-2.04-2.436-2.352l-.9-.216c-.876-.216-1.428-.468-1.428-1.176,0-.612.552-.972,1.32-.972A2.361,2.361,0,0,1-26.424-5.46l1.02-.972a3.442,3.442,0,0,0-3.228-1.716c-1.512,0-2.82.816-2.82,2.328S-30.24-3.78-29.1-3.54l.756.168c1.044.228,1.692.444,1.692,1.224,0,.732-.648,1.02-1.452,1.02A2.712,2.712,0,0,1-30.732-2.76l-.96.972A3.653,3.653,0,0,0-28.128.12ZM-17.16,0V-1.2h-4.332V-3.5H-17.9V-4.7h-3.588V-6.84h4.332v-1.2h-5.688V0Zm3.6,0V-3.12h.984a1.423,1.423,0,0,1,1.464.732L-9.72,0h1.56L-9.528-2.316a1.824,1.824,0,0,0-1.092-.948,2.236,2.236,0,0,0,2.184-2.28c0-1.656-1.224-2.5-2.856-2.5h-3.624V0Zm2.136-6.84c.852,0,1.584.312,1.584,1.332,0,.972-.732,1.284-1.584,1.284H-13.56V-6.84ZM-2.508,0,.432-8.04H-1.044l-1.6,4.692-.612,2.316-.6-2.316-1.6-4.692H-7L-4.056,0ZM3.528,0V-8.04H2.172V0Zm6.2,2.256c.672,0,1.116-.36,1.116-.924,0-.444-.336-.78-.972-.768L10.2.084a3.516,3.516,0,0,0,3.228-2.472l-1.176-.864A2.315,2.315,0,0,1,9.876-1.188C8.22-1.188,7.44-2.376,7.44-4.032s.78-2.844,2.436-2.844a2.305,2.305,0,0,1,2.376,2.064l1.176-.864A3.544,3.544,0,0,0,9.864-8.16C7.392-8.16,6-6.348,6-4.032A3.776,3.776,0,0,0,9.444.072l-.42.72.24.288a2.445,2.445,0,0,1,.384-.036c.228,0,.384.072.384.276,0,.168-.12.264-.336.264a1.193,1.193,0,0,1-.852-.42l-.252.7A1.674,1.674,0,0,0,9.732,2.256ZM19.26.108a3.927,3.927,0,0,0,3.96-4.14A3.923,3.923,0,0,0,19.26-8.16,3.916,3.916,0,0,0,15.3-4.032,3.92,3.92,0,0,0,19.26.108Zm.012-1.3c-1.68,0-2.544-1.176-2.544-2.844s.864-2.844,2.544-2.844S21.8-5.688,21.8-4.032,20.952-1.188,19.272-1.188ZM28.86.12c1.632,0,2.856-.84,2.856-2.292,0-1.536-1.152-2.04-2.436-2.352l-.9-.216c-.876-.216-1.428-.468-1.428-1.176,0-.612.552-.972,1.32-.972A2.361,2.361,0,0,1,30.564-5.46l1.02-.972a3.442,3.442,0,0,0-3.228-1.716c-1.512,0-2.82.816-2.82,2.328s1.212,2.04,2.352,2.28l.756.168c1.044.228,1.692.444,1.692,1.224,0,.732-.648,1.02-1.452,1.02A2.712,2.712,0,0,1,26.256-2.76l-.96.972A3.653,3.653,0,0,0,28.86.12ZM-23.154,14c2.5,0,3.828-1.536,3.828-4.02s-1.344-4.02-3.828-4.02H-26.19V14Zm-.168-6.84c1.668,0,2.58.8,2.58,2.82s-.912,2.82-2.568,2.82h-1.524V7.16ZM-15.5,14V5.96h-1.356V14Zm5.772.1c1.788,0,2.808-1.308,2.868-3.12L-6.486,14h.864V9.836H-9.294v1.14h2.316a2.116,2.116,0,0,1-2.244,1.848c-1.584,0-2.364-1.152-2.364-2.856,0-1.668.768-2.844,2.448-2.844a2.237,2.237,0,0,1,2.3,1.824l1.176-.84A3.486,3.486,0,0,0-9.15,5.84c-2.5,0-3.876,1.764-3.876,4.128C-13.026,12.524-11.79,14.1-9.726,14.1Zm8.172-.1V5.96H-2.91V14Zm5.58,0V7.16H6.5V5.96H.21v1.2H2.67V14Zm4.188,0,.768-2.028h3.4L13.146,14h1.488L11.49,5.96H9.93L6.786,14Zm2.04-5.376.432-1.452.432,1.452.816,2.172H9.426ZM17.73,14V5.96H16.374V14Zm5.9.12c1.632,0,2.856-.84,2.856-2.292,0-1.536-1.152-2.04-2.436-2.352l-.9-.216c-.876-.216-1.428-.468-1.428-1.176,0-.612.552-.972,1.32-.972A2.361,2.361,0,0,1,25.338,8.54l1.02-.972A3.442,3.442,0,0,0,23.13,5.852c-1.512,0-2.82.816-2.82,2.328s1.212,2.04,2.352,2.28l.756.168c1.044.228,1.692.444,1.692,1.224,0,.732-.648,1.02-1.452,1.02A2.712,2.712,0,0,1,21.03,11.24l-.96.972A3.653,3.653,0,0,0,23.634,14.12Z" transform="translate(170.331 161.412)" fill="#e3e3e3"/>
      <path id="Caminho_9586" data-name="Caminho 9586" d="M-44.892.1a3.558,3.558,0,0,0,3.564-2.484L-42.5-3.252A2.315,2.315,0,0,1-44.88-1.188c-1.656,0-2.436-1.188-2.436-2.844s.78-2.844,2.436-2.844A2.305,2.305,0,0,1-42.5-4.812l1.176-.864A3.544,3.544,0,0,0-44.892-8.16c-2.472,0-3.864,1.812-3.864,4.128S-47.364.1-44.892.1Zm9.4.012a3.927,3.927,0,0,0,3.96-4.14A3.923,3.923,0,0,0-35.5-8.16a3.916,3.916,0,0,0-3.96,4.128A3.92,3.92,0,0,0-35.5.108Zm.012-1.3c-1.68,0-2.544-1.176-2.544-2.844s.864-2.844,2.544-2.844,2.532,1.188,2.532,2.844S-33.8-1.188-35.484-1.188ZM-27.708,0V-3.78L-27.9-6.432l.948,2.3,1.392,2.772h1.368L-22.8-4.128l.924-2.3-.168,2.652V0h1.356V-8.04h-1.656l-1.728,3.528-.8,2.052-.792-2.052L-27.4-8.04h-1.668V0Zm11.376,0V-2.544H-14.4c1.7,0,3.012-.876,3.012-2.712,0-1.92-1.32-2.784-3.012-2.784h-3.288V0Zm1.8-6.84c.924,0,1.74.336,1.74,1.584,0,1.164-.816,1.512-1.74,1.512h-1.8v-3.1ZM-5.46.108A3.927,3.927,0,0,0-1.5-4.032,3.923,3.923,0,0,0-5.46-8.16,3.916,3.916,0,0,0-9.42-4.032,3.92,3.92,0,0,0-5.46.108Zm.012-1.3c-1.68,0-2.544-1.176-2.544-2.844s.864-2.844,2.544-2.844,2.532,1.188,2.532,2.844S-3.768-1.188-5.448-1.188ZM2.328,0V-4.428l-.1-1.464.732,1.14L6.3,0H7.548V-8.04H6.192v4.416L6.276-2.1,5.484-3.36,2.232-8.04H.972V0ZM16.236,0V-1.2H11.9V-3.5h3.588V-4.7H11.9V-6.84h4.332v-1.2H10.548V0Zm3.6,0V-4.428l-.1-1.464.732,1.14L23.808,0h1.248V-8.04H23.7v4.416L23.784-2.1l-.792-1.26L19.74-8.04H18.48V0Zm10.8,0V-6.84h2.472v-1.2H26.82v1.2h2.46V0Zm9.912,0V-1.2H36.216V-3.5H39.8V-4.7H36.216V-6.84h4.332v-1.2H34.86V0Zm5.388.12c1.632,0,2.856-.84,2.856-2.292,0-1.536-1.152-2.04-2.436-2.352l-.9-.216c-.876-.216-1.428-.468-1.428-1.176,0-.612.552-.972,1.32-.972A2.361,2.361,0,0,1,47.64-5.46l1.02-.972a3.442,3.442,0,0,0-3.228-1.716c-1.512,0-2.82.816-2.82,2.328s1.212,2.04,2.352,2.28l.756.168c1.044.228,1.692.444,1.692,1.224,0,.732-.648,1.02-1.452,1.02A2.712,2.712,0,0,1,43.332-2.76l-.96.972A3.653,3.653,0,0,0,45.936.12ZM-53.028,14c2.5,0,3.828-1.536,3.828-4.02s-1.344-4.02-3.828-4.02h-3.036V14ZM-53.2,7.16c1.668,0,2.58.8,2.58,2.82s-.912,2.82-2.568,2.82h-1.524V7.16ZM-41.04,14V12.8h-4.332V10.5h3.588V9.3h-3.588V7.16h4.332V5.96h-5.688V14Zm9.732.1a3.558,3.558,0,0,0,3.564-2.484l-1.176-.864A2.315,2.315,0,0,1-31.3,12.812c-1.656,0-2.436-1.188-2.436-2.844s.78-2.844,2.436-2.844A2.305,2.305,0,0,1-28.92,9.188l1.176-.864A3.544,3.544,0,0,0-31.308,5.84c-2.472,0-3.864,1.812-3.864,4.128S-33.78,14.1-31.308,14.1Zm7.2-.1V10.88h.984a1.423,1.423,0,0,1,1.464.732L-20.268,14h1.56l-1.368-2.316a1.824,1.824,0,0,0-1.092-.948,2.236,2.236,0,0,0,2.184-2.28c0-1.656-1.224-2.5-2.856-2.5h-3.624V14Zm2.136-6.84c.852,0,1.584.312,1.584,1.332,0,.972-.732,1.284-1.584,1.284h-2.136V7.16ZM-11,14V12.8h-4.332V10.5h3.588V9.3h-3.588V7.16H-11V5.96h-5.688V14Zm5.388.12c1.632,0,2.856-.84,2.856-2.292,0-1.536-1.152-2.04-2.436-2.352l-.9-.216c-.876-.216-1.428-.468-1.428-1.176,0-.612.552-.972,1.32-.972A2.361,2.361,0,0,1-3.912,8.54l1.02-.972A3.442,3.442,0,0,0-6.12,5.852c-1.512,0-2.82.816-2.82,2.328s1.212,2.04,2.352,2.28l.756.168c1.044.228,1.692.444,1.692,1.224,0,.732-.648,1.02-1.452,1.02A2.712,2.712,0,0,1-8.22,11.24l-.96.972A3.653,3.653,0,0,0-5.616,14.12ZM3.12,14.1a3.558,3.558,0,0,0,3.564-2.484l-1.176-.864a2.315,2.315,0,0,1-2.376,2.064C1.476,12.812.7,11.624.7,9.968s.78-2.844,2.436-2.844A2.305,2.305,0,0,1,5.508,9.188l1.176-.864A3.544,3.544,0,0,0,3.12,5.84C.648,5.84-.744,7.652-.744,9.968S.648,14.1,3.12,14.1Zm7.2-.1V5.96H8.964V14Zm4.356,0V10.22l-.192-2.652.948,2.3,1.392,2.772h1.368l1.392-2.772.924-2.3L20.34,10.22V14H21.7V5.96H20.04L18.312,9.488l-.8,2.052-.792-2.052L14.988,5.96H13.32V14Zm15.708,0V12.8H26.052V10.5H29.64V9.3H26.052V7.16h4.332V5.96H24.7V14Zm3.6,0V9.572l-.1-1.464.732,1.14L37.956,14H39.2V5.96H37.848v4.416l.084,1.524-.792-1.26L33.888,5.96h-1.26V14Zm10.8,0V7.16h2.472V5.96H40.968v1.2h2.46V14Zm7.584.108a3.927,3.927,0,0,0,3.96-4.14,3.963,3.963,0,1,0-7.92,0A3.92,3.92,0,0,0,52.368,14.108Zm.012-1.3c-1.68,0-2.544-1.176-2.544-2.844S50.7,7.124,52.38,7.124s2.532,1.188,2.532,2.844S54.06,12.812,52.38,12.812Z" transform="translate(197.607 91.821)" fill="#e3e3e3"/>
      <path id="Caminho_9587" data-name="Caminho 9587" d="M-70.524,0V-2.544h1.932c1.7,0,3.012-.876,3.012-2.712,0-1.92-1.32-2.784-3.012-2.784H-71.88V0Zm1.8-6.84c.924,0,1.74.336,1.74,1.584,0,1.164-.816,1.512-1.74,1.512h-1.8v-3.1ZM-59.652.108a3.927,3.927,0,0,0,3.96-4.14,3.923,3.923,0,0,0-3.96-4.128,3.916,3.916,0,0,0-3.96,4.128A3.92,3.92,0,0,0-59.652.108Zm.012-1.3c-1.68,0-2.544-1.176-2.544-2.844s.864-2.844,2.544-2.844,2.532,1.188,2.532,2.844S-57.96-1.188-59.64-1.188ZM-51.864,0V-4.428l-.1-1.464.732,1.14L-47.892,0h1.248V-8.04H-48v4.416l.084,1.524-.792-1.26L-51.96-8.04h-1.26V0Zm10.8,0V-6.84h2.472v-1.2H-44.88v1.2h2.46V0Zm7.584.108a3.927,3.927,0,0,0,3.96-4.14A3.923,3.923,0,0,0-33.48-8.16a3.916,3.916,0,0,0-3.96,4.128A3.92,3.92,0,0,0-33.48.108Zm.012-1.3c-1.68,0-2.544-1.176-2.544-2.844s.864-2.844,2.544-2.844,2.532,1.188,2.532,2.844S-31.788-1.188-33.468-1.188ZM-23.88.12c1.632,0,2.856-.84,2.856-2.292,0-1.536-1.152-2.04-2.436-2.352l-.9-.216c-.876-.216-1.428-.468-1.428-1.176,0-.612.552-.972,1.32-.972A2.361,2.361,0,0,1-22.176-5.46l1.02-.972a3.442,3.442,0,0,0-3.228-1.716c-1.512,0-2.82.816-2.82,2.328s1.212,2.04,2.352,2.28l.756.168c1.044.228,1.692.444,1.692,1.224,0,.732-.648,1.02-1.452,1.02A2.712,2.712,0,0,1-26.484-2.76l-.96.972A3.653,3.653,0,0,0-23.88.12ZM-11.808,0c2.5,0,3.828-1.536,3.828-4.02s-1.344-4.02-3.828-4.02h-3.036V0Zm-.168-6.84c1.668,0,2.58.8,2.58,2.82s-.912,2.82-2.568,2.82h-1.524V-6.84ZM.18,0V-1.2H-4.152V-3.5H-.564V-4.7H-4.152V-6.84H.18v-1.2H-5.508V0ZM12,0V-1.2H7.668V-3.5h3.588V-4.7H7.668V-6.84H12v-1.2H6.312V0Zm3.108,0,2.064-3.288L19.284,0h1.7l-2.82-4.08,2.64-3.96h-1.62L17.232-4.9,15.312-8.04H13.6l2.652,3.888L13.416,0ZM26.016,0V-6.84h2.472v-1.2H22.2v1.2h2.46V0Zm9.912,0V-1.2H31.6V-3.5h3.588V-4.7H31.6V-6.84h4.332v-1.2H30.24V0Zm3.6,0V-4.428l-.1-1.464.732,1.14L43.5,0h1.248V-8.04H43.392v4.416L43.476-2.1l-.792-1.26L39.432-8.04h-1.26V0ZM50.652.12c1.632,0,2.856-.84,2.856-2.292,0-1.536-1.152-2.04-2.436-2.352l-.9-.216c-.876-.216-1.428-.468-1.428-1.176,0-.612.552-.972,1.32-.972A2.361,2.361,0,0,1,52.356-5.46l1.02-.972a3.442,3.442,0,0,0-3.228-1.716c-1.512,0-2.82.816-2.82,2.328S48.54-3.78,49.68-3.54l.756.168c1.044.228,1.692.444,1.692,1.224,0,.732-.648,1.02-1.452,1.02A2.712,2.712,0,0,1,48.048-2.76l-.96.972A3.653,3.653,0,0,0,50.652.12ZM58.32-8.8a.986.986,0,0,1-.24-.54.149.149,0,0,1,.156-.168,1.093,1.093,0,0,1,.516.276,1.73,1.73,0,0,0,1.008.444.673.673,0,0,0,.7-.756,1.348,1.348,0,0,0-.2-.708H59.46a.915.915,0,0,1,.252.516.155.155,0,0,1-.156.168.968.968,0,0,1-.5-.276,1.621,1.621,0,0,0-.972-.432.721.721,0,0,0-.78.768,1.38,1.38,0,0,0,.2.708ZM56.388,0l.768-2.028h3.4L61.32,0h1.488L59.664-8.04H58.1L54.96,0Zm2.04-5.376.432-1.452.432,1.452L60.108-3.2H57.6ZM68.184.108a3.927,3.927,0,0,0,3.96-4.14,3.923,3.923,0,0,0-3.96-4.128,3.916,3.916,0,0,0-3.96,4.128A3.92,3.92,0,0,0,68.184.108Zm.012-1.3c-1.68,0-2.544-1.176-2.544-2.844s.864-2.844,2.544-2.844,2.532,1.188,2.532,2.844S69.876-1.188,68.2-1.188ZM-46.884,14V12.8h-4.332V10.5h3.588V9.3h-3.588V7.16h4.332V5.96h-5.688V14Zm7.488,0V10.832H-35.9v-1.2H-39.4V7.16h4.224V5.96h-5.58V14Zm11.76,0V12.8h-4.116V5.96h-1.356V14Zm7.572,0V12.8H-24.4V10.5h3.588V9.3H-24.4V7.16h4.332V5.96h-5.688V14Zm3.108,0,2.064-3.288L-12.78,14h1.7L-13.9,9.92l2.64-3.96h-1.62L-14.832,9.1l-1.92-3.144h-1.716l2.652,3.888L-18.648,14Zm9.036,0V5.96H-9.276V14Zm6.588,0c1.728,0,2.8-.708,2.8-2.136,0-1.08-.648-1.9-2.472-2.04,1.3-.108,2.136-.744,2.136-1.812,0-1.188-.768-2.052-2.4-2.052H-4.92V14ZM-1.68,7.16c.84,0,1.4.264,1.4,1.08S-.828,9.308-1.632,9.308H-3.564V7.16Zm.18,3.288c.936,0,1.572.36,1.572,1.176S-.432,12.8-1.536,12.8H-3.564V10.448ZM5.316,14V5.96H3.96V14Zm8.472,0V12.8H9.672V5.96H8.316V14Zm3.24,0V5.96H15.672V14Zm6.036,0c2.5,0,3.828-1.536,3.828-4.02s-1.344-4.02-3.828-4.02H20.028V14ZM22.9,7.16c1.668,0,2.58.8,2.58,2.82s-.912,2.82-2.568,2.82H21.384V7.16ZM29.736,14l.768-2.028h3.4L34.668,14h1.488L33.012,5.96h-1.56L28.308,14Zm2.04-5.376.432-1.452.432,1.452.816,2.172H30.948ZM40.932,14c2.5,0,3.828-1.536,3.828-4.02s-1.344-4.02-3.828-4.02H37.9V14Zm-.168-6.84c1.668,0,2.58.8,2.58,2.82s-.912,2.82-2.568,2.82H39.252V7.16ZM52.92,14V12.8H48.588V10.5h3.588V9.3H48.588V7.16H52.92V5.96H47.232V14Z" transform="translate(224.833 32.656)" fill="#e3e3e3"/>
    </g>
    <path id="Caminho_9591" data-name="Caminho 9591" d="M-17.7,0V-1.4h-5.054V-4.088h4.186v-1.4h-4.186V-7.98H-17.7v-1.4h-6.636V0Zm4.2,0V-3.7h4.074V-5.1H-13.5V-7.98h4.928v-1.4h-6.51V0ZM.469,0V-1.4H-4.585V-4.088H-.4v-1.4H-4.585V-7.98H.469v-1.4H-6.167V0Zm4.2,0V-9.38H3.087V0Zm6.51,0V-7.98h2.884v-1.4H6.727v1.4H9.6V0Zm8.848.126a4.581,4.581,0,0,0,4.62-4.83,4.577,4.577,0,0,0-4.62-4.816A4.569,4.569,0,0,0,15.407-4.7,4.573,4.573,0,0,0,20.027.126Zm.014-1.512c-1.96,0-2.968-1.372-2.968-3.318s1.008-3.318,2.968-3.318S23-6.636,23-4.7,22-1.386,20.041-1.386ZM-24.962,16V14.6h-5.054V11.912h4.186v-1.4h-4.186V8.02h5.054V6.62H-31.6V16Zm4.2,0V11.59L-20.986,8.5l1.106,2.688,1.624,3.234h1.6l1.624-3.234L-13.958,8.5l-.2,3.094V16h1.582V6.62H-14.5l-2.016,4.116-.938,2.394-.924-2.394L-20.4,6.62h-1.946V16ZM-3.43,16V12.36h1.148a1.66,1.66,0,0,1,1.708.854L1.05,16H2.87l-1.6-2.7A2.128,2.128,0,0,0,0,12.192a2.609,2.609,0,0,0,2.548-2.66C2.548,7.6,1.12,6.62-.784,6.62H-5.012V16ZM-.938,8.02C.056,8.02.91,8.384.91,9.574c0,1.134-.854,1.5-1.848,1.5H-3.43V8.02ZM11.858,16V14.6H6.8V11.912H10.99v-1.4H6.8V8.02h5.054V6.62H5.222V16Zm6.16,0c2.912,0,4.466-1.792,4.466-4.69s-1.568-4.69-4.466-4.69H14.476V16Zm-.2-7.98c1.946,0,3.01.938,3.01,3.29s-1.064,3.29-3,3.29H16.058V8.02ZM32,16V14.6H26.95V11.912h4.186v-1.4H26.95V8.02H32V6.62H25.368V16Z" transform="translate(1038.856 158.98)" fill="#e3e3e3"/>
    <path id="Caminho_9589" data-name="Caminho 9589" d="M-41.209,0V-9.38h-1.582V0Zm5.082,0V-5.166l-.112-1.708.854,1.33L-31.493,0h1.456V-9.38h-1.582v5.152l.1,1.778-.924-1.47-3.794-5.46h-1.47V0Zm13.594.126a4.581,4.581,0,0,0,4.62-4.83,4.577,4.577,0,0,0-4.62-4.816A4.569,4.569,0,0,0-27.153-4.7,4.573,4.573,0,0,0-22.533.126Zm.014-1.512c-1.96,0-2.968-1.372-2.968-3.318s1.008-3.318,2.968-3.318,2.954,1.386,2.954,3.318S-20.559-1.386-22.519-1.386ZM-11.011,0l3.43-9.38H-9.3l-1.862,5.474-.714,2.7-.7-2.7L-14.441-9.38h-1.806L-12.817,0Zm5.782,0,.9-2.366H-.371L.525,0H2.261L-1.407-9.38h-1.82L-6.895,0Zm2.38-6.272.5-1.694.5,1.694.952,2.534H-3.815Zm11.116,8.9c.784,0,1.3-.42,1.3-1.078,0-.518-.392-.91-1.134-.9L8.813.1a4.1,4.1,0,0,0,3.766-2.884L11.207-3.794A2.7,2.7,0,0,1,8.435-1.386C6.5-1.386,5.593-2.772,5.593-4.7S6.5-8.022,8.435-8.022a2.69,2.69,0,0,1,2.772,2.408l1.372-1.008a4.135,4.135,0,0,0-4.158-2.9C5.537-9.52,3.913-7.406,3.913-4.7,3.913-2.156,5.355-.14,7.931.084l-.49.84.28.336a2.853,2.853,0,0,1,.448-.042c.266,0,.448.084.448.322,0,.2-.14.308-.392.308a1.392,1.392,0,0,1-.994-.49l-.294.812A1.953,1.953,0,0,0,8.267,2.632ZM18.725-10.262a1.15,1.15,0,0,1-.28-.63.173.173,0,0,1,.182-.2,1.275,1.275,0,0,1,.6.322,2.018,2.018,0,0,0,1.176.518.785.785,0,0,0,.812-.882,1.573,1.573,0,0,0-.238-.826h-.924a1.067,1.067,0,0,1,.294.6.18.18,0,0,1-.182.2,1.129,1.129,0,0,1-.588-.322,1.891,1.891,0,0,0-1.134-.5.841.841,0,0,0-.91.9,1.611,1.611,0,0,0,.238.826ZM19.383.126A4.581,4.581,0,0,0,24-4.7a4.577,4.577,0,0,0-4.62-4.816A4.569,4.569,0,0,0,14.763-4.7,4.573,4.573,0,0,0,19.383.126ZM19.4-1.386c-1.96,0-2.968-1.372-2.968-3.318S17.437-8.022,19.4-8.022,22.351-6.636,22.351-4.7,21.357-1.386,19.4-1.386ZM33.523,0V-1.4H28.469V-4.088h4.186v-1.4H28.469V-7.98h5.054v-1.4H26.887V0Zm6.286.14c1.9,0,3.332-.98,3.332-2.674,0-1.792-1.344-2.38-2.842-2.744l-1.05-.252c-1.022-.252-1.666-.546-1.666-1.372,0-.714.644-1.134,1.54-1.134A2.754,2.754,0,0,1,41.8-6.37L42.987-7.5a4.015,4.015,0,0,0-3.766-2c-1.764,0-3.29.952-3.29,2.716s1.414,2.38,2.744,2.66l.882.2c1.218.266,1.974.518,1.974,1.428,0,.854-.756,1.19-1.694,1.19a3.163,3.163,0,0,1-3.066-1.9l-1.12,1.134A4.262,4.262,0,0,0,39.809.14ZM-41.818,16V14.6h-5.054V11.912h4.186v-1.4h-4.186V8.02h5.054V6.62h-6.636V16Zm4.2,0V11.59L-37.842,8.5l1.106,2.688,1.624,3.234h1.6l1.624-3.234L-30.814,8.5l-.2,3.094V16h1.582V6.62H-31.36l-2.016,4.116-.938,2.394-.924-2.394L-37.254,6.62H-39.2V16Zm18.648.14c2.3,0,3.4-1.05,3.4-3.766V6.62H-17.15v5.53c0,1.862-.462,2.478-1.82,2.478-1.442,0-2.128-1.078-2.31-2.576l-1.372,1.008A3.616,3.616,0,0,0-18.97,16.14Zm10.836-.014a4.581,4.581,0,0,0,4.62-4.83A4.577,4.577,0,0,0-8.134,6.48a4.569,4.569,0,0,0-4.62,4.816A4.573,4.573,0,0,0-8.134,16.126Zm.014-1.512c-1.96,0-2.968-1.372-2.968-3.318S-10.08,7.978-8.12,7.978-5.166,9.364-5.166,11.3-6.16,14.614-8.12,14.614ZM.952,16V12.36H2.1a1.66,1.66,0,0,1,1.708.854L5.432,16h1.82l-1.6-2.7a2.128,2.128,0,0,0-1.274-1.106A2.609,2.609,0,0,0,6.93,9.532C6.93,7.6,5.5,6.62,3.6,6.62H-.63V16ZM3.444,8.02c.994,0,1.848.364,1.848,1.554,0,1.134-.854,1.5-1.848,1.5H.952V8.02ZM11.186,16V10.834l-.112-1.708.854,1.33L15.82,16h1.456V6.62H15.694v5.152l.1,1.778-.924-1.47L11.074,6.62H9.6V16Zm9.786,0,.9-2.366H25.83l.9,2.366h1.736L24.794,6.62h-1.82L19.306,16Zm2.38-6.272.5-1.694.5,1.694.952,2.534H22.386ZM34.034,16c2.912,0,4.466-1.792,4.466-4.69s-1.568-4.69-4.466-4.69H30.492V16Zm-.2-7.98c1.946,0,3.01.938,3.01,3.29s-1.064,3.29-3,3.29H32.074V8.02ZM41.818,16l.9-2.366h3.962l.9,2.366h1.736L45.64,6.62H43.82L40.152,16ZM44.2,9.728l.5-1.694.5,1.694.952,2.534H43.232Z" transform="translate(845.813 272.095)" fill="#e3e3e3"/>
    <path id="Caminho_9588" data-name="Caminho 9588" d="M-65.611,0V-2.968h2.254c1.988,0,3.514-1.022,3.514-3.164,0-2.24-1.54-3.248-3.514-3.248h-3.836V0Zm2.1-7.98c1.078,0,2.03.392,2.03,1.848,0,1.358-.952,1.764-2.03,1.764h-2.1V-7.98ZM-50.631,0V-1.4h-5.054V-4.088H-51.5v-1.4h-4.186V-7.98h5.054v-1.4h-6.636V0Zm4.2,0V-3.64h1.148a1.66,1.66,0,0,1,1.708.854L-41.951,0h1.82l-1.6-2.7A2.128,2.128,0,0,0-43-3.808a2.609,2.609,0,0,0,2.548-2.66c0-1.932-1.428-2.912-3.332-2.912h-4.228V0Zm2.492-7.98c.994,0,1.848.364,1.848,1.554,0,1.134-.854,1.5-1.848,1.5h-2.492V-7.98ZM-33.985.14c1.9,0,3.332-.98,3.332-2.674,0-1.792-1.344-2.38-2.842-2.744l-1.05-.252c-1.022-.252-1.666-.546-1.666-1.372,0-.714.644-1.134,1.54-1.134A2.754,2.754,0,0,1-32-6.37l1.19-1.134a4.015,4.015,0,0,0-3.766-2c-1.764,0-3.29.952-3.29,2.716s1.414,2.38,2.744,2.66l.882.2c1.218.266,1.974.518,1.974,1.428,0,.854-.756,1.19-1.694,1.19a3.163,3.163,0,0,1-3.066-1.9l-1.12,1.134A4.262,4.262,0,0,0-33.985.14Zm10.3-.014a4.581,4.581,0,0,0,4.62-4.83,4.577,4.577,0,0,0-4.62-4.816A4.569,4.569,0,0,0-28.3-4.7,4.573,4.573,0,0,0-23.681.126Zm.014-1.512c-1.96,0-2.968-1.372-2.968-3.318s1.008-3.318,2.968-3.318,2.954,1.386,2.954,3.318S-21.707-1.386-23.667-1.386ZM-14.6,0V-5.166l-.112-1.708.854,1.33L-9.961,0h1.456V-9.38h-1.582v5.152l.1,1.778-.924-1.47-3.794-5.46h-1.47V0Zm9.786,0,.9-2.366H.049L.945,0H2.681L-.987-9.38h-1.82L-6.475,0Zm2.38-6.272.5-1.694.5,1.694.952,2.534H-3.4ZM11.095,0V-1.4h-4.8V-9.38H4.711V0Zm3.78,0V-9.38H13.293V0Zm9.912,0V-1.4h-4.55l-1.078.07,1.106-1.3,4.242-5.5V-9.38H17.661v1.4h3.752l1.33-.07L21.357-6.412,17.381-1.246V0Zm3.22,0,.9-2.366h3.962L33.761,0H35.5L31.829-9.38h-1.82L26.341,0Zm2.38-6.272.5-1.694.5,1.694.952,2.534H29.421ZM41.5,2.632c.784,0,1.3-.42,1.3-1.078,0-.518-.392-.91-1.134-.9L42.049.1a4.1,4.1,0,0,0,3.766-2.884L44.443-3.794a2.7,2.7,0,0,1-2.772,2.408c-1.932,0-2.842-1.386-2.842-3.318s.91-3.318,2.842-3.318a2.69,2.69,0,0,1,2.772,2.408l1.372-1.008a4.135,4.135,0,0,0-4.158-2.9c-2.884,0-4.508,2.114-4.508,4.816,0,2.548,1.442,4.564,4.018,4.788l-.49.84.28.336a2.853,2.853,0,0,1,.448-.042c.266,0,.448.084.448.322,0,.2-.14.308-.392.308a1.392,1.392,0,0,1-.994-.49l-.294.812A1.953,1.953,0,0,0,41.5,2.632Zm9.87-12.894a1.15,1.15,0,0,1-.28-.63.173.173,0,0,1,.182-.2,1.275,1.275,0,0,1,.6.322,2.018,2.018,0,0,0,1.176.518.785.785,0,0,0,.812-.882,1.573,1.573,0,0,0-.238-.826H52.7a1.067,1.067,0,0,1,.294.6.18.18,0,0,1-.182.2,1.129,1.129,0,0,1-.588-.322,1.891,1.891,0,0,0-1.134-.5.841.841,0,0,0-.91.9,1.61,1.61,0,0,0,.238.826ZM49.119,0l.9-2.366h3.962L54.873,0h1.736L52.941-9.38h-1.82L47.453,0ZM51.5-6.272,52-7.966l.5,1.694.952,2.534H50.533ZM62.881.126A4.581,4.581,0,0,0,67.5-4.7a4.577,4.577,0,0,0-4.62-4.816A4.569,4.569,0,0,0,58.261-4.7,4.573,4.573,0,0,0,62.881.126Zm.014-1.512c-1.96,0-2.968-1.372-2.968-3.318s1.008-3.318,2.968-3.318S65.849-6.636,65.849-4.7,64.855-1.386,62.895-1.386ZM-41.8,16V13.032h2.254c1.988,0,3.514-1.022,3.514-3.164,0-2.24-1.54-3.248-3.514-3.248h-3.836V16Zm2.1-7.98c1.078,0,2.03.392,2.03,1.848,0,1.358-.952,1.764-2.03,1.764h-2.1V8.02Zm10.584,8.106a4.581,4.581,0,0,0,4.62-4.83,4.577,4.577,0,0,0-4.62-4.816,4.569,4.569,0,0,0-4.62,4.816A4.573,4.573,0,0,0-29.113,16.126Zm.014-1.512c-1.96,0-2.968-1.372-2.968-3.318s1.008-3.318,2.968-3.318,2.954,1.386,2.954,3.318S-27.139,14.614-29.1,14.614ZM-20.027,16V12.36h1.148a1.66,1.66,0,0,1,1.708.854L-15.547,16h1.82l-1.6-2.7A2.128,2.128,0,0,0-16.6,12.192a2.609,2.609,0,0,0,2.548-2.66c0-1.932-1.428-2.912-3.332-2.912h-4.228V16Zm2.492-7.98c.994,0,1.848.364,1.848,1.554,0,1.134-.854,1.5-1.848,1.5h-2.492V8.02ZM-3.325,16c2.912,0,4.466-1.792,4.466-4.69S-.427,6.62-3.325,6.62H-6.867V16Zm-.2-7.98c1.946,0,3.01.938,3.01,3.29s-1.064,3.29-3,3.29H-5.285V8.02ZM4.459,16l.9-2.366H9.317l.9,2.366h1.736L8.281,6.62H6.461L2.793,16Zm2.38-6.272.5-1.694.5,1.694L8.8,12.262H5.873ZM17.521,16c2.912,0,4.466-1.792,4.466-4.69s-1.568-4.69-4.466-4.69H13.979V16Zm-.2-7.98c1.946,0,3.01.938,3.01,3.29s-1.064,3.29-3,3.29H15.561V8.02ZM29.2,16.126a4.581,4.581,0,0,0,4.62-4.83,4.624,4.624,0,1,0-9.24,0A4.573,4.573,0,0,0,29.2,16.126Zm.014-1.512c-1.96,0-2.968-1.372-2.968-3.318s1.008-3.318,2.968-3.318,2.954,1.386,2.954,3.318S31.171,14.614,29.211,14.614ZM40.4,16.14c1.9,0,3.332-.98,3.332-2.674,0-1.792-1.344-2.38-2.842-2.744l-1.05-.252c-1.022-.252-1.666-.546-1.666-1.372,0-.714.644-1.134,1.54-1.134A2.754,2.754,0,0,1,42.385,9.63L43.575,8.5a4.015,4.015,0,0,0-3.766-2c-1.764,0-3.29.952-3.29,2.716s1.414,2.38,2.744,2.66l.882.2c1.218.266,1.974.518,1.974,1.428,0,.854-.756,1.19-1.694,1.19a3.163,3.163,0,0,1-3.066-1.9l-1.12,1.134A4.262,4.262,0,0,0,40.4,16.14Z" transform="translate(1012.981 297.175)" fill="#e3e3e3"/>
    <path id="Caminho_9590" data-name="Caminho 9590" d="M-48.867.112a4.151,4.151,0,0,0,4.158-2.9l-1.372-1.008a2.7,2.7,0,0,1-2.772,2.408c-1.932,0-2.842-1.386-2.842-3.318s.91-3.318,2.842-3.318a2.69,2.69,0,0,1,2.772,2.408l1.372-1.008a4.135,4.135,0,0,0-4.158-2.9c-2.884,0-4.508,2.114-4.508,4.816S-51.751.112-48.867.112Zm8.4-.112V-3.64h1.148a1.66,1.66,0,0,1,1.708.854L-35.987,0h1.82l-1.6-2.7a2.128,2.128,0,0,0-1.274-1.106,2.609,2.609,0,0,0,2.548-2.66c0-1.932-1.428-2.912-3.332-2.912h-4.228V0Zm2.492-7.98c.994,0,1.848.364,1.848,1.554,0,1.134-.854,1.5-1.848,1.5h-2.492V-7.98ZM-25.179,0V-1.4h-5.054V-4.088h4.186v-1.4h-4.186V-7.98h5.054v-1.4h-6.636V0Zm6.286.14c1.9,0,3.332-.98,3.332-2.674,0-1.792-1.344-2.38-2.842-2.744l-1.05-.252c-1.022-.252-1.666-.546-1.666-1.372,0-.714.644-1.134,1.54-1.134A2.754,2.754,0,0,1-16.905-6.37l1.19-1.134a4.015,4.015,0,0,0-3.766-2c-1.764,0-3.29.952-3.29,2.716s1.414,2.38,2.744,2.66l.882.2c1.218.266,1.974.518,1.974,1.428,0,.854-.756,1.19-1.694,1.19a3.163,3.163,0,0,1-3.066-1.9l-1.12,1.134A4.262,4.262,0,0,0-18.893.14ZM-8.7.112a4.151,4.151,0,0,0,4.158-2.9L-5.915-3.794A2.7,2.7,0,0,1-8.687-1.386c-1.932,0-2.842-1.386-2.842-3.318s.91-3.318,2.842-3.318A2.69,2.69,0,0,1-5.915-5.614l1.372-1.008A4.135,4.135,0,0,0-8.7-9.52c-2.884,0-4.508,2.114-4.508,4.816S-11.585.112-8.7.112ZM-.3,0V-9.38H-1.883V0ZM4.781,0V-4.41L4.557-7.5,5.663-4.816,7.287-1.582h1.6l1.624-3.234L11.585-7.5l-.2,3.094V0h1.582V-9.38H11.039L9.023-5.264,8.085-2.87,7.161-5.264,5.145-9.38H3.2V0ZM23.107,0V-1.4H18.053V-4.088h4.186v-1.4H18.053V-7.98h5.054v-1.4H16.471V0Zm4.2,0V-5.166l-.112-1.708.854,1.33L31.941,0H33.4V-9.38H31.815v5.152l.1,1.778-.924-1.47L27.195-9.38h-1.47V0Zm12.6,0V-7.98h2.884v-1.4H35.455v1.4h2.87V0Zm8.848.126a4.581,4.581,0,0,0,4.62-4.83,4.577,4.577,0,0,0-4.62-4.816A4.569,4.569,0,0,0,44.135-4.7,4.573,4.573,0,0,0,48.755.126Zm.014-1.512c-1.96,0-2.968-1.372-2.968-3.318s1.008-3.318,2.968-3.318S51.723-6.636,51.723-4.7,50.729-1.386,48.769-1.386ZM-45.934,16c2.912,0,4.466-1.792,4.466-4.69s-1.568-4.69-4.466-4.69h-3.542V16Zm-.2-7.98c1.946,0,3.01.938,3.01,3.29s-1.064,3.29-3,3.29h-1.778V8.02ZM-31.948,16V14.6H-37V11.912h4.186v-1.4H-37V8.02h5.054V6.62h-6.636V16Zm10.766.14c2.562,0,3.752-1.3,3.752-4.144V6.62H-19v5.39c0,1.862-.6,2.618-2.17,2.618-1.54,0-2.17-.756-2.17-2.618V6.62h-1.568V12C-24.906,14.838-23.688,16.14-21.182,16.14Zm10.528,0c1.9,0,3.332-.98,3.332-2.674,0-1.792-1.344-2.38-2.842-2.744l-1.05-.252c-1.022-.252-1.666-.546-1.666-1.372,0-.714.644-1.134,1.54-1.134A2.754,2.754,0,0,1-8.666,9.63L-7.476,8.5a4.015,4.015,0,0,0-3.766-2c-1.764,0-3.29.952-3.29,2.716s1.414,2.38,2.744,2.66l.882.2c1.218.266,1.974.518,1.974,1.428,0,.854-.756,1.19-1.694,1.19a3.163,3.163,0,0,1-3.066-1.9l-1.12,1.134A4.262,4.262,0,0,0-10.654,16.14Zm9.772,0c2.562,0,3.752-1.3,3.752-4.144V6.62H1.3v5.39c0,1.862-.6,2.618-2.17,2.618-1.54,0-2.17-.756-2.17-2.618V6.62H-4.606V12C-4.606,14.838-3.388,16.14-.882,16.14Zm10.71-10.4,1.68-1.624H9.562L8.456,5.738ZM6.454,16l.9-2.366h3.962l.9,2.366h1.736L10.276,6.62H8.456L4.788,16Zm2.38-6.272.5-1.694.5,1.694.952,2.534H7.868ZM17.556,16V12.36H18.7a1.66,1.66,0,0,1,1.708.854L22.036,16h1.82l-1.6-2.7a2.128,2.128,0,0,0-1.274-1.106,2.609,2.609,0,0,0,2.548-2.66c0-1.932-1.428-2.912-3.332-2.912H15.974V16Zm2.492-7.98c.994,0,1.848.364,1.848,1.554,0,1.134-.854,1.5-1.848,1.5H17.556V8.02ZM27.79,16V6.62H26.208V16Zm7.5.126a4.581,4.581,0,0,0,4.62-4.83,4.624,4.624,0,1,0-9.24,0A4.573,4.573,0,0,0,35.294,16.126Zm.014-1.512c-1.96,0-2.968-1.372-2.968-3.318s1.008-3.318,2.968-3.318,2.954,1.386,2.954,3.318S37.268,14.614,35.308,14.614ZM46.494,16.14c1.9,0,3.332-.98,3.332-2.674,0-1.792-1.344-2.38-2.842-2.744l-1.05-.252c-1.022-.252-1.666-.546-1.666-1.372,0-.714.644-1.134,1.54-1.134A2.754,2.754,0,0,1,48.482,9.63L49.672,8.5a4.015,4.015,0,0,0-3.766-2c-1.764,0-3.29.952-3.29,2.716s1.414,2.38,2.744,2.66l.882.2c1.218.266,1.974.518,1.974,1.428,0,.854-.756,1.19-1.694,1.19a3.163,3.163,0,0,1-3.066-1.9l-1.12,1.134A4.262,4.262,0,0,0,46.494,16.14Z" transform="translate(899.724 130.8)" fill="#e3e3e3"/>
    <g id="Grupo_23750" data-name="Grupo 23750" transform="translate(805.53 190.893) rotate(-30)">
      <path id="Caminho_9203" data-name="Caminho 9203" d="M0,53.69S.919,7.566,46.4,0" transform="translate(0 6.707)" fill="none" stroke="#ff0070" stroke-width="1"/>
      <path id="Polígono_6" data-name="Polígono 6" d="M5.183,1.248a1,1,0,0,1,1.664,0l4.146,6.219a1,1,0,0,1-.832,1.555H1.869a1,1,0,0,1-.832-1.555Z" transform="translate(55.383 0) rotate(90)" fill="#ff0070"/>
    </g>
    <g id="Grupo_23751" data-name="Grupo 23751" transform="matrix(-0.839, 0.545, -0.545, -0.839, 1091.532, 245.798)">
      <path id="Caminho_9203-2" data-name="Caminho 9203" d="M0,53.69S.919,7.566,46.4,0" transform="translate(0 6.707)" fill="none" stroke="#ff0070" stroke-width="1"/>
      <path id="Polígono_6-2" data-name="Polígono 6" d="M5.183,1.248a1,1,0,0,1,1.664,0l4.146,6.219a1,1,0,0,1-.832,1.555H1.869a1,1,0,0,1-.832-1.555Z" transform="translate(55.383 0) rotate(90)" fill="#ff0070"/>
    </g>
    <g id="Grupo_23752" data-name="Grupo 23752" transform="translate(1000.312 77.806) rotate(61)">
      <path id="Caminho_9203-3" data-name="Caminho 9203" d="M0,53.69S.919,7.566,46.4,0" transform="translate(0 6.707)" fill="none" stroke="#ff0070" stroke-width="1"/>
      <path id="Polígono_6-3" data-name="Polígono 6" d="M5.183,1.248a1,1,0,0,1,1.664,0l4.146,6.219a1,1,0,0,1-.832,1.555H1.869a1,1,0,0,1-.832-1.555Z" transform="translate(55.383 0) rotate(90)" fill="#ff0070"/>
    </g>
    <g id="Grupo_23753" data-name="Grupo 23753" transform="matrix(-0.53, -0.848, 0.848, -0.53, 902.673, 353.827)">
      <path id="Caminho_9203-4" data-name="Caminho 9203" d="M0,53.69S.919,7.566,46.4,0" transform="translate(0 6.707)" fill="none" stroke="#ff0070" stroke-width="1"/>
      <path id="Polígono_6-4" data-name="Polígono 6" d="M5.183,1.248a1,1,0,0,1,1.664,0l4.146,6.219a1,1,0,0,1-.832,1.555H1.869a1,1,0,0,1-.832-1.555Z" transform="translate(55.383 0) rotate(90)" fill="#ff0070"/>
    </g>
    <ellipse id="Elipse_2176" data-name="Elipse 2176" cx="93.382" cy="86.114" rx="93.382" ry="86.114" transform="matrix(0.951, 0.309, -0.309, 0.951, 885.287, 105.485)" opacity="0.5" fill="url(#radial-gradient)" style="mix-blend-mode: screen;isolation: isolate"/>
    <ellipse id="Elipse_2181" data-name="Elipse 2181" cx="4.511" cy="4.511" rx="4.511" ry="4.511" transform="translate(944.48 211.73)" fill="#af39e6"/>
  </g>
</svg>
